<svg width="50" height="50" viewBox="0 0 50 50" fill="none" xmlns="http://www.w3.org/2000/svg">
<path d="M16.9126 30.6226C16.9604 30.5428 17.0243 30.479 17.104 30.4312C17.1838 30.3833 17.2715 30.3594 17.3672 30.3594C17.4629 30.3594 17.5506 30.3833 17.6304 30.4312C17.7101 30.479 17.7739 30.5428 17.8218 30.6226V30.6465L19.2334 33.4458C19.5046 34.1317 19.4408 34.8096 19.042 35.4795C18.6432 36.1494 18.085 36.4844 17.3672 36.4844C16.6016 36.4844 16.0154 36.1255 15.6086 35.4077C15.2019 34.6899 15.174 33.9881 15.5249 33.3022L16.9126 30.6226ZM17.3672 31.9863L16.4341 33.7568C16.2586 34.1237 16.2746 34.4985 16.4819 34.8813C16.6893 35.2642 16.9844 35.4556 17.3672 35.4556C17.7021 35.4556 17.9773 35.2801 18.1926 34.9292C18.408 34.5783 18.4438 34.2274 18.3003 33.8765L17.3672 31.9863ZM31.1245 13.5156C31.2681 13.5156 31.3877 13.5635 31.4834 13.6592C31.5791 13.7549 31.627 13.8745 31.627 14.0181C31.627 14.1457 31.5871 14.2573 31.5073 14.353C31.4276 14.4487 31.3319 14.5046 31.2202 14.5205H31.1245H28.5645V18.1094H29.8086C30.0957 18.1094 30.3589 18.1931 30.5981 18.3606C30.8374 18.5281 31.0129 18.7314 31.1245 18.9707L31.1724 19.0903H36.2207C36.3483 19.0903 36.46 19.1302 36.5557 19.21C36.6514 19.2897 36.7072 19.3854 36.7231 19.4971V19.521L36.7471 19.5928V23.1338C36.7471 23.2614 36.7072 23.373 36.6274 23.4688C36.5477 23.5645 36.444 23.6203 36.3164 23.6362H36.2207H20.645C20.4217 23.6362 20.2303 23.704 20.0708 23.8396C19.9113 23.9752 19.8156 24.1307 19.7837 24.3062V24.4019V24.7368H20.7886C20.9162 24.7368 21.0278 24.7767 21.1235 24.8564C21.2192 24.9362 21.2751 25.0399 21.291 25.1675L21.3149 25.2632V27.7993C21.3149 27.9269 21.2751 28.0386 21.1953 28.1343C21.1156 28.23 21.0119 28.2858 20.8843 28.3018H20.7886H19.4248C19.2812 28.3018 19.1616 28.2539 19.0659 28.1582C18.9702 28.0625 18.9224 27.9429 18.9224 27.7993C18.9224 27.6717 18.9622 27.5601 19.042 27.4644C19.1217 27.3687 19.2174 27.3128 19.3291 27.2969H19.4248H20.2861V25.7656H19.2812C19.1536 25.7656 19.042 25.7257 18.9463 25.646C18.8506 25.5662 18.7948 25.4705 18.7788 25.3589V25.335L18.7549 25.2632V24.4019C18.7549 23.9233 18.9224 23.5166 19.2573 23.1816C19.5923 22.8467 20.007 22.6632 20.5015 22.6313H20.645H35.7183V20.1191H30.7178C30.6061 20.1191 30.5024 20.0793 30.4067 19.9995C30.311 19.9198 30.2472 19.8161 30.2153 19.6885V19.5928V19.4492C30.2153 19.4014 30.1794 19.3416 30.1077 19.2698C30.0359 19.198 29.9601 19.1541 29.8804 19.1382L29.8086 19.1143H25.0713C24.9915 19.1143 24.9118 19.1462 24.832 19.21C24.7523 19.2738 24.7044 19.3376 24.6885 19.4014L24.6646 19.4492V19.5928C24.6646 19.7204 24.6247 19.832 24.5449 19.9277C24.4652 20.0234 24.3695 20.0793 24.2578 20.0952L24.1621 20.1191H20.334C19.1377 20.1191 18.1009 20.5059 17.2236 21.2795C16.3464 22.0531 15.8758 22.9823 15.812 24.0669V24.2583V25.2632C15.812 25.3748 15.7721 25.4785 15.6924 25.5742C15.6126 25.6699 15.5169 25.7337 15.4053 25.7656H15.3813H15.3096H14.2808V27.2969H16.2188C16.3464 27.2969 16.454 27.3368 16.5417 27.4165C16.6295 27.4963 16.6893 27.592 16.7212 27.7036V27.7993C16.7212 27.9269 16.6813 28.0386 16.6016 28.1343C16.5218 28.23 16.4261 28.2858 16.3145 28.3018H16.2188H13.7783C13.6507 28.3018 13.5391 28.2619 13.4434 28.1821C13.3477 28.1024 13.2918 28.0067 13.2759 27.895L13.252 27.7993V25.2632C13.252 25.1356 13.2918 25.0239 13.3716 24.9282C13.4513 24.8325 13.555 24.7767 13.6826 24.7607L13.7783 24.7368H14.7832V24.2583C14.7832 23.5724 14.9268 22.9185 15.2139 22.2964C15.485 21.6903 15.8639 21.1519 16.3503 20.6814C16.8368 20.2109 17.3991 19.84 18.0371 19.5688C18.6911 19.2817 19.3849 19.1222 20.1187 19.0903H20.334H23.7075C23.7873 18.8351 23.9428 18.6158 24.1741 18.4324C24.4054 18.2489 24.6566 18.1413 24.9277 18.1094H25.0713H27.5596V14.5205H24.9995C24.856 14.5205 24.7363 14.4727 24.6406 14.377C24.5449 14.2812 24.4971 14.1616 24.4971 14.0181C24.4971 13.8905 24.5369 13.7788 24.6167 13.6831C24.6965 13.5874 24.7922 13.5316 24.9038 13.5156H24.9995H31.1245Z" fill="#732FCB"/>
</svg>
