<svg width="50" height="50" viewBox="0 0 50 50" fill="none" xmlns="http://www.w3.org/2000/svg">
<g clip-path="url(#clip0_57141_10387)">
<path d="M29.2827 21.3154L23.6841 27.7515L20.7173 25.311C20.6056 25.1994 20.482 25.1635 20.3464 25.2034C20.2109 25.2432 20.0952 25.311 19.9995 25.4067C19.9038 25.5024 19.8719 25.6221 19.9038 25.7656C19.9357 25.9092 19.9995 26.0288 20.0952 26.1245L23.7798 29.187L30.0962 22.0332C30.2078 21.9375 30.2637 21.8219 30.2637 21.6863C30.2637 21.5507 30.2078 21.4271 30.0962 21.3154C29.9526 21.1719 29.8091 21.1001 29.6655 21.1001C29.522 21.1001 29.3944 21.1719 29.2827 21.3154ZM25 12.8457C23.3092 12.8457 21.7301 13.1647 20.2627 13.8027C18.7793 14.4408 17.4913 15.3061 16.3987 16.3987C15.3061 17.4913 14.4408 18.7793 13.8027 20.2627C13.1647 21.7301 12.8457 23.3092 12.8457 25C12.8457 26.6908 13.1647 28.2699 13.8027 29.7373C14.4408 31.2207 15.3061 32.5087 16.3987 33.6013C17.4913 34.6939 18.7793 35.5592 20.2627 36.1973C21.7301 36.8353 23.3092 37.1543 25 37.1543C26.6908 37.1543 28.2699 36.8353 29.7373 36.1973C31.2207 35.5592 32.5087 34.6939 33.6013 33.6013C34.6939 32.5087 35.5592 31.2207 36.1973 29.7373C36.8353 28.2699 37.1543 26.6908 37.1543 25C37.1543 23.3092 36.8353 21.7301 36.1973 20.2627C35.5592 18.7793 34.6939 17.4913 33.6013 16.3987C32.5087 15.3061 31.2207 14.4408 29.7373 13.8027C28.2699 13.1647 26.6908 12.8457 25 12.8457ZM25 36.1255C23.4688 36.1255 22.0252 35.8304 20.6694 35.2402C19.3296 34.666 18.1532 33.8725 17.1404 32.8596C16.1275 31.8468 15.334 30.6704 14.7598 29.3306C14.1696 27.9748 13.8745 26.5312 13.8745 25C13.8745 23.4688 14.1696 22.0252 14.7598 20.6694C15.334 19.3296 16.1275 18.1532 17.1404 17.1404C18.1532 16.1275 19.3296 15.334 20.6694 14.7598C22.0252 14.1696 23.4688 13.8745 25 13.8745C26.5312 13.8745 27.9748 14.1696 29.3306 14.7598C30.6704 15.334 31.8468 16.1275 32.8596 17.1404C33.8725 18.1532 34.666 19.3296 35.2402 20.6694C35.8304 22.0252 36.1255 23.4688 36.1255 25C36.1255 26.5312 35.8304 27.9748 35.2402 29.3306C34.666 30.6704 33.8725 31.8468 32.8596 32.8596C31.8468 33.8725 30.6704 34.666 29.3306 35.2402C27.9748 35.8304 26.5312 36.1255 25 36.1255Z" fill="#732FCB"/>
</g>
<defs>
<clipPath id="clip0_57141_10387">
<rect width="24.5" height="25" fill="white" transform="matrix(1 0 0 -1 12.75 37.5)"/>
</clipPath>
</defs>
</svg>
