<svg width="50" height="50" viewBox="0 0 50 50" fill="none" xmlns="http://www.w3.org/2000/svg">
<path d="M25.2609 12.8218L25.3326 12.8696L25.8112 13.1567C25.9707 13.2684 26.1381 13.3721 26.3136 13.4678C26.4891 13.5635 26.6725 13.6592 26.8639 13.7549L27.4142 14.042C28.3234 14.4886 29.2605 14.8874 30.2255 15.2383C31.1905 15.5892 32.1595 15.8923 33.1324 16.1475C33.4196 16.2272 33.6907 16.295 33.9459 16.3508C34.2011 16.4067 34.4484 16.4585 34.6876 16.5063L35.1901 16.626L35.7404 16.7217C35.852 16.7376 35.9517 16.7895 36.0394 16.8772C36.1272 16.9649 36.171 17.0646 36.171 17.1763C36.2348 18.1971 36.2468 19.1781 36.2069 20.1191C36.167 21.0602 36.0833 21.9614 35.9557 22.8228C35.9238 22.9504 35.864 23.058 35.7762 23.1458C35.6885 23.2335 35.5809 23.2773 35.4532 23.2773C35.3097 23.2773 35.1861 23.2255 35.0824 23.1218C34.9787 23.0181 34.9269 22.8945 34.9269 22.751C34.9269 22.735 34.9269 22.7231 34.9269 22.7151C34.9269 22.7071 34.9349 22.6951 34.9508 22.6792H34.9269C35.0545 21.9295 35.1382 21.1559 35.1781 20.3584C35.218 19.5609 35.222 18.7394 35.1901 17.894L35.1661 17.6548L34.8312 17.583C34.4005 17.5033 34.0137 17.4235 33.6708 17.3438C33.3278 17.264 32.9889 17.1763 32.6539 17.0806L32.8932 17.1523C31.8724 16.8812 30.8635 16.5662 29.8666 16.2073C28.8697 15.8484 27.9007 15.4297 26.9596 14.9512C26.6087 14.7757 26.2897 14.6082 26.0026 14.4487C25.7155 14.2892 25.4363 14.1297 25.1652 13.9702L25.2848 14.042L24.9977 13.8745L24.7106 14.042C24.5351 14.1377 24.3557 14.2414 24.1722 14.353C23.9888 14.4647 23.8014 14.5684 23.61 14.6641L23.0358 14.9512C22.0947 15.4297 21.1257 15.8484 20.1288 16.2073C19.1319 16.5662 18.123 16.8812 17.1022 17.1523C16.7513 17.2321 16.4123 17.3118 16.0853 17.3916C15.7583 17.4714 15.4513 17.5352 15.1642 17.583L14.8292 17.6548V17.7505C14.7495 19.3296 14.7973 20.813 14.9728 22.2007C15.1323 23.5884 15.3995 24.8804 15.7743 26.0767C16.1491 27.2729 16.6237 28.3735 17.1979 29.3784C17.7721 30.3993 18.434 31.3324 19.1837 32.1777L19.4469 32.4409C19.9733 33.0151 20.5395 33.5415 21.1456 34.02C21.7517 34.4985 22.3977 34.9292 23.0836 35.312L23.1554 35.3599C23.4744 35.5353 23.7735 35.6868 24.0526 35.8145C24.3317 35.9421 24.575 36.0457 24.7823 36.1255L24.9738 36.1973L25.1891 36.1255C26.194 35.7746 27.1271 35.312 27.9884 34.7378C28.8497 34.1636 29.6433 33.4897 30.369 32.7161C31.0948 31.9425 31.7527 31.0612 32.3429 30.0723C32.9171 29.0833 33.4275 27.9907 33.8741 26.7944L34.0416 26.3638C34.0735 26.2681 34.1333 26.1923 34.2211 26.1365C34.3088 26.0806 34.4085 26.0527 34.5201 26.0527C34.6477 26.0527 34.7634 26.1006 34.8671 26.1963C34.9707 26.292 35.0226 26.4116 35.0226 26.5552C35.0226 26.5871 35.0186 26.615 35.0106 26.6389C35.0026 26.6628 34.9987 26.6828 34.9987 26.6987C34.5201 28.0705 33.9539 29.3146 33.2999 30.4312C32.646 31.5636 31.9082 32.5685 31.0868 33.4458C30.2653 34.3231 29.3601 35.0728 28.3712 35.6948C27.3823 36.3328 26.3056 36.8433 25.1412 37.2261C25.1253 37.2261 25.1014 37.2301 25.0695 37.238C25.0376 37.246 25.0057 37.25 24.9738 37.25C24.9578 37.25 24.9339 37.246 24.902 37.238C24.8701 37.2301 24.8462 37.2261 24.8302 37.2261C24.559 37.1463 24.24 37.0267 23.8732 36.8672C23.5063 36.7077 23.0996 36.5003 22.653 36.2451C21.8873 35.8145 21.1775 35.3399 20.5236 34.8215C19.8696 34.3031 19.2635 33.7409 18.7052 33.1348H18.6813C17.8359 32.2096 17.0862 31.1888 16.4323 30.0723C15.7783 28.9557 15.2399 27.7355 14.8173 26.4116C14.3946 25.0877 14.0955 23.6602 13.92 22.1289C13.7605 20.5977 13.7286 18.9468 13.8243 17.1763C13.8403 17.0646 13.8881 16.9649 13.9679 16.8772C14.0476 16.7895 14.1434 16.7376 14.255 16.7217L14.6617 16.6499L14.9728 16.5781C15.2599 16.5303 15.559 16.4705 15.87 16.3987C16.181 16.3269 16.512 16.2432 16.8629 16.1475C17.8359 15.8923 18.8049 15.5892 19.7699 15.2383C20.7349 14.8874 21.672 14.4886 22.5812 14.042C22.9161 13.8825 23.2232 13.727 23.5023 13.5754C23.7815 13.4239 24.0486 13.2684 24.3038 13.1089L24.1842 13.1567L24.6866 12.8457L24.7345 12.8218C24.7664 12.8058 24.7943 12.7899 24.8182 12.7739C24.8422 12.758 24.8701 12.75 24.902 12.75L24.9738 12.7739H24.9977C25.0615 12.758 25.1093 12.754 25.1412 12.762C25.1731 12.7699 25.213 12.7899 25.2609 12.8218ZM24.8541 21.6504C24.886 21.5706 24.9458 21.5068 25.0336 21.459C25.1213 21.4111 25.213 21.3872 25.3087 21.3872C25.4044 21.3872 25.4921 21.4111 25.5719 21.459C25.6517 21.5068 25.7155 21.5706 25.7633 21.6504L26.6007 23.373L28.4908 23.6362C28.6025 23.6522 28.7022 23.708 28.7899 23.8037C28.8776 23.8994 28.9215 24.0111 28.9215 24.1387C28.9215 24.2025 28.9135 24.2583 28.8976 24.3062C28.8816 24.354 28.8577 24.4019 28.8258 24.4497L28.754 24.4976L27.4142 25.8374L27.7252 27.7036C27.7252 27.7196 27.7252 27.7355 27.7252 27.7515C27.7252 27.7674 27.7252 27.7834 27.7252 27.7993C27.7252 27.9429 27.6774 28.0625 27.5817 28.1582C27.486 28.2539 27.3663 28.3018 27.2228 28.3018C27.1909 28.3018 27.163 28.3018 27.139 28.3018C27.1151 28.3018 27.0872 28.2938 27.0553 28.2778L26.9835 28.2539L25.3087 27.3687L23.6339 28.2539C23.5861 28.2699 23.5422 28.2818 23.5023 28.2898C23.4624 28.2978 23.4266 28.3018 23.3947 28.3018C23.2511 28.3018 23.1275 28.2539 23.0238 28.1582C22.9201 28.0625 22.8683 27.9429 22.8683 27.7993L22.8922 27.7036L23.2032 25.8374L21.8395 24.4976C21.7916 24.4657 21.7557 24.4178 21.7318 24.354C21.7079 24.2902 21.6959 24.2184 21.6959 24.1387C21.6959 24.027 21.7278 23.9273 21.7916 23.8396C21.8554 23.7519 21.9352 23.6921 22.0309 23.6602L22.1266 23.6362L24.0167 23.373L24.8541 21.6504ZM25.3087 23.0381L24.8063 24.0669C24.7744 24.1307 24.7225 24.1865 24.6508 24.2344C24.579 24.2822 24.5032 24.3141 24.4235 24.3301L23.299 24.4976L24.1124 25.2871C24.1603 25.335 24.1962 25.3908 24.2201 25.4546C24.244 25.5184 24.256 25.5822 24.256 25.646V25.7417L24.0646 26.8662L25.0695 26.3398C25.1014 26.3239 25.1372 26.3079 25.1771 26.292C25.217 26.276 25.2609 26.2681 25.3087 26.2681C25.3406 26.2681 25.3685 26.2721 25.3925 26.28C25.4164 26.288 25.4363 26.292 25.4523 26.292L25.548 26.3398L26.5529 26.8662L26.3615 25.7417C26.3615 25.7257 26.3575 25.7098 26.3495 25.6938C26.3415 25.6779 26.3375 25.6619 26.3375 25.646C26.3375 25.5981 26.3455 25.5503 26.3615 25.5024C26.3774 25.4546 26.4013 25.4067 26.4332 25.3589L26.505 25.2871L27.3185 24.4976L26.194 24.3301C26.1302 24.3301 26.0704 24.3101 26.0145 24.2703C25.9587 24.2304 25.9069 24.1865 25.859 24.1387L25.8112 24.0669L25.3087 23.0381ZM32.4386 20.3105C32.4545 20.3105 32.4625 20.3105 32.4625 20.3105C32.6061 20.3105 32.7257 20.3584 32.8214 20.4541C32.9171 20.5498 32.9729 20.6615 32.9889 20.7891C33.0208 21.459 32.9969 22.1249 32.9171 22.7869C32.8374 23.4488 32.7257 24.1068 32.5822 24.7607C32.5503 24.9043 32.5184 25.0439 32.4865 25.1794C32.4545 25.315 32.4147 25.4466 32.3668 25.5742L32.1993 26.1484C32.1834 26.1803 32.1754 26.2003 32.1754 26.2083C32.1754 26.2162 32.1674 26.2282 32.1515 26.2441L32.1754 26.2202C32.1276 26.3159 32.0638 26.3957 31.984 26.4595C31.9043 26.5233 31.8086 26.5552 31.6969 26.5552C31.5533 26.5552 31.4297 26.5033 31.326 26.3997C31.2224 26.296 31.1705 26.1724 31.1705 26.0288C31.1705 25.9969 31.1745 25.969 31.1825 25.9451C31.1905 25.9211 31.2024 25.8932 31.2184 25.8613L31.2902 25.5981L31.3141 25.5024C31.3619 25.3589 31.4098 25.2034 31.4576 25.0359C31.5055 24.8684 31.5454 24.6969 31.5773 24.5215C31.7208 23.9154 31.8285 23.3013 31.9003 22.6792C31.972 22.0571 31.992 21.443 31.9601 20.8369C31.9601 20.8369 31.9601 20.8329 31.9601 20.825C31.9601 20.817 31.9601 20.813 31.9601 20.813C31.9601 20.6694 32.0079 20.5498 32.1036 20.4541C32.1993 20.3584 32.311 20.3105 32.4386 20.3105Z" fill="#732FCB"/>
</svg>
