<svg width="50" height="50" viewBox="0 0 50 50" fill="none" xmlns="http://www.w3.org/2000/svg">
<path d="M32.6802 34.6899C32.6164 34.8016 32.2774 34.9651 31.6633 35.1804C31.0492 35.3958 30.0802 35.5752 28.7563 35.7188V31.8428C28.7563 30.8379 28.3895 29.9806 27.6558 29.2708C26.922 28.561 26.0368 28.2061 25 28.2061C23.9632 28.2061 23.082 28.561 22.3562 29.2708C21.6305 29.9806 21.2676 30.8379 21.2676 31.8428V35.7188C19.9277 35.5752 18.9508 35.3997 18.3367 35.1924C17.7226 34.985 17.3916 34.8415 17.3438 34.7617C17.3438 34.7298 17.3398 34.7059 17.3318 34.6899C17.3238 34.674 17.3198 34.658 17.3198 34.6421L14.6641 23.4927C15.4456 23.8436 16.4505 24.1187 17.6787 24.3181C18.9069 24.5175 20.159 24.6571 21.4351 24.7368H21.459C21.9854 24.7847 22.5516 24.8166 23.1577 24.8325C23.7638 24.8485 24.3779 24.8564 25 24.8564C25.7975 24.8564 26.6748 24.8325 27.6318 24.7847C28.5889 24.7528 29.5419 24.685 30.491 24.5813C31.44 24.4776 32.3372 24.3381 33.1826 24.1626C34.0439 23.9871 34.7617 23.7638 35.3359 23.4927L32.6802 34.6899ZM15.1904 21.5068L16.4106 23.0142C15.7886 22.8547 15.3021 22.6991 14.9512 22.5476C14.6003 22.3961 14.3929 22.2565 14.3291 22.1289L14.3052 22.0571C14.3371 21.9774 14.4288 21.8896 14.5803 21.7939C14.7319 21.6982 14.9352 21.6025 15.1904 21.5068ZM29.9287 20.5498C30.7103 20.6296 31.4161 20.7213 32.0461 20.825C32.6762 20.9286 33.2225 21.0443 33.6851 21.1719L31.9146 23.3491C31.5158 23.4129 31.0851 23.4727 30.6226 23.5286C30.16 23.5844 29.6655 23.6362 29.1392 23.6841L29.9287 20.5498ZM25.5024 20.3105C26.1245 20.3105 26.7187 20.3225 27.2849 20.3464C27.8512 20.3704 28.3895 20.4062 28.8999 20.4541L28.0625 23.7559C27.6637 23.7718 27.253 23.7878 26.8303 23.8037C26.4076 23.8197 25.965 23.8276 25.5024 23.8276V20.3105ZM17.9658 23.3252L16.2432 21.1719C16.7057 21.0602 17.252 20.9486 17.8821 20.8369C18.5121 20.7253 19.2179 20.6296 19.9995 20.5498L20.7651 23.6602C20.2228 23.6283 19.7044 23.5804 19.21 23.5166C18.7155 23.4528 18.237 23.381 17.7744 23.3013L17.9658 23.3252ZM21.8418 23.7559L21.0283 20.4541C21.5387 20.4222 22.085 20.3903 22.6672 20.3584C23.2494 20.3265 23.8595 20.3105 24.4976 20.3105V23.8276C24.019 23.8276 23.5485 23.8197 23.0859 23.8037C22.6234 23.7878 22.1608 23.7638 21.6982 23.7319L21.8418 23.7559ZM35.6948 22.0571L35.6709 22.105C35.6071 22.2326 35.3918 22.3801 35.0249 22.5476C34.658 22.7151 34.1396 22.8786 33.4697 23.0381L34.7378 21.4829C35.0249 21.5786 35.2482 21.6783 35.4077 21.782C35.5672 21.8857 35.6629 21.9774 35.6948 22.0571ZM18.2051 15.8604H18.6836L18.2051 16.1953V15.8604ZM25.5024 14.2334H26.0049L25.5024 14.5444V14.2334ZM32.8237 15.8604H33.3022L32.8237 16.1953V15.8604ZM36.7236 22.0811C36.7236 22.0651 36.7196 22.0531 36.7117 22.0452C36.7037 22.0372 36.6997 22.0332 36.6997 22.0332C36.6997 22.0173 36.6997 21.9973 36.6997 21.9734C36.6997 21.9495 36.6917 21.9295 36.6758 21.9136C36.6279 21.5946 36.4285 21.3114 36.0776 21.0642C35.7267 20.817 35.2721 20.5977 34.7139 20.4062L34.6899 20.3823C34.4347 20.3026 34.1556 20.2228 33.8525 20.1431C33.5495 20.0633 33.2384 19.9915 32.9194 19.9277H32.8237V17.3438C32.8716 17.3438 32.9154 17.3358 32.9553 17.3198C32.9952 17.3039 33.0311 17.2799 33.063 17.248L35.2642 15.7886C35.328 15.7407 35.3798 15.6809 35.4197 15.6091C35.4596 15.5374 35.4795 15.4536 35.4795 15.3579C35.4795 15.2144 35.4316 15.0947 35.3359 14.999C35.2402 14.9033 35.1206 14.8555 34.9771 14.8555H32.2974C32.1698 14.8555 32.0541 14.9033 31.9504 14.999C31.8468 15.0947 31.7949 15.2144 31.7949 15.3579V19.7363C30.7741 19.5928 29.7094 19.4851 28.6008 19.4133C27.4923 19.3416 26.4595 19.2977 25.5024 19.2817V15.7168C25.5503 15.7008 25.5942 15.6849 25.634 15.6689C25.6739 15.653 25.7178 15.637 25.7656 15.6211H25.7417L27.9668 14.1377C28.0306 14.1058 28.0824 14.05 28.1223 13.9702C28.1622 13.8905 28.1821 13.8107 28.1821 13.731C28.1821 13.5874 28.1343 13.4638 28.0386 13.3601C27.9429 13.2564 27.8232 13.2046 27.6797 13.2046H25C24.8564 13.2046 24.7368 13.2564 24.6411 13.3601C24.5454 13.4638 24.4976 13.5874 24.4976 13.731V19.2817C23.5405 19.2977 22.5117 19.3416 21.4111 19.4133C20.3105 19.4851 19.2419 19.5928 18.2051 19.7363V17.3438C18.2529 17.3438 18.2968 17.3358 18.3367 17.3198C18.3765 17.3039 18.4124 17.2799 18.4443 17.248L20.6694 15.7886C20.7332 15.7407 20.7851 15.6809 20.825 15.6091C20.8648 15.5374 20.8848 15.4536 20.8848 15.3579C20.8848 15.2144 20.8369 15.0947 20.7412 14.999C20.6455 14.9033 20.5259 14.8555 20.3823 14.8555H17.7026C17.5591 14.8555 17.4355 14.9033 17.3318 14.999C17.2281 15.0947 17.1763 15.2144 17.1763 15.3579V19.9277C16.8254 19.9915 16.4904 20.0633 16.1714 20.1431C15.8524 20.2228 15.5413 20.3105 15.2383 20.4062L15.334 20.3823C15.2702 20.3823 15.2144 20.3903 15.1665 20.4062C15.1187 20.4222 15.0708 20.4461 15.0229 20.478V20.502C14.5285 20.6774 14.1337 20.8848 13.8386 21.124C13.5435 21.3633 13.3721 21.6265 13.3242 21.9136C13.3083 21.9295 13.3003 21.9495 13.3003 21.9734C13.3003 21.9973 13.3003 22.0173 13.3003 22.0332C13.3003 22.0332 13.2963 22.0372 13.2883 22.0452C13.2804 22.0531 13.2764 22.0651 13.2764 22.0811C13.2764 22.0811 13.2804 22.085 13.2883 22.093C13.2963 22.101 13.3003 22.113 13.3003 22.1289C13.3003 22.1449 13.3003 22.1568 13.3003 22.1648C13.3003 22.1728 13.3003 22.1847 13.3003 22.2007L16.3149 34.8335C16.3628 35.328 16.8373 35.7387 17.7385 36.0657C18.6397 36.3927 19.9676 36.6359 21.7222 36.7954C21.7222 36.7954 21.7262 36.7954 21.7341 36.7954C21.7421 36.7954 21.7461 36.7954 21.7461 36.7954C21.7461 36.7954 21.7501 36.7954 21.7581 36.7954C21.766 36.7954 21.77 36.7954 21.77 36.7954H24.4497C24.5933 36.7954 24.7169 36.7436 24.8206 36.6399C24.9242 36.5362 24.9761 36.4206 24.9761 36.293C24.9761 36.1494 24.9242 36.0258 24.8206 35.9221C24.7169 35.8184 24.5933 35.7666 24.4497 35.7666H22.2725V31.8428C22.2725 31.125 22.5396 30.5109 23.074 30.0005C23.6083 29.4901 24.2503 29.2349 25 29.2349C25.7497 29.2349 26.3917 29.4901 26.926 30.0005C27.4604 30.5109 27.7275 31.125 27.7275 31.8428V35.7666H26.938C26.8104 35.7666 26.6947 35.8184 26.5911 35.9221C26.4874 36.0258 26.4355 36.1494 26.4355 36.293C26.4355 36.4206 26.4874 36.5362 26.5911 36.6399C26.6947 36.7436 26.8104 36.7954 26.938 36.7954H28.23H28.2778C30.0324 36.6359 31.3603 36.3927 32.2615 36.0657C33.1627 35.7387 33.6372 35.328 33.6851 34.8335L36.6997 22.2007C36.6997 22.1847 36.6997 22.1728 36.6997 22.1648C36.6997 22.1568 36.6997 22.1449 36.6997 22.1289C36.6997 22.113 36.7037 22.101 36.7117 22.093C36.7196 22.085 36.7236 22.0811 36.7236 22.0811Z" fill="#732FCB"/>
</svg>
