<svg width="50" height="50" viewBox="0 0 50 50" fill="none" xmlns="http://www.w3.org/2000/svg">
<path d="M17.8223 17.4993C17.9499 17.4993 18.0575 17.4833 18.1453 17.4514C18.233 17.4195 18.3088 17.3796 18.3726 17.3318C18.4204 17.268 18.4603 17.1962 18.4922 17.1165C18.5241 17.0367 18.54 16.949 18.54 16.8533C18.54 16.7416 18.5241 16.6459 18.4922 16.5662C18.4603 16.4864 18.4204 16.4146 18.3726 16.3508C18.3088 16.303 18.233 16.2631 18.1453 16.2312C18.0575 16.1993 17.9499 16.1833 17.8223 16.1833H16.9609V17.4993H17.8223ZM16.1475 19.6526C16.1475 19.6526 16.1435 19.6446 16.1355 19.6287C16.1275 19.6127 16.1235 19.5888 16.1235 19.5569V15.657C16.1235 15.641 16.1235 15.6251 16.1235 15.6091C16.1235 15.5932 16.1315 15.5772 16.1475 15.5613C16.1634 15.5453 16.1794 15.5334 16.1953 15.5254C16.2113 15.5174 16.2272 15.5134 16.2432 15.5134C16.2432 15.5134 16.2472 15.5134 16.2551 15.5134C16.2631 15.5134 16.2671 15.5134 16.2671 15.5134H17.8701C18.1094 15.5134 18.3247 15.5413 18.5161 15.5972C18.7075 15.653 18.867 15.7367 18.9946 15.8484C19.1382 15.976 19.2419 16.1195 19.3057 16.2791C19.3695 16.4386 19.4014 16.63 19.4014 16.8533C19.4014 17.0606 19.3695 17.248 19.3057 17.4155C19.2419 17.583 19.1382 17.7226 18.9946 17.8342C18.867 17.9459 18.7075 18.0296 18.5161 18.0854C18.3247 18.1413 18.1094 18.1692 17.8701 18.1692H16.9849V19.5569C16.9849 19.5888 16.9809 19.6127 16.9729 19.6287C16.9649 19.6446 16.953 19.6606 16.937 19.6765C16.9211 19.6765 16.9051 19.6805 16.8892 19.6885C16.8732 19.6965 16.8573 19.7004 16.8413 19.7004H16.2671C16.2671 19.7004 16.2631 19.7004 16.2551 19.7004C16.2472 19.7004 16.2432 19.7004 16.2432 19.7004C16.2272 19.7004 16.2113 19.6965 16.1953 19.6885C16.1794 19.6805 16.1634 19.6685 16.1475 19.6526ZM33.2544 29.4861L35.3599 29.175V30.2756H32.4409C32.4888 30.0683 32.5845 29.8888 32.728 29.7373C32.8716 29.5858 33.047 29.502 33.2544 29.4861ZM18.1333 30.2756H15.2144V29.175L17.3198 29.4861C17.5272 29.502 17.7066 29.5858 17.8582 29.7373C18.0097 29.8888 18.1014 30.0683 18.1333 30.2756ZM35.1685 23.4807C35.2004 23.4807 35.2283 23.4887 35.2522 23.5046C35.2761 23.5206 35.2881 23.5445 35.2881 23.5764L35.5513 24.6531C35.5513 24.6531 35.5513 24.6571 35.5513 24.665C35.5513 24.673 35.5513 24.677 35.5513 24.677C35.5513 24.693 35.5473 24.7089 35.5393 24.7249C35.5313 24.7408 35.5273 24.7488 35.5273 24.7488C35.5114 24.7647 35.4954 24.7767 35.4795 24.7847C35.4635 24.7926 35.4476 24.7966 35.4316 24.7966H34.1157L33.5894 23.4807H35.1685ZM18.1572 20.5378L18.0854 20.6814H14.9512C14.8076 20.6814 14.688 20.6335 14.5923 20.5378C14.4966 20.4421 14.4487 20.3225 14.4487 20.179V14.9392C14.4487 14.7957 14.4966 14.676 14.5923 14.5803C14.688 14.4846 14.8076 14.4368 14.9512 14.4368H20.1909C20.3345 14.4368 20.4541 14.4846 20.5498 14.5803C20.6455 14.676 20.6934 14.7957 20.6934 14.9392V19.3894H19.8081C19.4412 19.3894 19.1063 19.4971 18.8032 19.7124C18.5002 19.9277 18.2848 20.2029 18.1572 20.5378ZM15.0708 24.7488C15.0549 24.7488 15.0429 24.7408 15.0349 24.7249C15.0269 24.7089 15.0229 24.693 15.0229 24.677C15.0229 24.677 15.0229 24.673 15.0229 24.665C15.0229 24.6571 15.0309 24.6531 15.0469 24.6531L15.2861 23.5764C15.3021 23.5445 15.322 23.5206 15.3459 23.5046C15.3699 23.4887 15.3898 23.4807 15.4058 23.4807H17.0327L16.5063 24.7966H15.1665C15.1346 24.7966 15.1107 24.7926 15.0947 24.7847C15.0788 24.7767 15.0708 24.7647 15.0708 24.7488ZM36.3887 28.553V28.5291C36.3727 28.4812 36.3608 28.4413 36.3528 28.4094C36.3448 28.3775 36.3249 28.3456 36.293 28.3137L34.6899 25.8254H35.4316C35.6071 25.8254 35.7746 25.7856 35.9341 25.7058C36.0936 25.6261 36.2212 25.5224 36.3169 25.3948C36.3966 25.2991 36.4604 25.1914 36.5083 25.0718C36.5562 24.9521 36.5801 24.8206 36.5801 24.677C36.5801 24.6292 36.5761 24.5813 36.5681 24.5334C36.5601 24.4856 36.5482 24.4457 36.5322 24.4138L36.293 23.3372C36.2292 23.082 36.0936 22.8706 35.8862 22.7031C35.6789 22.5356 35.4396 22.4519 35.1685 22.4519H33.1826L32.417 20.5139C32.2894 20.179 32.078 19.9078 31.783 19.7004C31.4879 19.4931 31.1569 19.3894 30.79 19.3894C30.79 19.3894 30.7821 19.3894 30.7661 19.3894H21.7222V14.9392C21.7222 14.5245 21.5746 14.1656 21.2795 13.8625C20.9845 13.5595 20.6216 13.408 20.1909 13.408H14.9512C14.5365 13.408 14.1776 13.5595 13.8745 13.8625C13.5715 14.1656 13.4199 14.5245 13.4199 14.9392V20.179C13.4199 20.6096 13.5715 20.9725 13.8745 21.2676C14.1776 21.5627 14.5365 21.7102 14.9512 21.7102H17.7026L17.4155 22.4519H15.4058C15.1506 22.4519 14.9193 22.5356 14.7119 22.7031C14.5046 22.8706 14.369 23.082 14.3052 23.3372L14.042 24.4138C13.9941 24.5893 13.9902 24.7607 14.03 24.9282C14.0699 25.0957 14.1457 25.2512 14.2573 25.3948C14.369 25.5224 14.5006 25.6261 14.6521 25.7058C14.8036 25.7856 14.9751 25.8254 15.1665 25.8254H31.9146C32.0581 25.8254 32.1817 25.7736 32.2854 25.6699C32.3891 25.5662 32.4409 25.4506 32.4409 25.323C32.4409 25.1794 32.3891 25.0558 32.2854 24.9521C32.1817 24.8485 32.0581 24.7966 31.9146 24.7966H17.6069L19.1143 20.8967C19.1621 20.7532 19.2498 20.6375 19.3774 20.5498C19.505 20.4621 19.6486 20.4182 19.8081 20.4182H30.7661C30.7661 20.4182 30.7701 20.4182 30.7781 20.4182C30.7861 20.4182 30.79 20.4182 30.79 20.4182C30.9336 20.4182 31.0692 20.4621 31.1968 20.5498C31.3244 20.6375 31.4121 20.7532 31.46 20.8967H31.4839L33.2783 25.4666C33.2943 25.4825 33.3022 25.4985 33.3022 25.5144C33.3022 25.5304 33.3102 25.5383 33.3262 25.5383V25.5862L35.0249 28.1941L33.1348 28.4573C32.6403 28.537 32.2296 28.7603 31.9026 29.1272C31.5756 29.4941 31.4121 29.9327 31.4121 30.4431V30.7781C31.4121 30.9216 31.46 31.0413 31.5557 31.137C31.6514 31.2327 31.771 31.2805 31.9146 31.2805H35.3599V34.6062C35.3599 34.8614 35.2681 35.0807 35.0847 35.2642C34.9013 35.4476 34.682 35.5393 34.4268 35.5393C34.1556 35.5393 33.9283 35.4476 33.7449 35.2642C33.5614 35.0807 33.4697 34.8614 33.4697 34.6062V33.5295C33.4697 33.386 33.4179 33.2664 33.3142 33.1707C33.2105 33.075 33.0869 33.0271 32.9434 33.0271H17.6309C17.4873 33.0271 17.3677 33.075 17.272 33.1707C17.1763 33.2664 17.1284 33.386 17.1284 33.5295V34.6062C17.1125 34.8614 17.0128 35.0807 16.8293 35.2642C16.6459 35.4476 16.4266 35.5393 16.1714 35.5393C15.9162 35.5393 15.6969 35.4476 15.5134 35.2642C15.33 35.0807 15.2303 34.8614 15.2144 34.6062V31.2805H18.6597C18.8032 31.2805 18.9268 31.2327 19.0305 31.137C19.1342 31.0413 19.186 30.9216 19.186 30.7781V30.4431C19.186 29.9486 19.0186 29.514 18.6836 29.1392C18.3486 28.7643 17.9419 28.537 17.4634 28.4573L15.5732 28.1941L16.5542 26.7107C16.5861 26.6628 16.61 26.615 16.626 26.5671C16.6419 26.5193 16.6499 26.4714 16.6499 26.4236C16.6499 26.28 16.5981 26.1604 16.4944 26.0647C16.3907 25.969 16.2671 25.9211 16.1235 25.9211C16.0438 25.9211 15.964 25.9411 15.8843 25.981C15.8045 26.0208 15.7487 26.0727 15.7168 26.1365H15.6929L14.2812 28.3137V28.3376C14.2653 28.3536 14.2493 28.3815 14.2334 28.4214C14.2174 28.4613 14.2095 28.4972 14.2095 28.5291C14.1935 28.545 14.1895 28.553 14.1975 28.553C14.2055 28.553 14.2095 28.561 14.2095 28.5769C14.2095 28.5769 14.2055 28.5809 14.1975 28.5889C14.1895 28.5968 14.1855 28.6008 14.1855 28.6008V34.6062C14.1855 35.1485 14.3809 35.6151 14.7717 36.0059C15.1625 36.3966 15.6291 36.592 16.1714 36.592C16.7137 36.592 17.1763 36.3966 17.5591 36.0059C17.9419 35.6151 18.1333 35.1485 18.1333 34.6062V34.0559H32.4409V34.6062C32.4409 35.1485 32.6323 35.6151 33.0151 36.0059C33.3979 36.3966 33.8685 36.592 34.4268 36.592C34.9691 36.592 35.4316 36.3966 35.8145 36.0059C36.1973 35.6151 36.3887 35.1485 36.3887 34.6062V28.6008C36.3887 28.5849 36.3887 28.5729 36.3887 28.5649C36.3887 28.557 36.3887 28.553 36.3887 28.553ZM28.23 29.5579C28.3735 29.5579 28.4972 29.506 28.6008 29.4023C28.7045 29.2987 28.7563 29.175 28.7563 29.0315C28.7563 28.9039 28.7045 28.7882 28.6008 28.6846C28.4972 28.5809 28.3735 28.5291 28.23 28.5291H22.3442C22.2007 28.5291 22.0811 28.5809 21.9854 28.6846C21.8896 28.7882 21.8418 28.9039 21.8418 29.0315C21.8418 29.175 21.8896 29.2987 21.9854 29.4023C22.0811 29.506 22.2007 29.5579 22.3442 29.5579H28.23Z" fill="#732FCB"/>
</svg>
