<svg width="50" height="50" viewBox="0 0 50 50" fill="none" xmlns="http://www.w3.org/2000/svg">
<path d="M14.772 35.4556H20.5381V31.4839H14.772V35.4556ZM14.772 21.2437H20.5381V17.6548H14.772V21.2437ZM14.772 30.4551H20.5381V26.8662H14.772V30.4551ZM14.772 25.8613H20.5381V22.2725H14.772V25.8613ZM25.0601 31.4121C24.5815 31.4121 24.1708 31.5836 23.8279 31.9265C23.4849 32.2694 23.3135 32.6802 23.3135 33.1587C23.3135 33.6532 23.4849 34.0719 23.8279 34.4148C24.1708 34.7577 24.5815 34.9292 25.0601 34.9292C25.5545 34.9292 25.9732 34.7577 26.3162 34.4148C26.6591 34.0719 26.8306 33.6532 26.8306 33.1587C26.8306 32.6802 26.6591 32.2694 26.3162 31.9265C25.9732 31.5836 25.5545 31.4121 25.0601 31.4121ZM36.2573 35.4556C36.4009 35.4556 36.5245 35.5034 36.6282 35.5991C36.7319 35.6948 36.7837 35.8145 36.7837 35.958C36.7837 36.1016 36.7319 36.2212 36.6282 36.3169C36.5245 36.4126 36.4009 36.4604 36.2573 36.4604H29.9888C29.8612 36.4604 29.7455 36.4126 29.6418 36.3169C29.5382 36.2212 29.4863 36.1016 29.4863 35.958C29.4863 35.8145 29.5382 35.6948 29.6418 35.5991C29.7455 35.5034 29.8612 35.4556 29.9888 35.4556H32.4292V29.833C31.5838 29.3385 30.8501 28.7005 30.228 27.9189C29.606 27.1374 29.1593 26.2521 28.8882 25.2632L28.1465 22.5356C27.9551 21.8179 27.652 21.1559 27.2373 20.5498C26.8226 19.9596 26.3321 19.4492 25.7659 19.0186C25.1996 18.5879 24.5656 18.2529 23.8638 18.0137C23.1779 17.7744 22.4601 17.6548 21.7104 17.6548H21.543V35.4556H23.481C23.1141 35.2004 22.823 34.8734 22.6077 34.4746C22.3923 34.0758 22.2847 33.6372 22.2847 33.1587C22.2847 32.3931 22.5558 31.7391 23.0981 31.1968C23.6405 30.6545 24.2944 30.3833 25.0601 30.3833C25.8416 30.3833 26.5036 30.6545 27.0459 31.1968C27.5882 31.7391 27.8594 32.3931 27.8594 33.1587C27.8594 33.6372 27.7477 34.0758 27.5244 34.4746C27.3011 34.8734 27.014 35.2004 26.6631 35.4556H27.668C27.8115 35.4556 27.9312 35.5034 28.0269 35.5991C28.1226 35.6948 28.1704 35.8145 28.1704 35.958C28.1704 36.1016 28.1226 36.2212 28.0269 36.3169C27.9312 36.4126 27.8115 36.4604 27.668 36.4604H13.6953C13.5518 36.4604 13.4281 36.4126 13.3245 36.3169C13.2208 36.2212 13.1689 36.1016 13.1689 35.958C13.1689 35.8145 13.2208 35.6948 13.3245 35.5991C13.4281 35.5034 13.5518 35.4556 13.6953 35.4556H13.7432V14.042C13.7432 13.8984 13.795 13.7788 13.8987 13.6831C14.0024 13.5874 14.126 13.5396 14.2695 13.5396C14.3971 13.5396 14.5128 13.5874 14.6165 13.6831C14.7201 13.7788 14.772 13.8984 14.772 14.042V16.626H20.5381V14.042C20.5381 13.8984 20.5859 13.7788 20.6816 13.6831C20.7773 13.5874 20.897 13.5396 21.0405 13.5396C21.1841 13.5396 21.3037 13.5874 21.3994 13.6831C21.4951 13.7788 21.543 13.8984 21.543 14.042V16.626H21.7104C22.5718 16.626 23.4012 16.7695 24.1987 17.0566C24.9963 17.3278 25.722 17.7106 26.376 18.2051C27.0299 18.6995 27.5962 19.2897 28.0747 19.9756C28.5532 20.6774 28.9041 21.443 29.1274 22.2725L29.8691 25C30.0605 25.7178 30.3636 26.3797 30.7783 26.9858C31.193 27.576 31.6835 28.0864 32.2498 28.5171C32.816 28.9478 33.45 29.2827 34.1519 29.522C34.8377 29.7612 35.5555 29.8809 36.3052 29.8809C36.4487 29.8809 36.5723 29.9287 36.676 30.0244C36.7797 30.1201 36.8315 30.2397 36.8315 30.3833C36.8315 30.5269 36.7797 30.6505 36.676 30.7542C36.5723 30.8578 36.4487 30.9097 36.3052 30.9097C35.7948 30.8937 35.3003 30.8379 34.8218 30.7422C34.3433 30.6465 33.8887 30.5109 33.458 30.3354V35.4556H36.2573Z" fill="#732FCB"/>
</svg>
