<svg width="50" height="50" viewBox="0 0 50 50" fill="none" xmlns="http://www.w3.org/2000/svg">
<path d="M13.4697 22.2366C13.4378 22.2525 13.3979 22.2685 13.3501 22.2844C13.3022 22.3004 13.2544 22.3083 13.2065 22.3083C13.1268 22.3083 13.055 22.2924 12.9912 22.2605C12.9274 22.2286 12.8796 22.1887 12.8477 22.1409H12.8237C12.8078 22.093 12.7918 22.0492 12.7759 22.0093C12.7599 21.9694 12.752 21.9255 12.752 21.8777C12.752 21.8139 12.7679 21.7501 12.7998 21.6863C12.8317 21.6225 12.8796 21.5746 12.9434 21.5427L24.8345 13.8625C24.9142 13.8147 25.002 13.7908 25.0977 13.7908C25.1934 13.7908 25.2811 13.8147 25.3608 13.8625L37.0605 21.5427C37.1562 21.6065 37.2161 21.6982 37.24 21.8179C37.2639 21.9375 37.236 22.0452 37.1562 22.1409C37.1243 22.1887 37.0765 22.2286 37.0127 22.2605C36.9489 22.2924 36.8771 22.3083 36.7974 22.3083C36.7495 22.3083 36.7017 22.3004 36.6538 22.2844C36.606 22.2685 36.5661 22.2525 36.5342 22.2366L25.0977 14.7239L13.4697 22.2366ZM30.5288 27.9548C30.5288 28.7045 30.2537 29.3425 29.7034 29.8689C29.1531 30.3953 28.4951 30.6584 27.7295 30.6584C27.2829 30.6584 26.8642 30.5627 26.4734 30.3713C26.0826 30.1799 25.7516 29.9167 25.4805 29.5818C25.2253 29.9167 24.9062 30.1799 24.5234 30.3713C24.1406 30.5627 23.7259 30.6584 23.2793 30.6584C23.2793 30.6584 23.2753 30.6584 23.2673 30.6584C23.2594 30.6584 23.2554 30.6584 23.2554 30.6584C22.4897 30.6584 21.8318 30.3953 21.2815 29.8689C20.7312 29.3425 20.4561 28.7045 20.4561 27.9548C20.4561 27.2849 20.6833 26.6987 21.1379 26.1963C21.5925 25.6938 22.1548 25.3868 22.8247 25.2751C22.745 25.1156 22.6812 24.9402 22.6333 24.7488C22.5854 24.5574 22.5615 24.358 22.5615 24.1506C22.5615 23.401 22.8327 22.7629 23.375 22.2366C23.9173 21.7102 24.5793 21.447 25.3608 21.447C26.1265 21.447 26.7844 21.7102 27.3347 22.2366C27.885 22.7629 28.1602 23.401 28.1602 24.1506C28.1602 24.342 28.1402 24.5334 28.1003 24.7249C28.0605 24.9163 28.0007 25.0917 27.9209 25.2512C28.6387 25.2991 29.2528 25.5822 29.7632 26.1006C30.2736 26.619 30.5288 27.2371 30.5288 27.9548ZM29.6436 27.9548C29.6436 27.4444 29.4561 27.0058 29.0813 26.6389C28.7065 26.2721 28.2559 26.0886 27.7295 26.0886C27.7295 26.0886 27.7255 26.0886 27.7175 26.0886C27.7096 26.0886 27.7056 26.0886 27.7056 26.0886C27.6099 26.0886 27.5142 26.0966 27.4185 26.1125C27.3228 26.1285 27.2271 26.1524 27.1313 26.1843H27.1553C26.932 26.2481 26.7605 26.1843 26.6409 25.9929C26.5212 25.8015 26.5412 25.6261 26.7007 25.4666C26.8921 25.307 27.0356 25.1117 27.1313 24.8804C27.2271 24.6491 27.2749 24.4058 27.2749 24.1506C27.2749 23.6402 27.0875 23.2016 26.7126 22.8347C26.3378 22.4679 25.8872 22.2844 25.3608 22.2844C24.8345 22.2844 24.3799 22.4679 23.9971 22.8347C23.6143 23.2016 23.4229 23.6402 23.4229 24.1506C23.4229 24.3899 23.4707 24.6172 23.5664 24.8325C23.6621 25.0479 23.7897 25.2432 23.9492 25.4187C24.0928 25.5623 24.1167 25.7218 24.021 25.8972C23.9253 26.0727 23.7738 26.1445 23.5664 26.1125C23.5186 26.1125 23.4667 26.1086 23.4109 26.1006C23.3551 26.0926 23.3032 26.0886 23.2554 26.0886C22.729 26.0886 22.2784 26.2721 21.9036 26.6389C21.5287 27.0058 21.3413 27.4444 21.3413 27.9548C21.3413 28.4653 21.5287 28.9039 21.9036 29.2708C22.2784 29.6376 22.729 29.821 23.2554 29.821C23.6701 29.821 24.0449 29.7054 24.3799 29.4741C24.7148 29.2428 24.9461 28.9438 25.0737 28.5769C25.1375 28.3855 25.2771 28.2898 25.4924 28.2898C25.7078 28.2898 25.8473 28.3855 25.9111 28.5769C26.0387 28.9438 26.27 29.2428 26.605 29.4741C26.9399 29.7054 27.3148 29.821 27.7295 29.821C28.2559 29.821 28.7065 29.6376 29.0813 29.2708C29.4561 28.9039 29.6436 28.4653 29.6436 27.9548ZM25.0498 28.8401C25.0498 28.7284 25.0937 28.6327 25.1814 28.553C25.2691 28.4732 25.3688 28.4333 25.4805 28.4333C25.6081 28.4333 25.7157 28.4732 25.8035 28.553C25.8912 28.6327 25.9351 28.7284 25.9351 28.8401V32.405C25.9351 32.5167 25.8912 32.6124 25.8035 32.6921C25.7157 32.7719 25.616 32.8118 25.5044 32.8118C25.5044 32.8118 25.5004 32.8118 25.4924 32.8118C25.4845 32.8118 25.4805 32.8118 25.4805 32.8118C25.3688 32.8118 25.2691 32.7719 25.1814 32.6921C25.0937 32.6124 25.0498 32.5167 25.0498 32.405V28.8401ZM34.022 23.2415C34.022 23.1298 34.0698 23.0341 34.1655 22.9543C34.2612 22.8746 34.3809 22.8347 34.5244 22.8347C34.652 22.8347 34.7637 22.8746 34.8594 22.9543C34.9551 23.0341 35.0029 23.1298 35.0029 23.2415V35.8025C35.0029 35.9141 34.9551 36.0098 34.8594 36.0896C34.7637 36.1694 34.652 36.2092 34.5244 36.2092H15.7666C15.623 36.2092 15.5034 36.1694 15.4077 36.0896C15.312 36.0098 15.2642 35.9141 15.2642 35.8025V23.2415C15.2642 23.1298 15.312 23.0341 15.4077 22.9543C15.5034 22.8746 15.623 22.8347 15.7666 22.8347C15.8942 22.8347 16.0059 22.8746 16.1016 22.9543C16.1973 23.0341 16.2451 23.1298 16.2451 23.2415V35.3718H34.022V23.2415ZM13.2783 36.2092C13.1507 36.2092 13.0391 36.1694 12.9434 36.0896C12.8477 36.0098 12.7998 35.9141 12.7998 35.8025C12.7998 35.6749 12.8477 35.5712 12.9434 35.4915C13.0391 35.4117 13.1507 35.3718 13.2783 35.3718H35.7686C35.8962 35.3718 36.0038 35.4117 36.0916 35.4915C36.1793 35.5712 36.2231 35.6749 36.2231 35.8025C36.2231 35.9141 36.1793 36.0098 36.0916 36.0896C36.0038 36.1694 35.8962 36.2092 35.7686 36.2092H13.2783Z" fill="#732FCB"/>
</svg>
