<svg width="50" height="50" viewBox="0 0 50 50" fill="none" xmlns="http://www.w3.org/2000/svg">
<path d="M25.0117 13.0491L25.1074 13.0969L28.8159 15.6809C28.8957 15.7288 28.9555 15.7886 28.9954 15.8604C29.0352 15.9321 29.0552 16.0079 29.0552 16.0876C29.0552 16.2312 29.0033 16.3548 28.8997 16.4585C28.796 16.5622 28.6724 16.614 28.5288 16.614C28.4969 16.614 28.461 16.61 28.4211 16.6021C28.3813 16.5941 28.3454 16.5821 28.3135 16.5662L28.2417 16.5183L24.8203 14.1497L15.1064 21.136H16.1592C16.2868 21.136 16.3944 21.1759 16.4822 21.2556C16.5699 21.3354 16.6297 21.4311 16.6616 21.5427V21.5667V21.6384V32.5486C16.6616 32.6602 16.6217 32.7639 16.542 32.8596C16.4622 32.9553 16.3665 33.0191 16.2549 33.051H16.1592H15.561C15.1623 33.051 14.8193 33.1826 14.5322 33.4458C14.2451 33.709 14.0776 34.04 14.0298 34.4387V34.5823V35.97H35.9697V34.1277C35.9697 33.7289 35.8381 33.386 35.575 33.0989C35.3118 32.8118 34.9888 32.6443 34.606 32.5964H34.582H34.4385H33.6968C33.5692 32.5964 33.4615 32.5566 33.3738 32.4768C33.2861 32.3971 33.2262 32.3014 33.1943 32.1897V32.094V21.6384C33.1943 21.5268 33.2342 21.4231 33.314 21.3274C33.3937 21.2317 33.4894 21.1679 33.6011 21.136H33.6968H34.4624L29.6533 17.4993C29.5895 17.4514 29.5377 17.3916 29.4978 17.3198C29.4579 17.248 29.438 17.1723 29.438 17.0925C29.438 17.0447 29.446 17.0048 29.4619 16.9729C29.4779 16.941 29.4938 16.9011 29.5098 16.8533L29.5576 16.7815C29.6055 16.7177 29.6613 16.6698 29.7251 16.6379C29.7889 16.606 29.8687 16.5901 29.9644 16.5901C29.9963 16.5901 30.0321 16.5941 30.072 16.6021C30.1119 16.61 30.1478 16.622 30.1797 16.6379L30.2754 16.6858L36.3047 21.2317C36.3525 21.2795 36.3964 21.3394 36.4363 21.4111C36.4762 21.4829 36.4961 21.5587 36.4961 21.6384C36.4961 21.766 36.4562 21.8777 36.3765 21.9734C36.2967 22.0691 36.193 22.1249 36.0654 22.1409L35.9937 22.1648H34.1992V31.5676H34.4385C35.1243 31.5676 35.7105 31.7989 36.197 32.2615C36.6835 32.724 36.9507 33.2903 36.9985 33.9602V34.1277V36.4963C36.9985 36.608 36.9587 36.7117 36.8789 36.8074C36.7992 36.9031 36.7035 36.9669 36.5918 36.9988H36.4961H13.5273C13.3997 36.9988 13.2881 36.9589 13.1924 36.8792C13.0967 36.7994 13.0409 36.7037 13.0249 36.592L13.001 36.4963V34.5823C13.001 33.9124 13.2323 33.3302 13.6948 32.8357C14.1574 32.3412 14.7236 32.078 15.3936 32.0461L15.561 32.0222H15.6328V22.1648H13.5273C13.3838 22.1648 13.2602 22.113 13.1565 22.0093C13.0528 21.9056 13.001 21.782 13.001 21.6384C13.001 21.5746 13.0129 21.5108 13.0369 21.447C13.0608 21.3832 13.0967 21.3354 13.1445 21.3035L13.2163 21.2317L24.5093 13.0969C24.5571 13.065 24.605 13.0411 24.6528 13.0251C24.7007 13.0092 24.7485 13.0012 24.7964 13.0012C24.8442 13.0012 24.8841 13.0052 24.916 13.0132C24.9479 13.0212 24.9798 13.0331 25.0117 13.0491ZM27.9307 23.3372C27.9785 23.3372 28.0184 23.3411 28.0503 23.3491C28.0822 23.3571 28.1061 23.3691 28.1221 23.385H30.6343C30.7778 23.385 30.9014 23.4329 31.0051 23.5286C31.1088 23.6243 31.1606 23.7439 31.1606 23.8875C31.1606 24.0151 31.1208 24.1267 31.041 24.2224C30.9613 24.3181 30.8576 24.3739 30.73 24.3899H30.6343L28.457 24.4138V32.1658H31.4956C31.6392 32.1658 31.7628 32.2176 31.8665 32.3213C31.9701 32.425 32.022 32.5486 32.022 32.6921C32.022 32.8038 31.9821 32.9075 31.9023 33.0032C31.8226 33.0989 31.7189 33.1547 31.5913 33.1707V33.1946H31.4956H17.2119C17.0684 33.1946 16.9487 33.1427 16.853 33.0391C16.7573 32.9354 16.7095 32.8197 16.7095 32.6921C16.7095 32.5645 16.7493 32.4529 16.8291 32.3572C16.9089 32.2615 17.0046 32.2056 17.1162 32.1897L17.2119 32.1658H21.3989V24.4377H19.0303C18.8867 24.4377 18.7671 24.3859 18.6714 24.2822C18.5757 24.1785 18.5278 24.0629 18.5278 23.9353C18.5278 23.8077 18.5677 23.696 18.6475 23.6003C18.7272 23.5046 18.8229 23.4488 18.9346 23.4329L19.0303 23.4089H21.686C21.7179 23.393 21.7538 23.377 21.7937 23.3611C21.8336 23.3451 21.8695 23.3372 21.9014 23.3372C21.9492 23.3372 21.9931 23.3451 22.033 23.3611C22.0728 23.377 22.1087 23.393 22.1406 23.4089L27.7393 23.385C27.7712 23.3691 27.8031 23.3571 27.835 23.3491C27.8669 23.3411 27.8988 23.3372 27.9307 23.3372ZM27.4282 24.4138H22.4277V32.1658H27.4282V24.4138ZM31.4956 20.7292C31.6392 20.7292 31.7628 20.7811 31.8665 20.8848C31.9701 20.9884 32.022 21.1121 32.022 21.2556C32.022 21.3832 31.9821 21.4909 31.9023 21.5786C31.8226 21.6663 31.7189 21.7262 31.5913 21.7581H31.4956H17.2119C17.0684 21.7581 16.9487 21.7102 16.853 21.6145C16.7573 21.5188 16.7095 21.3992 16.7095 21.2556C16.7095 21.128 16.7493 21.0164 16.8291 20.9207C16.9089 20.825 17.0046 20.7691 17.1162 20.7532L17.2119 20.7292H31.4956Z" fill="#732FCB"/>
</svg>
