<svg width="50" height="50" viewBox="0 0 50 50" fill="none" xmlns="http://www.w3.org/2000/svg">
<path d="M25.0544 32.6204C25.1979 32.6204 25.3216 32.6722 25.4252 32.7759C25.5289 32.8796 25.5808 33.0032 25.5808 33.1467V36.2092C25.5808 36.3528 25.5289 36.4724 25.4252 36.5681C25.3216 36.6638 25.1979 36.7117 25.0544 36.7117C24.9108 36.7117 24.7912 36.6638 24.6955 36.5681C24.5998 36.4724 24.5519 36.3528 24.5519 36.2092V33.1467C24.5519 33.0032 24.5998 32.8796 24.6955 32.7759C24.7912 32.6722 24.9108 32.6204 25.0544 32.6204ZM16.2736 29.8928C16.3853 29.7971 16.5089 29.7533 16.6445 29.7612C16.7801 29.7692 16.8957 29.821 16.9914 29.9167C17.1031 30.0125 17.1549 30.1321 17.1469 30.2756C17.1389 30.4192 17.0871 30.5388 16.9914 30.6345L14.7902 32.7639C14.6786 32.8596 14.551 32.9075 14.4074 32.9075C14.2639 32.9075 14.1442 32.8516 14.0485 32.74C13.9528 32.6443 13.909 32.5247 13.9169 32.3811C13.9249 32.2375 13.9768 32.1179 14.0725 32.0222L16.2736 29.8928ZM33.7155 29.8928L35.9406 32.0222C36.0363 32.1179 36.0842 32.2375 36.0842 32.3811C36.0842 32.5247 36.0363 32.6443 35.9406 32.74C35.8449 32.8516 35.7293 32.9075 35.5937 32.9075C35.4581 32.9075 35.3345 32.8596 35.2228 32.7639L33.0217 30.6345C32.91 30.5388 32.8542 30.4192 32.8542 30.2756C32.8542 30.1321 32.902 30.0125 32.9977 29.9167C33.0934 29.821 33.2131 29.7692 33.3566 29.7612C33.5002 29.7533 33.6198 29.7971 33.7155 29.8928ZM25.0544 27.0696C25.1979 27.0696 25.3216 27.1214 25.4252 27.2251C25.5289 27.3288 25.5808 27.4524 25.5808 27.5959V30.0842C25.5808 30.2278 25.5289 30.3474 25.4252 30.4431C25.3216 30.5388 25.1979 30.5867 25.0544 30.5867C24.9108 30.5867 24.7912 30.5388 24.6955 30.4431C24.5998 30.3474 24.5519 30.2278 24.5519 30.0842V27.5959C24.5519 27.4524 24.5998 27.3288 24.6955 27.2251C24.7912 27.1214 24.9108 27.0696 25.0544 27.0696ZM20.6999 25.658C20.7956 25.5623 20.9152 25.5144 21.0588 25.5144C21.2023 25.5144 21.322 25.5702 21.4177 25.6819C21.5134 25.7776 21.5612 25.8972 21.5612 26.0408C21.5612 26.1843 21.5054 26.304 21.3937 26.3997L19.1926 28.5051C19.0969 28.6168 18.9772 28.6686 18.8337 28.6606C18.6901 28.6527 18.5705 28.6008 18.4748 28.5051C18.3791 28.3935 18.3312 28.2699 18.3312 28.1343C18.3312 27.9987 18.3871 27.8831 18.4987 27.7874L20.6999 25.658ZM29.3132 25.658L31.5143 27.7874C31.626 27.8831 31.6818 27.9987 31.6818 28.1343C31.6818 28.2699 31.634 28.3935 31.5383 28.5051C31.4426 28.6008 31.3229 28.6527 31.1794 28.6606C31.0358 28.6686 30.9162 28.6168 30.8205 28.5051L28.5954 26.3997C28.4997 26.304 28.4518 26.1843 28.4518 26.0408C28.4518 25.8972 28.4997 25.7776 28.5954 25.6819C28.6911 25.5702 28.8067 25.5144 28.9423 25.5144C29.0779 25.5144 29.2015 25.5623 29.3132 25.658ZM20.7477 13.2883C20.8913 13.2883 21.0149 13.3402 21.1186 13.4438C21.2223 13.5475 21.2741 13.6711 21.2741 13.8147C21.2741 13.9423 21.2342 14.05 21.1545 14.1377C21.0747 14.2254 20.9711 14.2852 20.8434 14.3171H20.7477H16.7761L16.8239 14.4607C16.9515 14.9392 17.2147 15.3459 17.6135 15.6809C18.0122 16.0159 18.4748 16.1993 19.0012 16.2312H19.1686H30.5095C31.0677 16.2312 31.5622 16.0637 31.9929 15.7288C32.4235 15.3938 32.7027 14.9711 32.8303 14.4607L32.8781 14.3171H23.4514C23.3238 14.3171 23.2121 14.2773 23.1164 14.1975C23.0207 14.1178 22.9649 14.0221 22.9489 13.9104L22.925 13.8147C22.925 13.6871 22.9649 13.5754 23.0446 13.4797C23.1244 13.384 23.2281 13.3282 23.3557 13.3123L23.4514 13.2883H33.4284C33.572 13.2883 33.6956 13.3402 33.7993 13.4438C33.9029 13.5475 33.9548 13.6711 33.9548 13.8147C33.9548 14.7239 33.6398 15.5094 33.0097 16.1714C32.3797 16.8333 31.6101 17.1882 30.7009 17.2361L30.5095 17.26H29.9352V17.7146C29.9352 18.1134 29.7997 18.4563 29.5285 18.7434C29.2573 19.0305 28.9304 19.198 28.5476 19.2458H28.404H26.5856V21.0642H27.6144C27.742 21.0642 27.8537 21.1041 27.9494 21.1838C28.0451 21.2636 28.1009 21.3673 28.1169 21.4949V21.5667V23.4568C28.1169 23.6003 28.069 23.724 27.9733 23.8276C27.8776 23.9313 27.758 23.9832 27.6144 23.9832C27.4868 23.9832 27.3752 23.9433 27.2795 23.8635C27.1838 23.7838 27.128 23.6801 27.112 23.5525V23.4568V22.093H25.6047V23.4568C25.6047 23.6003 25.5528 23.724 25.4492 23.8276C25.3455 23.9313 25.2219 23.9832 25.0783 23.9832C24.9667 23.9832 24.863 23.9433 24.7673 23.8635C24.6716 23.7838 24.6078 23.6801 24.5759 23.5525V23.4568V22.093H23.0207V23.4568C23.0207 23.6003 22.9728 23.724 22.8771 23.8276C22.7814 23.9313 22.6618 23.9832 22.5183 23.9832C22.3906 23.9832 22.279 23.9433 22.1833 23.8635C22.0876 23.7838 22.0318 23.6801 22.0158 23.5525L21.9919 23.4568V21.5667C21.9919 21.439 22.0437 21.3234 22.1474 21.2197C22.2511 21.116 22.3747 21.0642 22.5183 21.0642H23.5231V19.2458H21.7766C21.3778 19.2458 21.0349 19.1103 20.7477 18.8391C20.4606 18.568 20.2932 18.241 20.2453 17.8582V17.7146V17.26H19.1686C18.2116 17.26 17.3981 16.9211 16.7282 16.2432C16.0583 15.5653 15.7233 14.7558 15.7233 13.8147C15.7233 13.6871 15.7632 13.5754 15.843 13.4797C15.9227 13.384 16.0184 13.3282 16.1301 13.3123L16.2258 13.2883H20.7477ZM25.5808 19.2458H24.5519V21.0642H25.5808V19.2458ZM28.9064 17.26H21.2741V17.7146C21.2741 17.8422 21.314 17.9499 21.3937 18.0376C21.4735 18.1253 21.5692 18.1851 21.6809 18.217H21.7766H28.404C28.5316 18.217 28.6433 18.1772 28.739 18.0974C28.8347 18.0177 28.8905 17.922 28.9064 17.8103V17.7146V17.26Z" fill="#732FCB"/>
</svg>
