<svg width="50" height="50" viewBox="0 0 50 50" fill="none" xmlns="http://www.w3.org/2000/svg">
<path d="M15.3223 16.8054C15.4499 16.8054 15.5615 16.8453 15.6572 16.925C15.7529 17.0048 15.8088 17.1085 15.8247 17.2361V17.3318V19.2458C15.8247 19.3894 15.7769 19.509 15.6812 19.6047C15.5854 19.7004 15.4658 19.7483 15.3223 19.7483C15.1947 19.7483 15.087 19.7084 14.9993 19.6287C14.9115 19.5489 14.8517 19.4532 14.8198 19.3416V19.2458V17.8342H14.1738V32.1179H14.8198V21.4231C14.8198 21.3752 14.8278 21.3274 14.8438 21.2795C14.8597 21.2317 14.8757 21.1918 14.8916 21.1599C15.3063 20.5378 15.8407 20.0035 16.4946 19.5569C17.1486 19.1103 17.9382 18.7594 18.8633 18.5042V17.7625C18.8633 17.6189 18.9111 17.4993 19.0068 17.4036C19.1025 17.3079 19.2222 17.26 19.3657 17.26C19.4933 17.26 19.605 17.2999 19.7007 17.3796C19.7964 17.4594 19.8522 17.5551 19.8682 17.6667V17.7625V18.241C20.4743 18.1134 21.1203 18.0216 21.8062 17.9658C22.492 17.91 23.2257 17.8821 24.0073 17.8821C24.1349 17.8821 24.2426 17.922 24.3303 18.0017C24.418 18.0815 24.4779 18.1772 24.5098 18.2888V18.3845V23.6482C24.5098 23.7917 24.4619 23.9154 24.3662 24.019C24.2705 24.1227 24.1509 24.1746 24.0073 24.1746C23.8797 24.1746 23.7681 24.1347 23.6724 24.0549C23.5767 23.9752 23.5208 23.8715 23.5049 23.7439L23.481 23.6482V18.9109H23.2178C22.5798 18.9268 21.9856 18.9667 21.4353 19.0305C20.885 19.0943 20.3626 19.182 19.8682 19.2937V32.1658H23.481V26.8542C23.481 26.7266 23.5248 26.615 23.6125 26.5193C23.7003 26.4236 23.8 26.3678 23.9116 26.3518L24.0073 26.3279C24.1349 26.3279 24.2426 26.3678 24.3303 26.4475C24.418 26.5273 24.4779 26.6309 24.5098 26.7585V26.8542V32.6682C24.5098 32.7958 24.4699 32.9075 24.3901 33.0032C24.3104 33.0989 24.2147 33.1547 24.103 33.1707L24.0073 33.1946H15.3223C15.2744 33.1946 15.2306 33.1866 15.1907 33.1707C15.1508 33.1547 15.1069 33.1388 15.0591 33.1228C15.0431 33.1228 15.0312 33.1268 15.0232 33.1348C15.0152 33.1427 15.0033 33.1467 14.9873 33.1467H14.8916H13.6714C13.5438 33.1467 13.4361 33.1069 13.3484 33.0271C13.2607 32.9473 13.2008 32.8516 13.1689 32.74V32.6443V17.3318C13.1689 17.2042 13.2088 17.0925 13.2886 16.9968C13.3683 16.9011 13.464 16.8453 13.5757 16.8293L13.6714 16.8054H15.3223ZM36.3291 16.8054L36.4248 16.8293C36.5365 16.8453 36.6322 16.9011 36.7119 16.9968C36.7917 17.0925 36.8315 17.2042 36.8315 17.3318V32.6443V32.74C36.7996 32.8516 36.7398 32.9473 36.6521 33.0271C36.5644 33.1069 36.4567 33.1467 36.3291 33.1467H35.1089H35.0132C34.9972 33.1308 34.9773 33.1228 34.9534 33.1228C34.9294 33.1228 34.9095 33.1148 34.8936 33.0989C34.8457 33.1308 34.7979 33.1547 34.75 33.1707C34.7021 33.1866 34.6543 33.1946 34.6064 33.1946L25.8257 33.1707C25.714 33.1547 25.6183 33.0989 25.5386 33.0032C25.4588 32.9075 25.4189 32.7958 25.4189 32.6682V26.8782V26.7825C25.4349 26.6708 25.4907 26.5751 25.5864 26.4954C25.6821 26.4156 25.7938 26.3757 25.9214 26.3757H26.0171C26.1287 26.3917 26.2244 26.4475 26.3042 26.5432C26.384 26.6389 26.4238 26.7506 26.4238 26.8782V32.1658H29.3906V19.1501C29.0397 19.0863 28.6729 19.0385 28.29 19.0066C27.9072 18.9747 27.5085 18.9428 27.0938 18.9109H26.7109H26.4238V23.6482V23.7439C26.4079 23.8715 26.3521 23.9752 26.2563 24.0549C26.1606 24.1347 26.049 24.1746 25.9214 24.1746C25.7778 24.1746 25.6582 24.1227 25.5625 24.019C25.4668 23.9154 25.4189 23.7917 25.4189 23.6482V18.3845V18.2888C25.4349 18.1772 25.4907 18.0815 25.5864 18.0017C25.6821 17.922 25.7938 17.8821 25.9214 17.8821C26.5594 17.8821 27.1655 17.902 27.7397 17.9419C28.314 17.9818 28.8643 18.0416 29.3906 18.1213V17.7625V17.6667C29.4066 17.5551 29.4624 17.4594 29.5581 17.3796C29.6538 17.2999 29.7655 17.26 29.8931 17.26C30.0366 17.26 30.1562 17.3079 30.252 17.4036C30.3477 17.4993 30.3955 17.6189 30.3955 17.7625V18.3127C31.4961 18.568 32.4292 18.9308 33.1948 19.4014C33.9604 19.8719 34.5745 20.4581 35.0371 21.1599C35.0531 21.1918 35.069 21.2317 35.085 21.2795C35.1009 21.3274 35.1089 21.3752 35.1089 21.4231V32.1179H35.8027V17.8342H35.1089V19.2458V19.3416C35.077 19.4532 35.0172 19.5489 34.9294 19.6287C34.8417 19.7084 34.734 19.7483 34.6064 19.7483C34.4629 19.7483 34.3393 19.7004 34.2356 19.6047C34.1319 19.509 34.0801 19.3894 34.0801 19.2458V17.3318L34.104 17.2361C34.12 17.1085 34.1758 17.0048 34.2715 16.925C34.3672 16.8453 34.4788 16.8054 34.6064 16.8054H36.3291ZM15.8726 21.5427L15.8247 21.5906V32.1658H18.8633V19.5569C18.1774 19.7802 17.5872 20.0553 17.0928 20.3823C16.5983 20.7093 16.1916 21.0961 15.8726 21.5427ZM30.3955 19.3655V32.1658H34.0801V21.5906L34.0562 21.5427C33.6893 21.0323 33.2028 20.5977 32.5967 20.2388C31.9906 19.8799 31.2568 19.5888 30.3955 19.3655ZM26.4238 24.6052C26.5674 24.6052 26.691 24.6571 26.7947 24.7607C26.8984 24.8644 26.9502 24.988 26.9502 25.1316C26.9502 25.2592 26.9103 25.3669 26.8306 25.4546C26.7508 25.5423 26.6471 25.6021 26.5195 25.634H26.4238H23.3613C23.2337 25.634 23.1181 25.5862 23.0144 25.4905C22.9107 25.3948 22.8589 25.2751 22.8589 25.1316C22.8589 25.004 22.8988 24.8923 22.9785 24.7966C23.0583 24.7009 23.1619 24.6451 23.2896 24.6292L23.3613 24.6052H26.4238Z" fill="#732FCB"/>
</svg>
