<svg width="50" height="50" viewBox="0 0 50 50" fill="none" xmlns="http://www.w3.org/2000/svg">
<path d="M15.1203 36.4246C14.9927 36.4246 14.8771 36.3727 14.7734 36.269C14.6697 36.1654 14.6179 36.0417 14.6179 35.8982C14.6179 35.7865 14.6577 35.6829 14.7375 35.5872C14.8173 35.4915 14.9209 35.4277 15.0485 35.3958H15.1203H16.9147V31.3044H15.1203C14.9927 31.3044 14.8771 31.2566 14.7734 31.1609C14.6697 31.0652 14.6179 30.9456 14.6179 30.802C14.6179 30.6744 14.6577 30.5667 14.7375 30.479C14.8173 30.3913 14.9209 30.3315 15.0485 30.2996H15.1203H16.9147V21.8059H13.8283C13.6369 21.8059 13.4934 21.7341 13.3977 21.5906C13.302 21.447 13.286 21.2875 13.3498 21.1121L13.3737 21.0403L17.5847 13.8147C17.6325 13.7509 17.6844 13.6991 17.7402 13.6592C17.796 13.6193 17.8638 13.5914 17.9436 13.5754H18.0393H32.3947C32.4745 13.5754 32.5502 13.5914 32.622 13.6233C32.6938 13.6552 32.7536 13.703 32.8015 13.7668L32.8493 13.8386L36.6296 21.0642C36.7093 21.2237 36.7093 21.3792 36.6296 21.5308C36.5498 21.6823 36.4302 21.774 36.2707 21.8059H36.175H33.926V30.2996H34.8591C35.0026 30.2996 35.1263 30.3474 35.2299 30.4431C35.3336 30.5388 35.3854 30.6584 35.3854 30.802C35.3854 30.9296 35.3456 31.0413 35.2658 31.137C35.1861 31.2327 35.0824 31.2885 34.9548 31.3044H34.8591H33.926V35.3958H34.8591C35.0026 35.3958 35.1263 35.4476 35.2299 35.5513C35.3336 35.6549 35.3854 35.7706 35.3854 35.8982C35.3854 36.0258 35.3456 36.1375 35.2658 36.2332C35.1861 36.3289 35.0824 36.3847 34.9548 36.4006L34.8591 36.4246H15.1203ZM22.5373 22.739L22.4416 22.7629C21.5643 23.05 20.7389 23.4727 19.9653 24.031C19.1917 24.5893 18.5178 25.2751 17.9436 26.0886V30.2996H18.4221C18.5656 30.2996 18.6853 30.3474 18.781 30.4431C18.8767 30.5388 18.9245 30.6584 18.9245 30.802C18.9245 30.9296 18.8846 31.0413 18.8049 31.137C18.7251 31.2327 18.6294 31.2885 18.5178 31.3044H18.4221H17.9436V35.3958H21.1496V31.3044H20.3361C20.1926 31.3044 20.0729 31.2566 19.9772 31.1609C19.8815 31.0652 19.8337 30.9456 19.8337 30.802C19.8337 30.6744 19.8736 30.5667 19.9533 30.479C20.0331 30.3913 20.1288 30.3315 20.2404 30.2996H20.3361H21.6521C21.6521 30.2996 21.66 30.2996 21.676 30.2996H25.552H29.6433H32.8972V26.6389L32.7297 26.3757C32.4107 25.8813 32.0438 25.4227 31.6291 25C31.2144 24.5773 30.7598 24.1985 30.2653 23.8635C29.9942 23.6721 29.715 23.5007 29.4279 23.3491C29.1408 23.1976 28.8457 23.066 28.5427 22.9543C28.3832 23.6243 28.0283 24.1825 27.478 24.6292C26.9277 25.0758 26.2857 25.2991 25.552 25.2991C24.8023 25.2991 24.1403 25.0518 23.5661 24.5574C22.9919 24.0629 22.649 23.4568 22.5373 22.739ZM25.0495 31.3044H22.1784V35.3958H25.0495V31.3044ZM29.1408 31.3044H26.0783V35.3958H29.1408V31.3044ZM32.8972 31.3044H30.1457V35.3958H32.8972V31.3044ZM32.0837 14.5803H18.3264L14.7136 20.7771H30.7678C30.8954 20.7771 31.007 20.821 31.1027 20.9087C31.1984 20.9964 31.2543 21.0961 31.2702 21.2078V21.3035C31.2702 21.4311 31.2303 21.5387 31.1506 21.6265C31.0708 21.7142 30.9751 21.774 30.8635 21.8059H30.7678H28.423C28.8378 21.9495 29.2485 22.1209 29.6552 22.3203C30.062 22.5197 30.4567 22.755 30.8396 23.0261C31.2224 23.2813 31.5892 23.5684 31.9401 23.8875C32.291 24.2065 32.6101 24.5414 32.8972 24.8923V21.3035C32.8972 21.1759 32.937 21.0642 33.0168 20.9685C33.0965 20.8728 33.2002 20.817 33.3278 20.801L33.4235 20.7771H35.3376L32.0837 14.5803ZM22.0588 21.8059H17.9436V24.4617C18.5178 23.8396 19.1558 23.3053 19.8576 22.8586C20.5594 22.412 21.2932 22.0611 22.0588 21.8059ZM23.7097 22.4519L23.5422 22.4758C23.59 22.9862 23.8054 23.4169 24.1882 23.7678C24.571 24.1187 25.0256 24.2942 25.552 24.2942C26.0624 24.2942 26.505 24.1347 26.8798 23.8157C27.2547 23.4967 27.482 23.0979 27.5617 22.6194C26.9237 22.4439 26.2777 22.3442 25.6237 22.3203C24.9698 22.2964 24.3317 22.3403 23.7097 22.4519Z" fill="#732FCB"/>
</svg>
