<svg width="50" height="50" viewBox="0 0 50 50" fill="none" xmlns="http://www.w3.org/2000/svg">
<path d="M25.7778 16.9551C26.0649 17.2262 26.2244 17.5612 26.2563 17.96C26.2882 18.3587 26.1845 18.7096 25.9453 19.0127L25.8496 19.1323L24.103 20.855L29.8212 26.7168L31.5439 24.9941C31.831 24.707 32.1699 24.5555 32.5607 24.5396C32.9515 24.5236 33.2984 24.6432 33.6015 24.8984L33.6972 24.9941L35.1088 26.3818C35.38 26.6689 35.5275 26.9999 35.5515 27.3748C35.5754 27.7496 35.4757 28.0885 35.2524 28.3916L36.353 29.5161C36.6401 29.7873 36.7916 30.1222 36.8076 30.521C36.8235 30.9198 36.7039 31.2627 36.4487 31.5498L36.353 31.6694L32.0224 36C31.7353 36.2871 31.3963 36.4386 31.0056 36.4546C30.6148 36.4705 30.2678 36.3509 29.9648 36.0957L29.8691 36L28.7685 34.8994L27.8832 35.7847C27.6121 36.0558 27.2771 36.1994 26.8784 36.2153C26.4796 36.2313 26.1287 36.1196 25.8256 35.8804L25.7299 35.7847L24.3183 34.373C24.0471 34.0859 23.9036 33.747 23.8876 33.3562C23.8717 32.9654 23.9833 32.6185 24.2226 32.3154L24.3183 32.2197L25.5385 30.9995C25.5385 30.9836 25.5345 30.9756 25.5266 30.9756C25.5186 30.9756 25.5066 30.9676 25.4907 30.9517L25.4189 30.9038L19.7246 25.2573L18.4804 26.4775C18.2093 26.7646 17.8783 26.9162 17.4875 26.9321C17.0967 26.9481 16.7498 26.8364 16.4467 26.5972L16.3271 26.5015L14.1259 24.3481C13.8548 24.061 13.7072 23.7221 13.6833 23.3313C13.6594 22.9405 13.775 22.5936 14.0302 22.2905L14.1259 22.1709L14.748 21.5488L13.6235 20.4004C13.3523 20.1133 13.2088 19.7783 13.1928 19.3955C13.1769 19.0127 13.2965 18.6698 13.5517 18.3667L13.6474 18.2471L18.1455 13.7729C18.4326 13.4858 18.7715 13.3383 19.1623 13.3303C19.5531 13.3223 19.9 13.446 20.2031 13.7012L20.2988 13.7969L21.3754 14.8975L21.3994 14.8735C21.6705 14.6024 21.9975 14.4548 22.3803 14.4309C22.7631 14.407 23.1061 14.5146 23.4091 14.7539L23.5288 14.8496L25.7778 16.9551ZM25.0839 17.6968L22.8349 15.5913C22.7392 15.5116 22.6315 15.4677 22.5119 15.4597C22.3923 15.4517 22.2846 15.4797 22.1889 15.5435L22.1171 15.5913L15.8486 21.8599C15.8486 21.8758 15.8446 21.8878 15.8366 21.8958C15.8286 21.9037 15.8246 21.9077 15.8246 21.9077L15.7529 21.9795L14.8437 22.8887C14.7639 22.9844 14.7201 23.092 14.7121 23.2117C14.7041 23.3313 14.732 23.4469 14.7958 23.5586L14.8437 23.6304L17.0449 25.7598C17.1406 25.8555 17.2482 25.9073 17.3679 25.9153C17.4875 25.9233 17.5952 25.8953 17.6909 25.8315L17.7626 25.7598L22.7871 20.7354C22.803 20.7194 22.8229 20.7035 22.8469 20.6875C22.8708 20.6715 22.8987 20.6556 22.9306 20.6396C22.9306 20.6237 22.9346 20.6117 22.9426 20.6038C22.9505 20.5958 22.9625 20.5838 22.9785 20.5679L23.0263 20.4961L25.1079 18.4385C25.1876 18.3428 25.2315 18.2311 25.2394 18.1035C25.2474 17.9759 25.2115 17.8643 25.1318 17.7686L25.0839 17.6968ZM34.3911 27.1235L32.9794 25.7119C32.8997 25.6322 32.796 25.5843 32.6684 25.5684C32.5408 25.5524 32.4291 25.5843 32.3334 25.6641L32.2617 25.7119L25.0361 32.9375C24.9563 33.0173 24.9125 33.1209 24.9045 33.2485C24.8965 33.3761 24.9244 33.4878 24.9882 33.5835L25.0361 33.6553L26.4477 35.043C26.5274 35.1387 26.6311 35.1905 26.7587 35.1985C26.8863 35.2065 26.998 35.1785 27.0937 35.1147L27.1655 35.043L34.3911 27.8413C34.4708 27.7456 34.5187 27.6379 34.5346 27.5183C34.5506 27.3987 34.5187 27.283 34.4389 27.1714L34.3911 27.1235ZM19.581 14.5146C19.4853 14.4189 19.3776 14.3671 19.258 14.3591C19.1384 14.3512 19.0227 14.3791 18.9111 14.4429L18.8393 14.4907L14.3652 18.9888C14.2854 19.0685 14.2376 19.1682 14.2216 19.2878C14.2057 19.4075 14.2296 19.5151 14.2934 19.6108L14.3652 19.6826L15.4418 20.8311L20.6577 15.6152L19.581 14.5146ZM35.6352 30.2339L34.5346 29.1333L29.4863 34.1816L30.5869 35.2822C30.6666 35.362 30.7703 35.4098 30.8979 35.4258C31.0255 35.4417 31.1371 35.4098 31.2329 35.3301L31.3046 35.2822L35.6352 30.9517C35.7149 30.856 35.7628 30.7483 35.7788 30.6287C35.7947 30.509 35.7628 30.4014 35.683 30.3057L35.6352 30.2339ZM23.3852 21.5728L20.4423 24.5156L26.1367 30.1621C26.1526 30.194 26.1686 30.2179 26.1845 30.2339C26.2005 30.2498 26.2164 30.2738 26.2324 30.3057L29.1035 27.4346L23.3852 21.5728ZM15.9443 13.9644C16.024 14.0601 16.0719 14.1677 16.0878 14.2874C16.1038 14.407 16.0719 14.5226 15.9921 14.6343L15.9443 14.7061L14.5327 16.0938C14.437 16.1895 14.3173 16.2373 14.1738 16.2373C14.0302 16.2373 13.9106 16.1895 13.8149 16.0938C13.7351 16.014 13.6873 15.9103 13.6713 15.7827C13.6554 15.6551 13.6873 15.5435 13.767 15.4478L13.8149 15.376L15.2265 13.9644C15.3222 13.8687 15.4418 13.8208 15.5854 13.8208C15.7289 13.8208 15.8486 13.8687 15.9443 13.9644ZM36.353 34.397C36.4487 34.4767 36.5005 34.5804 36.5085 34.708C36.5165 34.8356 36.4886 34.9473 36.4247 35.043L36.353 35.1147L34.9653 36.5264C34.8536 36.6221 34.73 36.6699 34.5944 36.6699C34.4588 36.6699 34.3352 36.6221 34.2236 36.5264C34.1438 36.4307 34.1 36.323 34.092 36.2034C34.084 36.0837 34.1119 35.9681 34.1757 35.8564L34.2236 35.7847L35.6352 34.397C35.7309 34.3013 35.8505 34.2534 35.9941 34.2534C36.1376 34.2534 36.2573 34.3013 36.353 34.397Z" fill="#732FCB"/>
</svg>
