<svg width="50" height="50" viewBox="0 0 50 50" fill="none" xmlns="http://www.w3.org/2000/svg">
<path d="M24.5698 22.0691C25.2716 22.0691 25.8698 22.3203 26.3643 22.8228C26.8587 23.3252 27.106 23.9273 27.106 24.6292V33.8167C27.106 34.5185 26.8587 35.1166 26.3643 35.6111C25.8698 36.1056 25.2716 36.3528 24.5698 36.3528H15.3823C14.6646 36.3528 14.0584 36.1056 13.564 35.6111C13.0695 35.1166 12.8223 34.5185 12.8223 33.8167V24.6292C12.8223 23.9273 13.0695 23.3252 13.564 22.8228C14.0584 22.3203 14.6646 22.0691 15.3823 22.0691H24.5698ZM24.5698 23.0979H15.3823C14.9517 23.0979 14.5888 23.2454 14.2937 23.5405C13.9986 23.8356 13.8511 24.1985 13.8511 24.6292V33.8167C13.8511 34.2314 13.9986 34.5903 14.2937 34.8933C14.5888 35.1964 14.9517 35.3479 15.3823 35.3479H24.5698C24.9845 35.3479 25.3434 35.1964 25.6465 34.8933C25.9495 34.5903 26.1011 34.2314 26.1011 33.8167V24.6292C26.1011 24.1985 25.9495 23.8356 25.6465 23.5405C25.3434 23.2454 24.9845 23.0979 24.5698 23.0979ZM17.416 30.2278C17.8467 30.2278 18.2096 30.3793 18.5046 30.6824C18.7997 30.9854 18.9473 31.3443 18.9473 31.759C18.9473 32.1897 18.7997 32.5526 18.5046 32.8477C18.2096 33.1427 17.8467 33.2903 17.416 33.2903C16.9854 33.2903 16.6225 33.1427 16.3274 32.8477C16.0323 32.5526 15.8848 32.1897 15.8848 31.759C15.8848 31.3443 16.0323 30.9854 16.3274 30.6824C16.6225 30.3793 16.9854 30.2278 17.416 30.2278ZM22.5122 30.2278C22.9429 30.2278 23.3057 30.3793 23.6008 30.6824C23.8959 30.9854 24.0435 31.3443 24.0435 31.759C24.0435 32.1897 23.8959 32.5526 23.6008 32.8477C23.3057 33.1427 22.9429 33.2903 22.5122 33.2903C22.0975 33.2903 21.7386 33.1427 21.4355 32.8477C21.1325 32.5526 20.981 32.1897 20.981 31.759C20.981 31.3443 21.1325 30.9854 21.4355 30.6824C21.7386 30.3793 22.0975 30.2278 22.5122 30.2278ZM17.416 31.2566C17.2725 31.2566 17.1528 31.3084 17.0571 31.4121C16.9614 31.5158 16.9136 31.6314 16.9136 31.759C16.9136 31.9026 16.9614 32.0262 17.0571 32.1299C17.1528 32.2336 17.2725 32.2854 17.416 32.2854C17.5596 32.2854 17.6792 32.2336 17.7749 32.1299C17.8706 32.0262 17.9185 31.9026 17.9185 31.759C17.9185 31.6314 17.8706 31.5158 17.7749 31.4121C17.6792 31.3084 17.5596 31.2566 17.416 31.2566ZM22.5122 31.2566C22.3687 31.2566 22.249 31.3084 22.1533 31.4121C22.0576 31.5158 22.0098 31.6314 22.0098 31.759C22.0098 31.9026 22.0576 32.0262 22.1533 32.1299C22.249 32.2336 22.3687 32.2854 22.5122 32.2854C22.6558 32.2854 22.7794 32.2336 22.8831 32.1299C22.9867 32.0262 23.0386 31.9026 23.0386 31.759C23.0386 31.6314 22.9867 31.5158 22.8831 31.4121C22.7794 31.3084 22.6558 31.2566 22.5122 31.2566ZM27.728 13.9104L27.8716 13.9822L35.8867 18.6238C36.2695 18.8471 36.5806 19.1541 36.8198 19.5449C37.0591 19.9357 37.1787 20.3624 37.1787 20.825C37.1787 21.0323 37.1548 21.2277 37.1069 21.4111C37.0591 21.5946 36.9953 21.766 36.9155 21.9255L36.8438 22.0691L32.585 29.7493C32.3617 30.148 32.0546 30.467 31.6638 30.7063C31.273 30.9456 30.8384 31.0652 30.3599 31.0652C30.1844 31.0652 30.0129 31.0492 29.8455 31.0173C29.678 30.9854 29.5145 30.9376 29.355 30.8738H29.3789L29.2114 30.802L28.3022 30.3474C28.2065 30.2996 28.1348 30.2358 28.0869 30.156C28.0391 30.0763 28.0151 29.9885 28.0151 29.8928C28.0151 29.7493 28.063 29.6257 28.1587 29.522C28.2544 29.4183 28.374 29.3665 28.5176 29.3665C28.5495 29.3665 28.5774 29.3704 28.6013 29.3784C28.6252 29.3864 28.6452 29.3904 28.6611 29.3904L28.7568 29.4382L29.666 29.8928C29.7617 29.9407 29.8694 29.9806 29.989 30.0125C30.1086 30.0444 30.2323 30.0603 30.3599 30.0603C30.6151 30.0603 30.8543 29.9965 31.0776 29.8689C31.3009 29.7413 31.4764 29.5818 31.604 29.3904L31.6997 29.2708L35.9585 21.5667C36.0223 21.4709 36.0702 21.3593 36.1021 21.2317C36.134 21.1041 36.1499 20.9685 36.1499 20.825C36.1499 20.5697 36.0901 20.3345 35.9705 20.1191C35.8508 19.9038 35.6953 19.7244 35.5039 19.5808L35.3843 19.509L27.3452 14.8674C27.2336 14.8036 27.1139 14.7558 26.9863 14.7239C26.8587 14.692 26.7231 14.676 26.5796 14.676C26.3244 14.676 26.0891 14.7319 25.8738 14.8435C25.6584 14.9552 25.479 15.1067 25.3354 15.2981L25.2637 15.4177L21.9619 21.136C21.9141 21.2157 21.8503 21.2795 21.7705 21.3274C21.6908 21.3752 21.603 21.3992 21.5073 21.3992C21.3638 21.3992 21.2441 21.3513 21.1484 21.2556C21.0527 21.1599 21.0049 21.0403 21.0049 20.8967C21.0049 20.8648 21.0089 20.8329 21.0168 20.801C21.0248 20.7691 21.0288 20.7372 21.0288 20.7053L21.0767 20.6335L24.3784 14.9153C24.6017 14.5325 24.9088 14.2254 25.2996 13.9941C25.6903 13.7629 26.117 13.6472 26.5796 13.6472C26.7869 13.6472 26.9863 13.6711 27.1777 13.719C27.3691 13.7668 27.5526 13.8306 27.728 13.9104ZM17.416 25.1316C17.8467 25.1316 18.2096 25.2831 18.5046 25.5862C18.7997 25.8892 18.9473 26.2481 18.9473 26.6628C18.9473 27.0935 18.7997 27.4564 18.5046 27.7515C18.2096 28.0465 17.8467 28.1941 17.416 28.1941C16.9854 28.1941 16.6225 28.0465 16.3274 27.7515C16.0323 27.4564 15.8848 27.0935 15.8848 26.6628C15.8848 26.2481 16.0323 25.8892 16.3274 25.5862C16.6225 25.2831 16.9854 25.1316 17.416 25.1316ZM22.5122 25.1316C22.9429 25.1316 23.3057 25.2831 23.6008 25.5862C23.8959 25.8892 24.0435 26.2481 24.0435 26.6628C24.0435 27.0935 23.8959 27.4564 23.6008 27.7515C23.3057 28.0465 22.9429 28.1941 22.5122 28.1941C22.0975 28.1941 21.7386 28.0465 21.4355 27.7515C21.1325 27.4564 20.981 27.0935 20.981 26.6628C20.981 26.2481 21.1325 25.8892 21.4355 25.5862C21.7386 25.2831 22.0975 25.1316 22.5122 25.1316ZM17.416 26.1604C17.2725 26.1604 17.1528 26.2083 17.0571 26.304C16.9614 26.3997 16.9136 26.5193 16.9136 26.6628C16.9136 26.8064 16.9614 26.926 17.0571 27.0217C17.1528 27.1174 17.2725 27.1653 17.416 27.1653C17.5596 27.1653 17.6792 27.1174 17.7749 27.0217C17.8706 26.926 17.9185 26.8064 17.9185 26.6628C17.9185 26.5193 17.8706 26.3997 17.7749 26.304C17.6792 26.2083 17.5596 26.1604 17.416 26.1604ZM22.5122 26.1604C22.3687 26.1604 22.249 26.2083 22.1533 26.304C22.0576 26.3997 22.0098 26.5193 22.0098 26.6628C22.0098 26.8064 22.0576 26.926 22.1533 27.0217C22.249 27.1174 22.3687 27.1653 22.5122 27.1653C22.6558 27.1653 22.7794 27.1174 22.8831 27.0217C22.9867 26.926 23.0386 26.8064 23.0386 26.6628C23.0386 26.5193 22.9867 26.3997 22.8831 26.304C22.7794 26.2083 22.6558 26.1604 22.5122 26.1604ZM28.6372 21.0403C29.0679 21.0403 29.4307 21.1918 29.7258 21.4949C30.0209 21.7979 30.1685 22.1568 30.1685 22.5715C30.1685 23.0022 30.0209 23.3651 29.7258 23.6602C29.4307 23.9552 29.0679 24.1028 28.6372 24.1028C28.2225 24.1028 27.8636 23.9552 27.5605 23.6602C27.2575 23.3651 27.106 23.0022 27.106 22.5715C27.106 22.1568 27.2575 21.7979 27.5605 21.4949C27.8636 21.1918 28.2225 21.0403 28.6372 21.0403ZM28.6372 22.0691C28.4937 22.0691 28.374 22.1209 28.2783 22.2246C28.1826 22.3283 28.1348 22.4439 28.1348 22.5715C28.1348 22.7151 28.1826 22.8387 28.2783 22.9424C28.374 23.0461 28.4937 23.0979 28.6372 23.0979C28.7808 23.0979 28.9044 23.0461 29.0081 22.9424C29.1117 22.8387 29.1636 22.7151 29.1636 22.5715C29.1636 22.4439 29.1117 22.3283 29.0081 22.2246C28.9044 22.1209 28.7808 22.0691 28.6372 22.0691Z" fill="#732FCB"/>
</svg>
