<svg width="50" height="50" viewBox="0 0 50 50" fill="none" xmlns="http://www.w3.org/2000/svg">
<path d="M16.8413 12.75C17.9259 12.75 18.863 13.1248 19.6526 13.8745C20.4421 14.6242 20.8608 15.5413 20.9087 16.626V16.8413V23.9473C20.9087 24.0749 20.8608 24.1905 20.7651 24.2942C20.6694 24.3979 20.5498 24.4497 20.4062 24.4497C20.2786 24.4497 20.167 24.4098 20.0713 24.3301C19.9756 24.2503 19.9198 24.1466 19.9038 24.019V23.9473V16.8413C19.9038 15.9959 19.6047 15.2742 19.0066 14.676C18.4084 14.0779 17.6867 13.7788 16.8413 13.7788C16.0278 13.7788 15.326 14.0579 14.7358 14.6162C14.1457 15.1745 13.8267 15.8524 13.7788 16.6499V16.8413V31.125C13.7788 31.9704 14.0779 32.6921 14.676 33.2903C15.2742 33.8884 15.9959 34.1875 16.8413 34.1875C17.6548 34.1875 18.3566 33.9084 18.9468 33.3501C19.5369 32.7918 19.848 32.1139 19.8799 31.3164L19.9038 31.125V26.6748C19.9038 26.5312 19.9517 26.4076 20.0474 26.304C20.1431 26.2003 20.2627 26.1484 20.4062 26.1484C20.5339 26.1484 20.6455 26.1883 20.7412 26.2681C20.8369 26.3478 20.8927 26.4515 20.9087 26.5791V26.6748V31.125C20.9087 31.3005 20.9007 31.4719 20.8848 31.6394C20.8688 31.8069 20.8369 31.9784 20.7891 32.1538H34.6899C35.0887 32.1538 35.4356 32.0182 35.7307 31.7471C36.0258 31.4759 36.1893 31.1489 36.2212 30.7661V30.6226V17.3438C36.2212 16.945 36.0896 16.6021 35.8264 16.3149C35.5632 16.0278 35.2323 15.8604 34.8335 15.8125H34.6899H21.5308C21.4032 15.8125 21.2875 15.7646 21.1838 15.6689C21.0802 15.5732 21.0283 15.4536 21.0283 15.3101C21.0283 15.1825 21.0682 15.0708 21.1479 14.9751C21.2277 14.8794 21.3314 14.8236 21.459 14.8076L21.5308 14.7837H34.6899C35.3758 14.7837 35.962 15.015 36.4485 15.4775C36.935 15.9401 37.2021 16.5063 37.25 17.1763V17.3438V30.6226C37.25 31.2925 37.0187 31.8707 36.5562 32.3572C36.0936 32.8437 35.5273 33.1108 34.8574 33.1587H34.6899H20.3823C20.0633 33.701 19.6406 34.1516 19.1143 34.5105C18.5879 34.8694 17.9977 35.0887 17.3438 35.1685V36.7476C17.3438 36.8911 17.2959 37.0107 17.2002 37.1064C17.1045 37.2021 16.9849 37.25 16.8413 37.25C16.7137 37.25 16.6021 37.2101 16.5063 37.1304C16.4106 37.0506 16.3548 36.9469 16.3389 36.8193L16.3149 36.7476V35.1685C15.342 35.0568 14.5165 34.6381 13.8386 33.9124C13.1607 33.1866 12.7979 32.3293 12.75 31.3403V31.125V16.8413C12.75 15.7088 13.1488 14.7438 13.9463 13.9463C14.7438 13.1488 15.7088 12.75 16.8413 12.75ZM25.5024 29.0913C25.646 29.0913 25.7696 29.1392 25.8733 29.2349C25.977 29.3306 26.0288 29.4502 26.0288 29.5938C26.0288 29.7373 25.977 29.8569 25.8733 29.9526C25.7696 30.0483 25.646 30.0962 25.5024 30.0962H23.4688C23.3252 30.0962 23.2056 30.0483 23.1099 29.9526C23.0142 29.8569 22.9663 29.7373 22.9663 29.5938C22.9663 29.4502 23.0142 29.3306 23.1099 29.2349C23.2056 29.1392 23.3252 29.0913 23.4688 29.0913H25.5024ZM29.5938 29.0913C29.7373 29.0913 29.8569 29.1392 29.9526 29.2349C30.0483 29.3306 30.0962 29.4502 30.0962 29.5938C30.0962 29.7373 30.0483 29.8569 29.9526 29.9526C29.8569 30.0483 29.7373 30.0962 29.5938 30.0962H27.5601C27.4165 30.0962 27.2929 30.0483 27.1892 29.9526C27.0855 29.8569 27.0337 29.7373 27.0337 29.5938C27.0337 29.4502 27.0855 29.3306 27.1892 29.2349C27.2929 29.1392 27.4165 29.0913 27.5601 29.0913H29.5938ZM33.6851 29.0913C33.8286 29.0913 33.9482 29.1392 34.0439 29.2349C34.1396 29.3306 34.1875 29.4502 34.1875 29.5938C34.1875 29.7373 34.1396 29.8569 34.0439 29.9526C33.9482 30.0483 33.8286 30.0962 33.6851 30.0962H31.6274C31.4839 30.0962 31.3643 30.0483 31.2686 29.9526C31.1729 29.8569 31.125 29.7373 31.125 29.5938C31.125 29.4502 31.1729 29.3306 31.2686 29.2349C31.3643 29.1392 31.4839 29.0913 31.6274 29.0913H33.6851ZM33.1587 17.8462C33.5894 17.8462 33.9522 17.9977 34.2473 18.3008C34.5424 18.6038 34.6899 18.9627 34.6899 19.3774V25.5024C34.6899 25.9331 34.5424 26.296 34.2473 26.5911C33.9522 26.8861 33.5894 27.0337 33.1587 27.0337H23.9712C23.5565 27.0337 23.1976 26.8861 22.8945 26.5911C22.5915 26.296 22.4399 25.9331 22.4399 25.5024V19.3774C22.4399 18.9627 22.5915 18.6038 22.8945 18.3008C23.1976 17.9977 23.5565 17.8462 23.9712 17.8462H33.1587ZM33.1587 18.875H23.9712C23.8276 18.875 23.708 18.9229 23.6123 19.0186C23.5166 19.1143 23.4688 19.2339 23.4688 19.3774V25.5024C23.4688 25.646 23.5166 25.7696 23.6123 25.8733C23.708 25.977 23.8276 26.0288 23.9712 26.0288H33.1587C33.3022 26.0288 33.4259 25.977 33.5295 25.8733C33.6332 25.7696 33.6851 25.646 33.6851 25.5024V19.3774C33.6851 19.2339 33.6332 19.1143 33.5295 19.0186C33.4259 18.9229 33.3022 18.875 33.1587 18.875ZM30.0005 20.6216C30.0802 20.7173 30.1161 20.825 30.1082 20.9446C30.1002 21.0642 30.0563 21.1719 29.9766 21.2676L29.9048 21.3154L25.8135 24.3779C25.7018 24.4736 25.5782 24.5095 25.4426 24.4856C25.307 24.4617 25.1914 24.3939 25.0957 24.2822C25.0319 24.1865 25.004 24.0749 25.012 23.9473C25.0199 23.8197 25.0638 23.716 25.1436 23.6362L25.2153 23.5645L29.2827 20.502C29.3944 20.4222 29.522 20.3903 29.6655 20.4062C29.8091 20.4222 29.9207 20.494 30.0005 20.6216ZM30.2397 22.751C30.3035 22.8626 30.3315 22.9783 30.3235 23.0979C30.3155 23.2175 30.2716 23.3172 30.1919 23.397L30.1201 23.4688L28.876 24.3779C28.7643 24.4736 28.6367 24.5095 28.4932 24.4856C28.3496 24.4617 28.238 24.3939 28.1582 24.2822C28.0944 24.1865 28.0665 24.0749 28.0745 23.9473C28.0824 23.8197 28.1263 23.716 28.2061 23.6362L28.2778 23.5645L29.522 22.6553C29.6336 22.5596 29.7572 22.5237 29.8928 22.5476C30.0284 22.5715 30.144 22.6393 30.2397 22.751Z" fill="#732FCB"/>
</svg>
