<svg width="50" height="50" viewBox="0 0 50 50" fill="none" xmlns="http://www.w3.org/2000/svg">
<path d="M29.271 14.2454C29.7017 14.2454 30.0685 14.3969 30.3716 14.7C30.6746 15.003 30.8262 15.3699 30.8262 15.8005C30.8262 16.2312 30.6746 16.5981 30.3716 16.9011C30.0685 17.2042 29.7017 17.3557 29.271 17.3557C28.8403 17.3557 28.4695 17.2042 28.1584 16.9011C27.8474 16.5981 27.6919 16.2312 27.6919 15.8005C27.6919 15.3699 27.8474 15.003 28.1584 14.7C28.4695 14.3969 28.8403 14.2454 29.271 14.2454ZM26.4717 25.6819L27.9072 23.3611L28.3618 24.677C28.3937 24.7568 28.4416 24.8285 28.5054 24.8923C28.5692 24.9561 28.641 24.996 28.7207 25.012L33.147 26.0647C33.3384 26.1125 33.5298 26.1165 33.7212 26.0767C33.9126 26.0368 34.096 25.969 34.2715 25.8733C34.431 25.7616 34.5666 25.6221 34.6782 25.4546C34.7899 25.2871 34.8617 25.1077 34.8936 24.9163C34.9095 24.8684 34.9175 24.8206 34.9175 24.7727C34.9175 24.7249 34.9175 24.677 34.9175 24.6292C34.9175 24.3101 34.8178 24.023 34.6184 23.7678C34.419 23.5126 34.1678 23.3372 33.8647 23.2415L30.7305 22.3562L29.7974 19.3416C29.7814 19.2778 29.7575 19.2219 29.7256 19.1741C29.6937 19.1262 29.6538 19.0863 29.606 19.0544L28.3857 18.217C28.5133 18.2649 28.6529 18.3048 28.8044 18.3367C28.956 18.3686 29.1115 18.3845 29.271 18.3845C29.9888 18.3845 30.5989 18.1333 31.1013 17.6309C31.6038 17.1284 31.855 16.5183 31.855 15.8005C31.855 15.0828 31.6038 14.4727 31.1013 13.9702C30.5989 13.4678 29.9888 13.2166 29.271 13.2166C28.5532 13.2166 27.9431 13.4678 27.4407 13.9702C26.9382 14.4727 26.687 15.0828 26.687 15.8005C26.687 16.1195 26.7428 16.4226 26.8545 16.7097C26.9661 16.9968 27.1257 17.26 27.333 17.4993L26.8545 17.1643C26.8385 17.1484 26.8186 17.1324 26.7947 17.1165C26.7708 17.1005 26.7428 17.0925 26.7109 17.0925L23.0264 15.8962C23.0104 15.8962 22.9865 15.8923 22.9546 15.8843C22.9227 15.8763 22.8988 15.8723 22.8828 15.8723C22.835 15.8723 22.7911 15.8803 22.7512 15.8962C22.7113 15.9122 22.6755 15.9281 22.6436 15.9441L18.4087 18.1213C18.2332 18.217 18.0777 18.3446 17.9421 18.5042C17.8066 18.6637 17.7148 18.8391 17.667 19.0305V19.0544C17.651 19.1023 17.6391 19.1581 17.6311 19.2219C17.6231 19.2857 17.6191 19.3575 17.6191 19.4373C17.6191 19.836 17.7627 20.179 18.0498 20.4661C18.3369 20.7532 18.6799 20.8967 19.0786 20.8967C19.1903 20.8967 19.3019 20.8848 19.4136 20.8608C19.5252 20.8369 19.6289 20.801 19.7246 20.7532L23.0264 19.1501L24.3662 19.7244L19.4614 27.4285H15.3462C14.8836 27.4285 14.4928 27.592 14.1738 27.9189C13.8548 28.2459 13.6953 28.6407 13.6953 29.1033C13.6953 29.5499 13.8548 29.9367 14.1738 30.2637C14.4928 30.5907 14.8757 30.7542 15.3223 30.7542L21.3516 30.7781C21.4473 30.7781 21.527 30.7621 21.5908 30.7302C21.6546 30.6983 21.7104 30.6505 21.7583 30.5867L23.6245 28.0745L25.4189 29.4382L23.5049 33.8167C23.457 33.9124 23.4211 34.02 23.3972 34.1396C23.3733 34.2593 23.3613 34.3829 23.3613 34.5105C23.3613 34.8455 23.453 35.1525 23.6365 35.4316C23.8199 35.7108 24.0632 35.9221 24.3662 36.0657C24.4779 36.1135 24.5935 36.1494 24.7131 36.1733C24.8328 36.1973 24.9564 36.2092 25.084 36.2092C25.1956 36.2092 25.3033 36.2013 25.407 36.1853C25.5107 36.1694 25.6183 36.1454 25.73 36.1135H25.7061C25.9294 36.0178 26.1248 35.8902 26.2922 35.7307C26.4597 35.5712 26.5833 35.3878 26.6631 35.1804L27.1895 34.0081C27.1895 33.9762 27.1934 33.9443 27.2014 33.9124C27.2094 33.8805 27.2134 33.8486 27.2134 33.8167C27.2134 33.6731 27.1655 33.5535 27.0698 33.4578C26.9741 33.3621 26.8545 33.3142 26.7109 33.3142C26.5993 33.3142 26.5036 33.3421 26.4238 33.3979C26.3441 33.4538 26.2803 33.5216 26.2324 33.6013L25.73 34.7737C25.6981 34.8694 25.6462 34.9491 25.5745 35.0129C25.5027 35.0767 25.4269 35.1246 25.3472 35.1565C25.2993 35.1724 25.2555 35.1844 25.2156 35.1924C25.1757 35.2004 25.1318 35.2043 25.084 35.2043C24.8926 35.2043 24.7291 35.1366 24.5935 35.001C24.4579 34.8654 24.3901 34.7019 24.3901 34.5105C24.3901 34.4467 24.3941 34.3909 24.4021 34.343C24.4101 34.2952 24.43 34.2553 24.4619 34.2234L26.5195 29.4622C26.5355 29.4303 26.5474 29.3984 26.5554 29.3665C26.5634 29.3346 26.5674 29.2947 26.5674 29.2468C26.5674 29.1671 26.5474 29.0913 26.5076 29.0195C26.4677 28.9478 26.4159 28.8879 26.3521 28.8401L23.8159 26.95C23.7681 26.918 23.7202 26.8941 23.6724 26.8782C23.6245 26.8622 23.5687 26.8542 23.5049 26.8542C23.4889 26.8542 23.477 26.8542 23.469 26.8542C23.461 26.8542 23.4491 26.8542 23.4331 26.8542C23.3693 26.8542 23.3095 26.8742 23.2537 26.9141C23.1978 26.9539 23.146 26.9978 23.0981 27.0457L21.0884 29.7732L15.3462 29.7253C15.1707 29.7253 15.0192 29.6655 14.8916 29.5459C14.764 29.4263 14.7002 29.2787 14.7002 29.1033C14.7002 28.9278 14.764 28.7763 14.8916 28.6487C15.0192 28.5211 15.1707 28.4573 15.3462 28.4573H19.7485C19.8283 28.4573 19.908 28.4373 19.9878 28.3975C20.0675 28.3576 20.1313 28.2978 20.1792 28.218L25.5386 19.7483C25.5705 19.7164 25.5944 19.6765 25.6104 19.6287C25.6263 19.5808 25.6343 19.533 25.6343 19.4851C25.6343 19.3735 25.6064 19.2778 25.5505 19.198C25.4947 19.1182 25.4189 19.0544 25.3232 19.0066L23.1938 18.1213C23.1619 18.1054 23.13 18.0934 23.0981 18.0854C23.0662 18.0775 23.0343 18.0735 23.0024 18.0735C22.9546 18.0735 22.9147 18.0775 22.8828 18.0854C22.8509 18.0934 22.819 18.1134 22.7871 18.1453V18.1213L19.27 19.8201C19.2381 19.836 19.2062 19.848 19.1743 19.856C19.1424 19.8639 19.1105 19.8679 19.0786 19.8679C18.9989 19.8679 18.9271 19.852 18.8633 19.8201C18.7995 19.7882 18.7437 19.7403 18.6958 19.6765C18.6799 19.6446 18.6639 19.6087 18.6479 19.5688C18.632 19.529 18.624 19.4851 18.624 19.4373C18.624 19.4054 18.628 19.3814 18.636 19.3655C18.644 19.3495 18.6479 19.3336 18.6479 19.3176C18.6639 19.2538 18.6918 19.198 18.7317 19.1501C18.7716 19.1023 18.8154 19.0624 18.8633 19.0305L22.9307 16.949L26.3281 18.0496L28.8643 19.7961L29.8452 22.9304C29.8612 23.0102 29.901 23.082 29.9648 23.1458C30.0286 23.2096 30.1004 23.2494 30.1802 23.2654L33.5776 24.2224C33.6733 24.2543 33.7531 24.3062 33.8169 24.3779C33.8807 24.4497 33.9126 24.5414 33.9126 24.6531C33.9126 24.7169 33.8927 24.7807 33.8528 24.8445C33.8129 24.9083 33.7611 24.9641 33.6973 25.012C33.6654 25.0279 33.6295 25.0439 33.5896 25.0598C33.5497 25.0758 33.5138 25.0837 33.4819 25.0837C33.45 25.0837 33.4261 25.0798 33.4102 25.0718C33.3942 25.0638 33.3783 25.0598 33.3623 25.0598L29.2471 24.0789L28.5293 21.9973C28.4974 21.9016 28.4376 21.8219 28.3499 21.7581C28.2621 21.6943 28.1624 21.6624 28.0508 21.6624C27.9551 21.6624 27.8674 21.6823 27.7876 21.7222C27.7078 21.762 27.644 21.8219 27.5962 21.9016L25.3711 25.5144C25.3392 25.5623 25.3153 25.6061 25.2993 25.646C25.2834 25.6859 25.2754 25.7297 25.2754 25.7776C25.2754 25.8733 25.2953 25.953 25.3352 26.0168C25.3751 26.0806 25.4189 26.1365 25.4668 26.1843H25.4907L28.2422 28.3616C28.29 28.4094 28.3259 28.4692 28.3499 28.541C28.3738 28.6128 28.3698 28.6886 28.3379 28.7683L27.0938 31.6155C27.0778 31.6474 27.0658 31.6793 27.0579 31.7112C27.0499 31.7431 27.0459 31.783 27.0459 31.8308C27.0459 31.9584 27.0977 32.0741 27.2014 32.1777C27.3051 32.2814 27.4287 32.3333 27.5723 32.3333C27.668 32.3333 27.7597 32.3053 27.8474 32.2495C27.9351 32.1937 27.995 32.1179 28.0269 32.0222L29.271 29.175C29.3029 29.0953 29.3268 29.0076 29.3428 28.9119C29.3587 28.8162 29.3667 28.7205 29.3667 28.6248C29.3667 28.4174 29.3228 28.222 29.2351 28.0386C29.1474 27.8551 29.0238 27.6996 28.8643 27.572L26.4717 25.6819ZM22.0215 35.7786C22.165 35.7786 22.2887 35.8264 22.3923 35.9221C22.496 36.0178 22.5479 36.1375 22.5479 36.281C22.5479 36.4086 22.508 36.5203 22.4282 36.616C22.3485 36.7117 22.2448 36.7675 22.1172 36.7834H22.0215H13.6953C13.5518 36.7834 13.4281 36.7356 13.3245 36.6399C13.2208 36.5442 13.1689 36.4246 13.1689 36.281C13.1689 36.1534 13.2088 36.0417 13.2886 35.946C13.3683 35.8503 13.472 35.7945 13.5996 35.7786H13.6953H22.0215ZM36.3291 35.7786C36.4727 35.7786 36.5923 35.8264 36.688 35.9221C36.7837 36.0178 36.8315 36.1375 36.8315 36.281C36.8315 36.4086 36.7917 36.5203 36.7119 36.616C36.6322 36.7117 36.5365 36.7675 36.4248 36.7834H36.3291H27.979C27.8354 36.7834 27.7158 36.7356 27.6201 36.6399C27.5244 36.5442 27.4766 36.4246 27.4766 36.281C27.4766 36.1534 27.5164 36.0417 27.5962 35.946C27.6759 35.8503 27.7716 35.7945 27.8833 35.7786H27.979H36.3291Z" fill="#732FCB"/>
</svg>
