<svg width="50" height="50" viewBox="0 0 50 50" fill="none" xmlns="http://www.w3.org/2000/svg">
<path d="M35.647 26.6067C35.7427 26.6386 35.8264 26.6984 35.8982 26.7861C35.97 26.8739 36.0059 26.9736 36.0059 27.0852L35.9819 27.2766L35.958 27.5159C35.9421 27.7711 35.9022 28.0183 35.8384 28.2576C35.7746 28.4968 35.7028 28.7201 35.623 28.9275V28.9036C35.3997 29.5097 35.0608 29.9882 34.6062 30.3391C34.1516 30.69 33.5894 30.8655 32.9194 30.8655C32.7759 30.8495 32.6562 30.7937 32.5605 30.698C32.4648 30.6023 32.417 30.4827 32.417 30.3391C32.417 30.1956 32.4688 30.0759 32.5725 29.9802C32.6762 29.8845 32.7918 29.8367 32.9194 29.8367C32.9194 29.8367 32.9234 29.8367 32.9314 29.8367C32.9394 29.8367 32.9434 29.8367 32.9434 29.8367C33.374 29.8367 33.7289 29.725 34.0081 29.5017C34.2872 29.2784 34.5145 28.9514 34.6899 28.5208C34.7218 28.425 34.7577 28.3134 34.7976 28.1858C34.8375 28.0582 34.8654 27.9306 34.8813 27.803L34.9053 27.7791L34.9292 27.5159L34.9531 27.468C34.4108 27.3404 33.9522 27.3524 33.5774 27.5039C33.2026 27.6554 32.8875 27.9226 32.6323 28.3054L32.5605 28.425C32.4808 28.5527 32.413 28.6803 32.3572 28.8079C32.3014 28.9355 32.2575 29.071 32.2256 29.2146L32.1538 29.3821L32.1299 29.5017V32.6599H36.6758C36.8193 32.6599 36.939 32.7078 37.0347 32.8035C37.1304 32.8992 37.1782 33.0188 37.1782 33.1624C37.1782 33.29 37.1383 33.4016 37.0586 33.4973C36.9788 33.593 36.8831 33.6488 36.7715 33.6648L36.6758 33.6887H25.2153L23.6841 36.9666C23.6362 37.0304 23.5804 37.0902 23.5166 37.146C23.4528 37.2018 23.381 37.2377 23.3013 37.2537H23.2056H13.8506C13.707 37.2537 13.5834 37.2058 13.4797 37.1101C13.3761 37.0144 13.3242 36.8948 13.3242 36.7512C13.3242 36.6236 13.3641 36.512 13.4438 36.4163C13.5236 36.3206 13.6273 36.2647 13.7549 36.2488L13.8506 36.2249H18.5879V33.1624L18.564 33.0427C18.4204 32.6599 18.225 32.3449 17.9778 32.0977C17.7306 31.8504 17.4474 31.663 17.1284 31.5354L16.9609 31.4875C16.7855 31.4397 16.606 31.3998 16.4226 31.3679C16.2392 31.336 16.0518 31.3201 15.8604 31.3201C15.8285 31.3201 15.8005 31.3201 15.7766 31.3201C15.7527 31.3201 15.7248 31.3201 15.6929 31.3201H15.7168L15.4297 31.344C15.5094 31.8225 15.641 32.2213 15.8245 32.5403C16.0079 32.8593 16.2432 33.1065 16.5303 33.282L16.6499 33.3538C16.8094 33.4495 16.9809 33.5212 17.1643 33.5691C17.3477 33.6169 17.5352 33.6409 17.7266 33.6409H17.894C17.91 33.6409 17.922 33.6409 17.9299 33.6409C17.9379 33.6409 17.9419 33.6409 17.9419 33.6409C18.0854 33.6409 18.2091 33.6887 18.3127 33.7844C18.4164 33.8801 18.4683 33.9998 18.4683 34.1433C18.4683 34.2709 18.4324 34.3786 18.3606 34.4663C18.2888 34.554 18.1971 34.6139 18.0854 34.6458L17.9897 34.6697H17.9419C17.91 34.6697 17.8781 34.6697 17.8462 34.6697C17.8143 34.6697 17.7904 34.6697 17.7744 34.6697C17.4714 34.6697 17.1842 34.6338 16.9131 34.562C16.6419 34.4902 16.3867 34.3905 16.1475 34.2629H16.1714C15.645 33.9758 15.2263 33.5571 14.9153 33.0068C14.6042 32.4565 14.4248 31.7667 14.377 30.9373C14.377 30.9373 14.377 30.9333 14.377 30.9253C14.377 30.9173 14.377 30.9133 14.377 30.9133C14.377 30.7857 14.4128 30.6781 14.4846 30.5903C14.5564 30.5026 14.6481 30.4428 14.7598 30.4109L14.9033 30.387L15.0708 30.363C15.4217 30.3152 15.7846 30.2992 16.1594 30.3152C16.5343 30.3311 16.8971 30.3949 17.248 30.5066C17.6149 30.6182 17.9499 30.7778 18.2529 30.9851C18.556 31.1925 18.8192 31.4556 19.0425 31.7747C19.0584 31.7268 19.0784 31.6869 19.1023 31.655C19.1262 31.6231 19.1462 31.5833 19.1621 31.5354C19.5609 30.8814 20.0912 30.4268 20.7532 30.1716C21.4151 29.9164 22.2087 29.9324 23.1338 30.2195C23.2295 30.2673 23.3092 30.3351 23.373 30.4229C23.4368 30.5106 23.4688 30.6103 23.4688 30.7219V30.8894L23.4448 31.1526L23.4209 31.2961C23.4049 31.5194 23.3691 31.7388 23.3132 31.9541C23.2574 32.1694 23.1896 32.3728 23.1099 32.5642V32.5403C22.8866 33.1464 22.5476 33.6249 22.093 33.9758C21.6384 34.3267 21.0762 34.4942 20.4062 34.4783C20.2627 34.4783 20.1431 34.4304 20.0474 34.3347C19.9517 34.239 19.9038 34.1194 19.9038 33.9758C19.9038 33.8323 19.9517 33.7126 20.0474 33.6169C20.1431 33.5212 20.2627 33.4734 20.4062 33.4734C20.8529 33.4734 21.2157 33.3617 21.4949 33.1384C21.774 32.9151 22.0013 32.5881 22.1768 32.1575C22.2087 32.0458 22.2445 31.9302 22.2844 31.8105C22.3243 31.6909 22.3522 31.5673 22.3682 31.4397V31.4158L22.416 31.1526V31.1047V31.0808C21.8737 30.9692 21.4191 30.9891 21.0522 31.1406C20.6854 31.2922 20.3743 31.5514 20.1191 31.9182L20.0474 32.0618C19.9676 32.1894 19.8998 32.317 19.844 32.4446C19.7882 32.5722 19.7363 32.6998 19.6885 32.8274L19.6646 32.9231L19.6406 33.0667L19.6167 33.1384V36.2249H22.8945L24.4258 32.947C24.4577 32.8673 24.5055 32.8035 24.5693 32.7556C24.6331 32.7078 24.7049 32.6759 24.7847 32.6599H24.8086H24.8804H31.125V29.5496L31.0771 29.406C30.9336 29.0232 30.7422 28.7122 30.5029 28.4729C30.2637 28.2336 29.9766 28.0502 29.6416 27.9226L29.4741 27.8508C29.2987 27.803 29.1192 27.7631 28.9358 27.7312C28.7524 27.6993 28.5649 27.6833 28.3735 27.6833C28.3416 27.6833 28.3137 27.6833 28.2898 27.6833C28.2659 27.6833 28.2459 27.6833 28.23 27.6833L27.9429 27.7073C28.0226 28.2017 28.1542 28.6045 28.3376 28.9155C28.5211 29.2266 28.7563 29.4778 29.0435 29.6692L29.1631 29.741C29.3545 29.8367 29.5419 29.9045 29.7253 29.9443C29.9088 29.9842 30.0802 30.0042 30.2397 30.0042H30.4072C30.4232 30.0042 30.4351 30.0042 30.4431 30.0042C30.4511 30.0042 30.4551 30.0042 30.4551 30.0042C30.5986 30.0042 30.7222 30.056 30.8259 30.1597C30.9296 30.2633 30.9814 30.387 30.9814 30.5305C30.9814 30.6581 30.9376 30.7698 30.8499 30.8655C30.7621 30.9612 30.6545 31.017 30.5269 31.033H30.4551C30.4232 31.033 30.3953 31.033 30.3713 31.033C30.3474 31.033 30.3195 31.033 30.2876 31.033C29.9845 31.033 29.6974 30.9971 29.4263 30.9253C29.1551 30.8535 28.8999 30.7538 28.6606 30.6262H28.6846C28.1582 30.3551 27.7395 29.9443 27.4285 29.394C27.1174 28.8438 26.938 28.1459 26.8901 27.3005C26.8901 27.3005 26.8901 27.2965 26.8901 27.2886C26.8901 27.2806 26.8901 27.2766 26.8901 27.2766C26.8901 27.149 26.926 27.0413 26.9978 26.9536C27.0696 26.8659 27.1613 26.8061 27.2729 26.7742L27.4165 26.7502L27.6079 26.7263C27.9429 26.6785 28.2978 26.6625 28.6726 26.6785C29.0474 26.6944 29.4103 26.7582 29.7612 26.8699C30.1281 26.9975 30.4631 27.165 30.7661 27.3723C31.0692 27.5797 31.3324 27.8349 31.5557 28.1379C31.5716 28.106 31.5916 28.0701 31.6155 28.0303C31.6394 27.9904 31.6593 27.9465 31.6753 27.8987C32.0741 27.2447 32.6044 26.7901 33.2664 26.5349C33.9283 26.2797 34.7218 26.3036 35.647 26.6067ZM21.5068 12.9929C21.6025 13.0248 21.6863 13.0846 21.7581 13.1724C21.8298 13.2601 21.8657 13.3598 21.8657 13.4714L21.8418 13.5671V13.7825C21.8099 14.0536 21.766 14.3168 21.7102 14.572C21.6544 14.8272 21.5786 15.0745 21.4829 15.3137L21.5068 15.2898C21.2676 15.8959 20.9207 16.3744 20.4661 16.7253C20.0115 17.0763 19.4492 17.2437 18.7793 17.2278C18.6357 17.2278 18.5161 17.1799 18.4204 17.0842C18.3247 16.9885 18.2769 16.8689 18.2769 16.7253C18.2769 16.5818 18.3287 16.4622 18.4324 16.3665C18.5361 16.2708 18.6517 16.2229 18.7793 16.2229C18.7793 16.2229 18.7833 16.2229 18.7913 16.2229C18.7992 16.2229 18.8032 16.2229 18.8032 16.2229C19.2339 16.2229 19.5888 16.1112 19.8679 15.8879C20.1471 15.6646 20.3743 15.3376 20.5498 14.907C20.5817 14.8113 20.6176 14.6996 20.6575 14.572C20.6973 14.4444 20.7253 14.3168 20.7412 14.1892L20.7651 14.1653L20.7891 13.9021L20.813 13.8542C20.2707 13.7266 19.8121 13.7386 19.4373 13.8901C19.0624 14.0417 18.7474 14.3088 18.4922 14.6917L18.4204 14.8113C18.3407 14.9389 18.2729 15.0665 18.217 15.1941C18.1612 15.3217 18.1174 15.4573 18.0854 15.6008L18.0137 15.8401L17.9897 15.8879V18.8069H22.1768C22.2725 18.8069 22.3562 18.8268 22.428 18.8667C22.4998 18.9066 22.5596 18.9584 22.6074 19.0222L22.6313 19.094L25 24.1902H28.876V21.0798L28.8281 20.9363C28.6846 20.5535 28.4932 20.2424 28.2539 20.0032C28.0146 19.7639 27.7275 19.5805 27.3926 19.4529L27.2251 19.3811C27.0496 19.3333 26.8702 19.2934 26.6868 19.2615C26.5033 19.2296 26.3159 19.2136 26.1245 19.2136C26.0926 19.2136 26.0647 19.2136 26.0408 19.2136C26.0168 19.2136 25.9969 19.2136 25.981 19.2136L25.6938 19.2375C25.7736 19.732 25.9052 20.1348 26.0886 20.4458C26.2721 20.7568 26.5073 21.0081 26.7944 21.1995L26.9141 21.2712C27.1055 21.3669 27.2929 21.4347 27.4763 21.4746C27.6597 21.5145 27.8312 21.5344 27.9907 21.5344H28.1582C28.1742 21.5344 28.1861 21.5344 28.1941 21.5344C28.2021 21.5344 28.2061 21.5344 28.2061 21.5344C28.3496 21.5344 28.4732 21.5863 28.5769 21.6899C28.6806 21.7936 28.7324 21.9172 28.7324 22.0608C28.7324 22.1884 28.6886 22.3 28.6008 22.3958C28.5131 22.4915 28.4054 22.5473 28.2778 22.5632H28.2061C28.1742 22.5632 28.1462 22.5632 28.1223 22.5632C28.0984 22.5632 28.0705 22.5632 28.0386 22.5632C27.7355 22.5632 27.4484 22.5273 27.1772 22.4556C26.9061 22.3838 26.6509 22.2841 26.4116 22.1565H26.4355C25.9092 21.8853 25.4905 21.4746 25.1794 20.9243C24.8684 20.374 24.689 19.6762 24.6411 18.8308C24.6411 18.8308 24.6411 18.8268 24.6411 18.8188C24.6411 18.8109 24.6411 18.8069 24.6411 18.8069C24.6411 18.6793 24.677 18.5716 24.7488 18.4839C24.8206 18.3962 24.9123 18.3363 25.0239 18.3044L25.1675 18.2805L25.3589 18.2566C25.6938 18.2087 26.0487 18.1928 26.4236 18.2087C26.7984 18.2247 27.1693 18.2885 27.5361 18.4001C27.887 18.5278 28.214 18.6952 28.5171 18.9026C28.8202 19.1099 29.0833 19.3652 29.3066 19.6682C29.3226 19.6363 29.3425 19.6004 29.3665 19.5605C29.3904 19.5207 29.4103 19.4768 29.4263 19.429C29.825 18.775 30.3554 18.3204 31.0173 18.0652C31.6793 17.81 32.4728 17.8339 33.3979 18.137C33.4937 18.1689 33.5774 18.2287 33.6492 18.3164C33.7209 18.4041 33.7568 18.5038 33.7568 18.6155L33.7329 18.7112V18.9265C33.701 19.1977 33.6571 19.4609 33.6013 19.7161C33.5455 19.9713 33.4697 20.2185 33.374 20.4578L33.3979 20.4338C33.1587 21.04 32.8118 21.5185 32.3572 21.8694C31.9026 22.2203 31.3403 22.3958 30.6704 22.3958C30.5269 22.3798 30.4072 22.324 30.3115 22.2283C30.2158 22.1326 30.168 22.0129 30.168 21.8694C30.168 21.7258 30.2198 21.6062 30.3235 21.5105C30.4272 21.4148 30.5428 21.3669 30.6704 21.3669C30.6704 21.3669 30.6744 21.3669 30.6824 21.3669C30.6903 21.3669 30.6943 21.3669 30.6943 21.3669C31.125 21.3669 31.4799 21.2553 31.759 21.032C32.0382 20.8087 32.2655 20.4817 32.4409 20.051C32.4728 19.9553 32.5087 19.8437 32.5486 19.7161C32.5885 19.5885 32.6164 19.4609 32.6323 19.3333L32.6562 19.3093L32.6802 19.0461L32.7041 18.9983C32.1618 18.8707 31.7032 18.8827 31.3284 19.0342C30.9535 19.1857 30.6385 19.4529 30.3833 19.8357L30.3115 19.9553C30.2318 20.0829 30.164 20.2105 30.1082 20.3381C30.0523 20.4657 30.0085 20.6013 29.9766 20.7449L29.9287 20.9124L29.8809 21.032V24.1902H36.7476C36.8592 24.1902 36.9629 24.2301 37.0586 24.3098C37.1543 24.3896 37.2181 24.4932 37.25 24.6208V24.7166C37.25 24.8282 37.2101 24.9319 37.1304 25.0276C37.0506 25.1233 36.9549 25.1871 36.8433 25.219H36.7476H24.689C24.5933 25.219 24.5095 25.1991 24.4377 25.1592C24.366 25.1193 24.3062 25.0675 24.2583 25.0037L24.2104 24.9319L21.8418 19.8118H13.9224C13.7948 19.8118 13.6831 19.7719 13.5874 19.6921C13.4917 19.6124 13.4359 19.5167 13.4199 19.405L13.396 19.3093C13.396 19.1817 13.4359 19.0741 13.5156 18.9863C13.5954 18.8986 13.6991 18.8388 13.8267 18.8069H13.9224H16.9849V15.9358L16.937 15.7922C16.7935 15.4094 16.6021 15.0944 16.3628 14.8472C16.1235 14.5999 15.8364 14.4125 15.5015 14.2849L15.334 14.2371C15.1585 14.1892 14.9791 14.1493 14.7957 14.1174C14.6122 14.0855 14.4248 14.0696 14.2334 14.0696C14.2174 14.0696 14.1935 14.0696 14.1616 14.0696C14.1297 14.0696 14.1058 14.0696 14.0898 14.0696L13.8027 14.0935C13.8825 14.588 14.0141 14.9907 14.1975 15.3018C14.3809 15.6128 14.6162 15.856 14.9033 16.0315L15.0229 16.1272C15.2144 16.2229 15.4018 16.2907 15.5852 16.3306C15.7686 16.3704 15.9401 16.3904 16.0996 16.3904H16.2671C16.283 16.3904 16.295 16.3904 16.303 16.3904C16.311 16.3904 16.3229 16.3904 16.3389 16.3904C16.4824 16.3904 16.606 16.4422 16.7097 16.5459C16.8134 16.6496 16.8652 16.7652 16.8652 16.8928C16.8652 17.0364 16.8174 17.156 16.7217 17.2517C16.626 17.3474 16.5143 17.4032 16.3867 17.4192H16.3149C16.283 17.4192 16.2551 17.4192 16.2312 17.4192C16.2073 17.4192 16.1794 17.4192 16.1475 17.4192C15.8444 17.4192 15.5573 17.3833 15.2861 17.3115C15.015 17.2397 14.7598 17.1401 14.5205 17.0125H14.5444C14.0181 16.7413 13.5994 16.3306 13.2883 15.7803C12.9773 15.23 12.7979 14.5321 12.75 13.6868C12.75 13.6868 12.75 13.6828 12.75 13.6748C12.75 13.6668 12.75 13.6628 12.75 13.6628C12.75 13.5352 12.7859 13.4276 12.8577 13.3398C12.9294 13.2521 13.0212 13.1923 13.1328 13.1604L13.2764 13.1365L13.4678 13.1125C13.8027 13.0647 14.1576 13.0487 14.5325 13.0647C14.9073 13.0806 15.2702 13.1444 15.6211 13.2561C15.988 13.3837 16.3229 13.5512 16.626 13.7585C16.929 13.9659 17.1922 14.2211 17.4155 14.5242C17.4315 14.4923 17.4514 14.4564 17.4753 14.4165C17.4993 14.3766 17.5192 14.3328 17.5352 14.2849C17.9339 13.6309 18.4643 13.1764 19.1262 12.9211C19.7882 12.6659 20.5817 12.6899 21.5068 12.9929Z" fill="#732FCB"/>
</svg>
