<svg width="50" height="50" viewBox="0 0 50 50" fill="none" xmlns="http://www.w3.org/2000/svg">
<path d="M36.7476 12.75C36.8752 12.75 36.9828 12.7899 37.0706 12.8696C37.1583 12.9494 37.2181 13.0451 37.25 13.1567V13.2524V36.7476C37.25 36.8752 37.2101 36.9828 37.1304 37.0706C37.0506 37.1583 36.9549 37.2181 36.8433 37.25H36.7476H34.4985C34.355 37.25 34.2354 37.2021 34.1396 37.1064C34.0439 37.0107 33.9961 36.8911 33.9961 36.7476C33.9961 36.62 34.036 36.5083 34.1157 36.4126C34.1955 36.3169 34.2912 36.2611 34.4028 36.2451L34.4985 36.2212H36.2212V13.7788H13.7788V36.2212H16.0996V21.6982C16.0996 21.0283 16.3309 20.4501 16.7935 19.9636C17.256 19.4771 17.8223 19.21 18.4922 19.1621H18.6597H26.8662C27.5521 19.1621 28.1383 19.3934 28.6248 19.856C29.1112 20.3185 29.3784 20.8768 29.4263 21.5308V21.6982V36.2212H32.2734C32.401 36.2212 32.5087 36.2611 32.5964 36.3408C32.6842 36.4206 32.744 36.5243 32.7759 36.6519V36.7476C32.7759 36.8752 32.736 36.9828 32.6562 37.0706C32.5765 37.1583 32.4808 37.2181 32.3691 37.25H32.2734H13.2524C13.1248 37.25 13.0172 37.2101 12.9294 37.1304C12.8417 37.0506 12.7819 36.9549 12.75 36.8433V36.7476V13.2524C12.75 13.1248 12.7899 13.0172 12.8696 12.9294C12.9494 12.8417 13.0451 12.7819 13.1567 12.75H13.2524H36.7476ZM26.8662 20.167H18.6597C18.2609 20.167 17.914 20.3026 17.6189 20.5737C17.3238 20.8449 17.1603 21.1719 17.1284 21.5547V21.6982V36.2212H28.3975V21.6982C28.3975 21.2995 28.2659 20.9565 28.0027 20.6694C27.7395 20.3823 27.4085 20.2228 27.0098 20.1909L26.8662 20.167ZM22.7749 21.7939C22.8866 21.7939 22.9902 21.8338 23.0859 21.9136C23.1816 21.9933 23.2454 22.089 23.2773 22.2007V22.2964V34.5942C23.2773 34.7378 23.2255 34.8614 23.1218 34.9651C23.0181 35.0688 22.9025 35.1206 22.7749 35.1206C22.6473 35.1206 22.5356 35.0807 22.4399 35.001C22.3442 34.9212 22.2884 34.8175 22.2725 34.6899L22.2485 34.5942V22.2964C22.2485 22.1528 22.3004 22.0332 22.4041 21.9375C22.5077 21.8418 22.6313 21.7939 22.7749 21.7939ZM34.02 27.7754C34.1157 27.8711 34.1715 27.9788 34.1875 28.0984C34.2035 28.218 34.1795 28.3257 34.1157 28.4214L34.0439 28.4932L33.0391 29.5698C32.9593 29.6655 32.8556 29.7174 32.728 29.7253C32.6004 29.7333 32.4888 29.7054 32.3931 29.6416L32.3213 29.5698L31.2686 28.5171C31.1729 28.4054 31.125 28.2818 31.125 28.1462C31.125 28.0107 31.1729 27.895 31.2686 27.7993C31.3643 27.7036 31.4719 27.6518 31.5916 27.6438C31.7112 27.6358 31.8268 27.6637 31.9385 27.7275L32.0103 27.7993L32.6802 28.4932L33.3022 27.7993C33.3979 27.7036 33.5176 27.6518 33.6611 27.6438C33.8047 27.6358 33.9243 27.6797 34.02 27.7754ZM32.3931 23.4688C32.4888 23.389 32.6004 23.3571 32.728 23.373C32.8556 23.389 32.9593 23.4448 33.0391 23.5405L34.0439 24.5933L34.1157 24.689C34.1795 24.7847 34.2035 24.8923 34.1875 25.012C34.1715 25.1316 34.1157 25.2393 34.02 25.335C33.9243 25.4307 33.8047 25.4745 33.6611 25.4666C33.5176 25.4586 33.3979 25.4067 33.3022 25.311L32.6802 24.6172L32.0103 25.311L31.9385 25.3589C31.8268 25.4386 31.7112 25.4745 31.5916 25.4666C31.4719 25.4586 31.3643 25.4067 31.2686 25.311C31.1729 25.2153 31.125 25.0957 31.125 24.9521C31.125 24.8086 31.1729 24.689 31.2686 24.5933L32.3213 23.5405L32.3931 23.4688Z" fill="#732FCB"/>
</svg>
