<svg width="50" height="50" viewBox="0 0 50 50" fill="none" xmlns="http://www.w3.org/2000/svg">
<path d="M24.0312 32.2974C24.0312 32.4409 23.9794 32.5645 23.8757 32.6682C23.7721 32.7719 23.6484 32.8237 23.5049 32.8237C23.3613 32.8237 23.2417 32.7719 23.146 32.6682C23.0503 32.5645 23.0024 32.4409 23.0024 32.2974C23.0024 32.1538 23.0503 32.0342 23.146 31.9385C23.2417 31.8428 23.3613 31.7949 23.5049 31.7949C23.6484 31.7949 23.7721 31.8428 23.8757 31.9385C23.9794 32.0342 24.0312 32.1538 24.0312 32.2974ZM27.0938 32.2974C27.0938 32.4409 27.0419 32.5645 26.9382 32.6682C26.8346 32.7719 26.7109 32.8237 26.5674 32.8237C26.4238 32.8237 26.3042 32.7719 26.2085 32.6682C26.1128 32.5645 26.0649 32.4409 26.0649 32.2974C26.0649 32.1538 26.1128 32.0342 26.2085 31.9385C26.3042 31.8428 26.4238 31.7949 26.5674 31.7949C26.7109 31.7949 26.8346 31.8428 26.9382 31.9385C27.0419 32.0342 27.0938 32.1538 27.0938 32.2974ZM24.0312 34.355C24.0312 34.4826 23.9794 34.5982 23.8757 34.7019C23.7721 34.8056 23.6484 34.8574 23.5049 34.8574C23.3613 34.8574 23.2417 34.8056 23.146 34.7019C23.0503 34.5982 23.0024 34.4826 23.0024 34.355C23.0024 34.2114 23.0503 34.0878 23.146 33.9841C23.2417 33.8805 23.3613 33.8286 23.5049 33.8286C23.6484 33.8286 23.7721 33.8805 23.8757 33.9841C23.9794 34.0878 24.0312 34.2114 24.0312 34.355ZM27.0938 34.355C27.0938 34.4826 27.0419 34.5982 26.9382 34.7019C26.8346 34.8056 26.7109 34.8574 26.5674 34.8574C26.4238 34.8574 26.3042 34.8056 26.2085 34.7019C26.1128 34.5982 26.0649 34.4826 26.0649 34.355C26.0649 34.2114 26.1128 34.0878 26.2085 33.9841C26.3042 33.8805 26.4238 33.8286 26.5674 33.8286C26.7109 33.8286 26.8346 33.8805 26.9382 33.9841C27.0419 34.0878 27.0938 34.2114 27.0938 34.355ZM24.0312 36.3887C24.0312 36.5322 23.9794 36.6519 23.8757 36.7476C23.7721 36.8433 23.6484 36.8911 23.5049 36.8911C23.3613 36.8911 23.2417 36.8433 23.146 36.7476C23.0503 36.6519 23.0024 36.5322 23.0024 36.3887C23.0024 36.2451 23.0503 36.1255 23.146 36.0298C23.2417 35.9341 23.3613 35.8862 23.5049 35.8862C23.6484 35.8862 23.7721 35.9341 23.8757 36.0298C23.9794 36.1255 24.0312 36.2451 24.0312 36.3887ZM27.0938 36.3887C27.0938 36.5322 27.0419 36.6519 26.9382 36.7476C26.8346 36.8433 26.7109 36.8911 26.5674 36.8911C26.4238 36.8911 26.3042 36.8433 26.2085 36.7476C26.1128 36.6519 26.0649 36.5322 26.0649 36.3887C26.0649 36.2451 26.1128 36.1255 26.2085 36.0298C26.3042 35.9341 26.4238 35.8862 26.5674 35.8862C26.7109 35.8862 26.8346 35.9341 26.9382 36.0298C27.0419 36.1255 27.0938 36.2451 27.0938 36.3887ZM28.1943 12.9175H22.3804C21.6785 12.9175 21.0764 13.1647 20.574 13.6592C20.0715 14.1536 19.8203 14.7518 19.8203 15.4536V17.6069C19.8203 17.7505 19.8722 17.8701 19.9758 17.9658C20.0795 18.0615 20.2031 18.1094 20.3467 18.1094H30.228C30.3716 18.1094 30.4952 18.0615 30.5989 17.9658C30.7026 17.8701 30.7544 17.7505 30.7544 17.6069V15.4536C30.7544 14.7518 30.5032 14.1536 30.0007 13.6592C29.4983 13.1647 28.8962 12.9175 28.1943 12.9175ZM28.1943 13.9224L28.3379 13.9463C28.7207 13.9782 29.0477 14.1377 29.3188 14.4248C29.59 14.7119 29.7256 15.0548 29.7256 15.4536V17.0806H20.8491V15.4536C20.8491 15.0389 20.9967 14.68 21.2917 14.377C21.5868 14.0739 21.9497 13.9224 22.3804 13.9224H28.1943ZM29.6777 19.21C29.8213 19.2259 29.9369 19.2897 30.0247 19.4014C30.1124 19.513 30.1403 19.6406 30.1084 19.7842C29.9648 20.8529 29.7495 21.7939 29.4624 22.6074C29.1912 23.4209 28.8483 24.0988 28.4336 24.6411C28.0189 25.1834 27.5483 25.5981 27.022 25.8853C26.4797 26.1564 25.8735 26.292 25.2036 26.292C24.5337 26.292 23.9355 26.1564 23.4092 25.8853C22.8828 25.5981 22.4242 25.1794 22.0334 24.6292C21.6427 24.0789 21.3276 23.397 21.0884 22.5835C20.8332 21.77 20.6497 20.8289 20.5381 19.7603C20.5221 19.6327 20.558 19.513 20.6458 19.4014C20.7335 19.2897 20.8491 19.2259 20.9927 19.21C21.1362 19.194 21.2598 19.2299 21.3635 19.3176C21.4672 19.4054 21.527 19.521 21.543 19.6646C21.7503 21.5786 22.1611 22.9902 22.7751 23.8994C23.3892 24.8086 24.1987 25.2632 25.2036 25.2632C26.2244 25.2632 27.0618 24.8046 27.7158 23.8875C28.3698 22.9703 28.8324 21.5547 29.1035 19.6406C29.1195 19.513 29.1753 19.4093 29.271 19.3296C29.3667 19.2498 29.4784 19.21 29.606 19.21H29.6777ZM28.9839 28.6128C28.952 28.214 28.7925 27.8831 28.5054 27.6199C28.2183 27.3567 27.8753 27.2251 27.4766 27.2251H22.5239H22.3804C21.9976 27.257 21.6706 27.4205 21.3994 27.7156C21.1283 28.0107 20.9927 28.3576 20.9927 28.7563V29.1152H19.4375L19.2222 29.1392C17.994 29.187 16.9572 29.6536 16.1118 30.5388C15.2664 31.4241 14.8438 32.4808 14.8438 33.709V36.5801V36.6758C14.8597 36.7874 14.9155 36.8831 15.0112 36.9629C15.1069 37.0426 15.2186 37.0825 15.3462 37.0825C15.4897 37.0825 15.6094 37.0347 15.7051 36.939C15.8008 36.8433 15.8486 36.7236 15.8486 36.5801V33.709L15.8726 33.5176C15.9204 32.5765 16.2873 31.779 16.9731 31.125C17.659 30.471 18.4805 30.144 19.4375 30.144H30.7783C31.7194 30.1919 32.5169 30.5627 33.1709 31.2566C33.8249 31.9504 34.1519 32.7679 34.1519 33.709V36.5801V36.6758C34.1678 36.7874 34.2236 36.8831 34.3193 36.9629C34.415 37.0426 34.5267 37.0825 34.6543 37.0825C34.7979 37.0825 34.9175 37.0347 35.0132 36.939C35.1089 36.8433 35.1567 36.7236 35.1567 36.5801V33.709V33.4937C35.1089 32.2814 34.6423 31.2486 33.7571 30.3953C32.8718 29.5419 31.8071 29.1152 30.563 29.1152H29.0078V28.7563L28.9839 28.6128ZM27.979 29.1152V28.7563C27.979 28.6287 27.9391 28.5171 27.8594 28.4214C27.7796 28.3257 27.6839 28.2699 27.5723 28.2539L27.4766 28.23H22.5239C22.3963 28.23 22.2887 28.2699 22.2009 28.3496C22.1132 28.4294 22.0534 28.533 22.0215 28.6606V28.7563V29.1152H27.979Z" fill="#732FCB"/>
</svg>
