<svg width="50" height="50" viewBox="0 0 50 50" fill="none" xmlns="http://www.w3.org/2000/svg">
<path d="M25.6821 13.2166C27.1336 13.2166 28.5054 13.4957 29.7974 14.054C31.0734 14.5963 32.1979 15.338 33.1709 16.2791C34.1439 17.2201 34.9175 18.3207 35.4917 19.5808C36.0659 20.8569 36.369 22.2126 36.4009 23.6482V23.9353V36.281C36.4009 36.4086 36.361 36.5163 36.2812 36.604C36.2015 36.6917 36.1058 36.7515 35.9941 36.7834H35.8984H32.2378C32.0942 36.7834 31.9746 36.7356 31.8789 36.6399C31.7832 36.5442 31.7354 36.4246 31.7354 36.281C31.7354 36.1534 31.7752 36.0417 31.855 35.946C31.9347 35.8503 32.0304 35.7945 32.1421 35.7786L32.2378 35.7546H35.396V24.5574C35.3481 24.5414 35.3043 24.5255 35.2644 24.5095C35.2245 24.4936 35.1886 24.4776 35.1567 24.4617C34.6623 24.1108 34.0243 23.7758 33.2427 23.4568C32.4771 23.1378 31.6436 22.8507 30.7424 22.5955C29.8412 22.3403 28.9201 22.1249 27.979 21.9495C27.022 21.774 26.1208 21.6624 25.2754 21.6145C24.1748 21.5507 23.13 21.5986 22.1411 21.7581C21.1522 21.9176 20.2111 22.1927 19.3179 22.5835C18.4246 22.9743 17.5872 23.4807 16.8057 24.1028C16.0241 24.7249 15.2983 25.4586 14.6284 26.304V35.7546H28.6968C28.8244 35.7546 28.936 35.7945 29.0317 35.8743C29.1274 35.954 29.1833 36.0577 29.1992 36.1853L29.2231 36.281C29.2231 36.4086 29.1833 36.5163 29.1035 36.604C29.0238 36.6917 28.9201 36.7515 28.7925 36.7834H28.6968H14.126C14.126 36.7834 14.118 36.7834 14.1021 36.7834C13.9904 36.7834 13.8867 36.7436 13.791 36.6638C13.6953 36.5841 13.6395 36.4884 13.6235 36.3767L13.5996 36.281V23.9353C13.5996 23.8236 13.6036 23.708 13.6116 23.5884C13.6195 23.4688 13.6235 23.3451 13.6235 23.2175C13.6235 23.2016 13.6195 23.1816 13.6116 23.1577C13.6036 23.1338 13.5996 23.1059 13.5996 23.074C13.5996 23.0261 13.6036 22.9823 13.6116 22.9424C13.6195 22.9025 13.6395 22.8666 13.6714 22.8347V22.7869C13.8149 21.4789 14.1818 20.2507 14.772 19.1023C15.3621 17.9539 16.1158 16.949 17.033 16.0876C17.9501 15.2263 19.0068 14.5484 20.2031 14.054C21.3994 13.5435 22.6755 13.2724 24.0312 13.2405L24.3184 13.2166H25.6821ZM17.1406 26.6868C18.8154 26.1764 20.3467 25.8015 21.7344 25.5623C23.138 25.323 24.4579 25.2074 25.6941 25.2153C26.9303 25.2233 28.1226 25.3549 29.271 25.6101C30.4354 25.8813 31.6237 26.2481 32.8359 26.7107C32.9316 26.7426 33.0114 26.8024 33.0752 26.8901C33.139 26.9779 33.1709 27.0776 33.1709 27.1892V33.0989C33.1709 33.2424 33.1191 33.3621 33.0154 33.4578C32.9117 33.5535 32.7961 33.6013 32.6685 33.6013C32.6366 33.6013 32.6126 33.6013 32.5967 33.6013C32.5807 33.6013 32.5648 33.6013 32.5488 33.6013C31.1292 33.3142 29.8014 33.1148 28.5652 33.0032C27.329 32.8915 26.0729 32.8516 24.7969 32.8835C24.765 32.8835 24.7371 32.8875 24.7131 32.8955C24.6892 32.9035 24.6613 32.9075 24.6294 32.9075C24.5975 32.9075 24.5696 32.9075 24.5457 32.9075C24.5217 32.9075 24.4938 32.8995 24.4619 32.8835C23.8717 32.8995 23.2696 32.9314 22.6555 32.9792C22.0414 33.0271 21.4074 33.0909 20.7534 33.1707L18.8872 33.3621C18.8394 33.3621 18.7915 33.366 18.7437 33.374C18.6958 33.382 18.6479 33.386 18.6001 33.386L18.1216 33.4338C18.0897 33.4338 18.0538 33.4338 18.0139 33.4338C17.974 33.4338 17.9382 33.4338 17.9062 33.4338L17.4756 33.4578H17.2842C17.1406 33.4578 17.021 33.4099 16.9253 33.3142C16.8296 33.2185 16.7817 33.0989 16.7817 32.9553V27.1892C16.7817 27.0776 16.8136 26.9739 16.8774 26.8782C16.9412 26.7825 17.029 26.7187 17.1406 26.6868ZM29.1992 26.6389V26.6628L29.2231 26.7585V32.0222C29.5741 32.0701 29.9329 32.1179 30.2998 32.1658C30.6667 32.2136 31.0335 32.2694 31.4004 32.3333L32.1421 32.4768V27.5481L31.7832 27.4045C31.4323 27.2769 31.0495 27.1493 30.6348 27.0217C30.2201 26.8941 29.7894 26.7825 29.3428 26.6868L29.1992 26.6389ZM20.0356 26.95C19.7645 27.0138 19.4973 27.0815 19.2341 27.1533C18.9709 27.2251 18.6958 27.3009 18.4087 27.3806L17.7866 27.572V32.429H17.8584L18.2891 32.3811L18.7915 32.3572L20.0356 32.2136V26.95ZM24.103 26.28C23.6245 26.3119 23.13 26.3638 22.6196 26.4355C22.1092 26.5073 21.5828 26.607 21.0405 26.7346V26.7585V32.094L21.3276 32.0701C21.8062 32.0222 22.2767 31.9823 22.7393 31.9504C23.2018 31.9185 23.6564 31.8946 24.103 31.8787V26.28ZM28.29 26.4714C27.8594 26.3917 27.4048 26.3319 26.9263 26.292C26.4478 26.2521 25.9613 26.2322 25.4668 26.2322C25.403 26.2322 25.3432 26.2322 25.2874 26.2322C25.2315 26.2322 25.1717 26.2322 25.1079 26.2322H25.1318V31.8547C25.2116 31.8547 25.2993 31.8507 25.395 31.8428C25.4907 31.8348 25.5864 31.8308 25.6821 31.8308C26.1128 31.8308 26.5474 31.8428 26.9861 31.8667C27.4247 31.8906 27.8674 31.9185 28.314 31.9504L28.1943 31.9265V26.7585C28.1943 26.7107 28.1983 26.6628 28.2063 26.615C28.2143 26.5671 28.2342 26.5273 28.2661 26.4954L28.29 26.4714ZM14.748 23.074L14.6523 23.2175C14.6523 23.2813 14.6484 23.3491 14.6404 23.4209C14.6324 23.4927 14.6284 23.5684 14.6284 23.6482V23.6721V23.9353V24.7488C15.0112 24.3341 15.414 23.9473 15.8367 23.5884C16.2594 23.2295 16.702 22.8985 17.1646 22.5955L17.2363 22.5476V20.7292C16.7578 21.0802 16.3152 21.447 15.9084 21.8298C15.5017 22.2126 15.1229 22.6194 14.772 23.05L14.748 23.074ZM25.6821 14.2454H24.3184C23.2178 14.2454 22.165 14.4208 21.1602 14.7717C20.1553 15.1226 19.2421 15.6131 18.4207 16.2432C17.5992 16.8732 16.8934 17.6189 16.3032 18.4802C15.7131 19.3416 15.2744 20.2826 14.9873 21.3035C15.3382 20.9526 15.7051 20.6216 16.0879 20.3105C16.4707 19.9995 16.8615 19.7164 17.2603 19.4612L17.4038 19.3894C17.4198 19.3735 17.4397 19.3575 17.4636 19.3416C17.4875 19.3256 17.5075 19.3176 17.5234 19.3176C18.0817 18.9667 18.6639 18.6716 19.27 18.4324C19.8921 18.1931 20.5261 17.9977 21.1721 17.8462C21.8181 17.6947 22.492 17.595 23.1938 17.5471C23.8797 17.4993 24.5895 17.4993 25.3232 17.5471C26.1367 17.595 26.9103 17.6747 27.644 17.7864C28.3937 17.8821 29.1075 18.0177 29.7854 18.1931C30.4633 18.3686 31.1053 18.5759 31.7114 18.8152C32.3175 19.0385 32.8918 19.3017 33.4341 19.6047C33.5298 19.6366 33.6016 19.6965 33.6494 19.7842C33.6973 19.8719 33.7212 19.9636 33.7212 20.0593C33.7212 20.2029 33.6733 20.3225 33.5776 20.4182C33.4819 20.5139 33.3623 20.5618 33.2188 20.5618C33.1709 20.5618 33.127 20.5578 33.0872 20.5498C33.0473 20.5418 33.0034 20.5219 32.9556 20.49L32.7642 20.3943V22.1648C33.2586 22.3562 33.7292 22.5516 34.1758 22.751C34.6224 22.9504 35.0212 23.1617 35.3721 23.385C35.2923 22.1249 34.9972 20.9526 34.4868 19.8679C33.9764 18.7673 33.2985 17.8063 32.4531 16.9849C31.6077 16.1634 30.6268 15.5134 29.5103 15.0349C28.4097 14.5404 27.2293 14.2773 25.9692 14.2454H25.6821ZM18.2412 20.0593V21.9734C18.6878 21.7501 19.1424 21.5507 19.605 21.3752C20.0675 21.1998 20.5381 21.0562 21.0166 20.9446V18.9348C20.4902 19.0784 19.9958 19.2458 19.5332 19.4373C19.0706 19.6287 18.624 19.844 18.1934 20.0833L18.2412 20.0593ZM29.1753 19.1023V21.1599C29.7176 21.2716 30.2081 21.3872 30.6467 21.5068C31.0854 21.6265 31.52 21.7501 31.9507 21.8777L31.7354 21.8298V19.9158C31.3366 19.7563 30.9259 19.6087 30.5032 19.4731C30.0805 19.3376 29.6379 19.2139 29.1753 19.1023ZM25.6104 18.5759V20.4182C25.6104 20.4501 25.6064 20.486 25.5984 20.5259C25.5904 20.5658 25.5785 20.5937 25.5625 20.6096H25.3232C25.7699 20.6256 26.2324 20.6654 26.7109 20.7292C27.1895 20.793 27.6759 20.8648 28.1704 20.9446V18.887C27.8035 18.8232 27.4088 18.7633 26.9861 18.7075C26.5634 18.6517 26.1287 18.6078 25.6821 18.5759H25.6104ZM22.0215 18.7195L22.0454 18.7434V20.7532C22.4442 20.6734 22.8589 20.6216 23.2896 20.5977C23.7202 20.5737 24.1589 20.5618 24.6055 20.5618V20.5139L24.5815 20.4182V18.5281C24.1349 18.5281 23.7003 18.54 23.2776 18.564C22.8549 18.5879 22.4362 18.6397 22.0215 18.7195Z" fill="#732FCB"/>
</svg>
