<svg width="50" height="50" viewBox="0 0 50 50" fill="none" xmlns="http://www.w3.org/2000/svg">
<path d="M24.9995 13.2644C26.132 13.2644 27.097 13.6632 27.8945 14.4607C28.6921 15.2582 29.0908 16.2232 29.0908 17.3557C29.0908 18.1373 28.8875 18.8511 28.4807 19.4971C28.074 20.1431 27.5516 20.6335 26.9136 20.9685V24.5095H28.5645C28.6921 24.5095 28.8037 24.5494 28.8994 24.6292C28.9951 24.7089 29.0509 24.8046 29.0669 24.9163L29.0908 25.012V25.5144H34.187C34.8569 25.5144 35.4391 25.7457 35.9336 26.2083C36.4281 26.6708 36.6912 27.2371 36.7231 27.907L36.7471 28.0745V36.2092C36.7471 36.3528 36.6952 36.4764 36.5916 36.5801C36.4879 36.6838 36.3643 36.7356 36.2207 36.7356C36.0931 36.7356 35.9854 36.6957 35.8977 36.616C35.81 36.5362 35.7502 36.4325 35.7183 36.3049V36.2092V28.0745C35.7183 27.6757 35.5867 27.3328 35.3235 27.0457C35.0603 26.7585 34.7293 26.5911 34.3306 26.5432H34.187H29.0908V28.5769H32.1533C32.5521 28.5769 32.895 28.7125 33.1821 28.9836C33.4692 29.2548 33.6287 29.5818 33.6606 29.9646L33.6846 30.1082V36.2092C33.6846 36.3528 33.6327 36.4764 33.5291 36.5801C33.4254 36.6838 33.3018 36.7356 33.1582 36.7356C33.0306 36.7356 32.9229 36.6957 32.8352 36.616C32.7475 36.5362 32.6877 36.4325 32.6558 36.3049V36.2092V30.1082C32.6558 29.9806 32.6159 29.8729 32.5361 29.7852C32.4564 29.6974 32.3607 29.6376 32.249 29.6057H32.1533H29.0908V30.1082C29.0908 30.2358 29.0509 30.3474 28.9712 30.4431C28.8914 30.5388 28.7878 30.5946 28.6602 30.6106L28.5645 30.6345H21.4346C21.291 30.6345 21.1674 30.5827 21.0637 30.479C20.96 30.3753 20.9082 30.2517 20.9082 30.1082V29.6057H17.8457H17.75C17.6383 29.6376 17.5426 29.6974 17.4629 29.7852C17.3831 29.8729 17.3433 29.9806 17.3433 30.1082V36.2092V36.3049C17.3114 36.4325 17.2515 36.5362 17.1638 36.616C17.0761 36.6957 16.9684 36.7356 16.8408 36.7356C16.6973 36.7356 16.5736 36.6838 16.47 36.5801C16.3663 36.4764 16.3145 36.3528 16.3145 36.2092V30.1082L16.3384 29.9646C16.3703 29.5818 16.5298 29.2548 16.8169 28.9836C17.104 28.7125 17.4469 28.5769 17.8457 28.5769H20.9082V26.5432H15.812H15.6685C15.2697 26.5911 14.9387 26.7585 14.6755 27.0457C14.4124 27.3328 14.2808 27.6757 14.2808 28.0745V36.2092V36.3049C14.2489 36.4325 14.189 36.5362 14.1013 36.616C14.0136 36.6957 13.9059 36.7356 13.7783 36.7356C13.6348 36.7356 13.5111 36.6838 13.4075 36.5801C13.3038 36.4764 13.252 36.3528 13.252 36.2092V28.0745L13.2759 27.907C13.3078 27.2371 13.571 26.6708 14.0654 26.2083C14.5599 25.7457 15.1421 25.5144 15.812 25.5144H20.9082V25.012C20.9082 24.8684 20.96 24.7488 21.0637 24.6531C21.1674 24.5574 21.291 24.5095 21.4346 24.5095H23.1572V20.9924C22.5192 20.6734 21.9968 20.2109 21.5901 19.6047C21.1833 18.9986 20.964 18.3207 20.9321 17.571L20.9082 17.3557C20.9082 16.2232 21.307 15.2582 22.1045 14.4607C22.902 13.6632 23.867 13.2644 24.9995 13.2644ZM28.062 25.5144H21.937V29.6057H28.062V25.5144ZM25.8848 24.5095V21.3513C25.7412 21.3832 25.5977 21.4071 25.4541 21.4231C25.3105 21.439 25.159 21.447 24.9995 21.447C24.856 21.447 24.7164 21.439 24.5808 21.4231C24.4452 21.4071 24.3136 21.3832 24.186 21.3513V24.5095H25.8848ZM24.9995 14.2932C24.1541 14.2932 23.4324 14.5923 22.8342 15.1904C22.2361 15.7886 21.937 16.5103 21.937 17.3557C21.937 18.2011 22.2361 18.9229 22.8342 19.521C23.4324 20.1191 24.1541 20.4182 24.9995 20.4182C25.8449 20.4182 26.5667 20.1191 27.1648 19.521C27.7629 18.9229 28.062 18.2011 28.062 17.3557C28.062 16.5103 27.7629 15.7886 27.1648 15.1904C26.5667 14.5923 25.8449 14.2932 24.9995 14.2932ZM23.8271 16.0398L23.8989 16.0876L25.2627 16.925C25.3903 16.9889 25.4701 17.0925 25.502 17.2361C25.5339 17.3796 25.5099 17.5072 25.4302 17.6189C25.3664 17.7306 25.2747 17.8063 25.155 17.8462C25.0354 17.8861 24.9198 17.8821 24.8081 17.8342L24.7363 17.7864L23.3726 16.949C23.245 16.8852 23.1652 16.7855 23.1333 16.6499C23.1014 16.5143 23.1253 16.3827 23.2051 16.2551C23.2689 16.1435 23.3606 16.0677 23.4802 16.0278C23.5999 15.988 23.7155 15.9919 23.8271 16.0398Z" fill="#732FCB"/>
</svg>
