<svg width="50" height="50" viewBox="0 0 50 50" fill="none" xmlns="http://www.w3.org/2000/svg">
<path d="M13.9819 33.386H36.0176V19.2937H32.7158L31.9741 21.1838C31.9263 21.2795 31.8545 21.3593 31.7588 21.4231C31.6631 21.4869 31.5594 21.5188 31.4478 21.5188H18.5278C18.4162 21.5188 18.3125 21.4869 18.2168 21.4231C18.1211 21.3593 18.0573 21.2795 18.0254 21.1838L17.2598 19.2937H13.9819V33.386ZM36.5679 34.5105H13.4077C13.2642 34.5105 13.1366 34.4547 13.0249 34.343C12.9132 34.2314 12.8574 34.1038 12.8574 33.9602V18.7195C12.8574 18.5759 12.9132 18.4483 13.0249 18.3367C13.1366 18.225 13.2642 18.1692 13.4077 18.1692H17.6426C17.7542 18.1692 17.8579 18.2011 17.9536 18.2649C18.0493 18.3287 18.1211 18.4164 18.1689 18.5281L18.9106 20.4182H31.0889L31.8306 18.5281C31.8784 18.4164 31.9462 18.3287 32.0339 18.2649C32.1217 18.2011 32.2293 18.1692 32.3569 18.1692H36.5679C36.7274 18.1692 36.863 18.225 36.9746 18.3367C37.0863 18.4483 37.1421 18.5759 37.1421 18.7195V33.9602C37.1421 34.1038 37.0863 34.2314 36.9746 34.343C36.863 34.4547 36.7274 34.5105 36.5679 34.5105ZM20.6572 20.4182H29.3423V19.1741C29.3423 18.9508 29.2665 18.7633 29.115 18.6118C28.9635 18.4603 28.776 18.3845 28.5527 18.3845H21.4229C21.2155 18.3845 21.0361 18.4603 20.8845 18.6118C20.733 18.7633 20.6572 18.9508 20.6572 19.1741V20.4182ZM29.8926 21.5188H20.1069C19.9474 21.5188 19.8118 21.467 19.7002 21.3633C19.5885 21.2596 19.5327 21.128 19.5327 20.9685V19.1741C19.5327 18.6477 19.7201 18.2011 20.095 17.8342C20.4698 17.4674 20.9124 17.2839 21.4229 17.2839H28.5527C29.0791 17.2839 29.5257 17.4674 29.8926 17.8342C30.2594 18.2011 30.4429 18.6477 30.4429 19.1741V20.9685C30.4429 21.128 30.391 21.2596 30.2874 21.3633C30.1837 21.467 30.0521 21.5188 29.8926 21.5188ZM14.8672 18.1692H15.5371V16.614H14.8672V18.1692ZM16.0874 19.2937H14.3169C14.1574 19.2937 14.0218 19.2379 13.9102 19.1262C13.7985 19.0146 13.7427 18.879 13.7427 18.7195V16.0398C13.7427 15.8803 13.7985 15.7487 13.9102 15.645C14.0218 15.5413 14.1574 15.4895 14.3169 15.4895H16.0874C16.2469 15.4895 16.3785 15.5413 16.4822 15.645C16.5859 15.7487 16.6377 15.8803 16.6377 16.0398V18.7195C16.6377 18.879 16.5859 19.0146 16.4822 19.1262C16.3785 19.2379 16.2469 19.2937 16.0874 19.2937ZM34.4624 18.1692H35.1323V16.614H34.4624V18.1692ZM35.6826 19.2937H33.9121C33.7526 19.2937 33.617 19.2379 33.5054 19.1262C33.3937 19.0146 33.3379 18.879 33.3379 18.7195V16.0398C33.3379 15.8803 33.3937 15.7487 33.5054 15.645C33.617 15.5413 33.7526 15.4895 33.9121 15.4895H35.6826C35.8421 15.4895 35.9737 15.5413 36.0774 15.645C36.1811 15.7487 36.2329 15.8803 36.2329 16.0398V18.7195C36.2329 18.879 36.1811 19.0146 36.0774 19.1262C35.9737 19.2379 35.8421 19.2937 35.6826 19.2937ZM33.4575 27.7874H29.4619C29.3024 27.7874 29.1668 27.7355 29.0552 27.6318C28.9435 27.5282 28.8877 27.3966 28.8877 27.2371C28.8877 27.0776 28.9435 26.942 29.0552 26.8303C29.1668 26.7187 29.3024 26.6628 29.4619 26.6628H33.4575C33.617 26.6628 33.7486 26.7187 33.8523 26.8303C33.956 26.942 34.0078 27.0776 34.0078 27.2371C34.0078 27.3966 33.956 27.5282 33.8523 27.6318C33.7486 27.7355 33.617 27.7874 33.4575 27.7874ZM20.5376 27.7874H16.542C16.3825 27.7874 16.2469 27.7355 16.1353 27.6318C16.0236 27.5282 15.9678 27.3966 15.9678 27.2371C15.9678 27.0776 16.0236 26.942 16.1353 26.8303C16.2469 26.7187 16.3825 26.6628 16.542 26.6628H20.5376C20.6971 26.6628 20.8287 26.7187 20.9324 26.8303C21.0361 26.942 21.0879 27.0776 21.0879 27.2371C21.0879 27.3966 21.0361 27.5282 20.9324 27.6318C20.8287 27.7355 20.6971 27.7874 20.5376 27.7874ZM18.5278 29.7971C18.3843 29.7971 18.2567 29.7453 18.145 29.6416C18.0334 29.5379 17.9775 29.4063 17.9775 29.2468V25.2273C17.9775 25.0678 18.0334 24.9322 18.145 24.8206C18.2567 24.7089 18.3843 24.6531 18.5278 24.6531C18.6873 24.6531 18.8229 24.7089 18.9346 24.8206C19.0462 24.9322 19.1021 25.0678 19.1021 25.2273V29.2468C19.1021 29.4063 19.0462 29.5379 18.9346 29.6416C18.8229 29.7453 18.6873 29.7971 18.5278 29.7971Z" fill="#732FCB"/>
</svg>
