<svg width="50" height="50" viewBox="0 0 50 50" fill="none" xmlns="http://www.w3.org/2000/svg">
<path d="M20.3462 14.4607C21.3989 14.4607 22.2682 14.7757 22.9541 15.4058C23.64 16.0358 24.1265 16.949 24.4136 18.1453C24.4455 18.3367 24.4096 18.5161 24.3059 18.6836C24.2022 18.8511 24.0547 18.9508 23.8633 18.9827C23.6719 19.0305 23.4924 19.0026 23.325 18.8989C23.1575 18.7952 23.0578 18.6477 23.0259 18.4563C22.8026 17.5631 22.4756 16.9051 22.0449 16.4824C21.6143 16.0597 21.048 15.8484 20.3462 15.8484C19.6922 15.8484 19.1459 16.0398 18.7073 16.4226C18.2686 16.8054 17.9217 17.3956 17.6665 18.1931L17.5708 18.4802L17.4272 19.0066H13.7188C13.5114 19.0066 13.3399 18.9388 13.2043 18.8032C13.0688 18.6676 13.001 18.5042 13.001 18.3127C13.001 18.1373 13.0568 17.9858 13.1685 17.8582C13.2801 17.7306 13.4157 17.6508 13.5752 17.6189L13.7188 17.595H16.3506L16.3745 17.5232C16.7095 16.5662 17.188 15.8285 17.8101 15.3101C18.4321 14.7917 19.1898 14.5085 20.083 14.4607H20.3462ZM24.9399 12.8816C24.5252 12.8816 24.1504 12.9374 23.8154 13.0491C23.4805 13.1607 23.1854 13.3362 22.9302 13.5754C22.7866 13.703 22.7109 13.8665 22.7029 14.0659C22.6949 14.2653 22.7547 14.4288 22.8823 14.5564C23.0099 14.684 23.1575 14.7598 23.325 14.7837C23.4924 14.8076 23.6479 14.7717 23.7915 14.676L23.8872 14.6042C24.0148 14.5085 24.1624 14.4328 24.3298 14.377C24.4973 14.3211 24.7007 14.2932 24.9399 14.2932C25.3068 14.2932 25.6059 14.365 25.8372 14.5085C26.0684 14.6521 26.2559 14.8834 26.3994 15.2024L26.4712 15.3699L26.6387 15.8484H31.687C31.8784 15.8484 32.0459 15.7806 32.1895 15.645C32.333 15.5094 32.4048 15.3459 32.4048 15.1545C32.4048 14.9791 32.349 14.8276 32.2373 14.7C32.1257 14.5723 31.9821 14.4926 31.8066 14.4607H31.687H27.6196L27.5 14.2454C27.2607 13.8306 26.9457 13.5077 26.5549 13.2764C26.1641 13.0451 25.7056 12.9135 25.1792 12.8816H24.9399ZM14.0298 37.1184C13.8862 37.1184 13.7626 37.0706 13.6589 36.9749C13.5553 36.8792 13.5034 36.7595 13.5034 36.616C13.5034 36.4884 13.5433 36.3767 13.623 36.281C13.7028 36.1853 13.8065 36.1295 13.9341 36.1135H14.0298H14.4365C14.596 35.8902 14.6598 35.5513 14.6279 35.0967C14.596 34.6421 14.4445 34.0559 14.1733 33.3381C14.0617 33.0829 14.1215 32.8796 14.3528 32.728C14.5841 32.5765 14.8034 32.6044 15.0107 32.8118C15.5052 33.3062 15.9438 33.8286 16.3267 34.3789C16.7095 34.9292 17.0285 35.5074 17.2837 36.1135H17.7144C17.8739 35.8583 17.9377 35.4117 17.9058 34.7737C17.8739 34.1357 17.7144 33.3062 17.4272 32.2854C17.3794 32.078 17.4352 31.9026 17.5947 31.759C17.7542 31.6155 17.9377 31.5916 18.145 31.6873C19.1818 32.1498 19.9833 32.752 20.5496 33.4937C21.1158 34.2354 21.4388 35.1086 21.5186 36.1135H21.9731C22.1326 35.8902 22.1965 35.5513 22.1646 35.0967C22.1326 34.6421 21.9811 34.0559 21.71 33.3381C21.6143 33.0829 21.682 32.8796 21.9133 32.728C22.1446 32.5765 22.356 32.6044 22.5474 32.8118C23.0418 33.3062 23.4805 33.8286 23.8633 34.3789C24.2461 34.9292 24.5651 35.5074 24.8203 36.1135H25.251C25.4105 35.8902 25.4823 35.5034 25.4663 34.9531C25.4504 34.4028 25.3307 33.689 25.1074 32.8118L24.9878 32.2854C24.924 32.078 24.9718 31.9026 25.1313 31.759C25.2909 31.6155 25.4743 31.5916 25.6816 31.6873C26.7184 32.1498 27.5199 32.752 28.0862 33.4937C28.6524 34.2354 28.9754 35.1086 29.0552 36.1135H29.127C29.3024 35.8583 29.3861 35.4077 29.3782 34.7617C29.3702 34.1157 29.2546 33.2823 29.0312 32.2615C28.9834 32.0541 29.0432 31.8826 29.2107 31.7471C29.3782 31.6115 29.5576 31.5916 29.749 31.6873C30.7699 32.1498 31.5674 32.752 32.1416 33.4937C32.7158 34.2354 33.0428 35.1086 33.1226 36.1135H33.5771C33.7367 35.8902 33.8005 35.5513 33.7686 35.0967C33.7367 34.6421 33.5851 34.0559 33.314 33.3381C33.2023 33.0829 33.2661 32.8796 33.5054 32.728C33.7446 32.5765 33.96 32.6044 34.1514 32.8118C34.6458 33.3062 35.0845 33.8286 35.4673 34.3789C35.8501 34.9292 36.1691 35.5074 36.4243 36.1135H36.4722C36.6157 36.1135 36.7393 36.1614 36.843 36.2571C36.9467 36.3528 36.9985 36.4724 36.9985 36.616C36.9985 36.7436 36.9587 36.8552 36.8789 36.9509C36.7992 37.0466 36.6955 37.1025 36.5679 37.1184H36.4722H14.0298ZM34.917 35.4197L34.7974 35.2283V35.3479C34.7974 35.4915 34.7894 35.627 34.7734 35.7546C34.7575 35.8822 34.7336 36.0019 34.7017 36.1135H35.2998C35.236 35.9859 35.1762 35.8663 35.1204 35.7546C35.0645 35.643 34.9967 35.5313 34.917 35.4197ZM30.2275 33.0989L30.2515 33.2185C30.3472 33.8406 30.395 34.3909 30.395 34.8694C30.395 35.3479 30.3392 35.7626 30.2275 36.1135H32.0938C32.0299 35.4915 31.8585 34.9412 31.5793 34.4626C31.3002 33.9841 30.8975 33.5614 30.3711 33.1946L30.2275 33.0989ZM26.2319 33.1467L26.3037 33.4099C26.4154 33.9841 26.4752 34.4945 26.4832 34.9412C26.4911 35.3878 26.4473 35.7786 26.3516 36.1135H28.0264C27.9626 35.4915 27.7911 34.9412 27.512 34.4626C27.2328 33.9841 26.8301 33.5614 26.3037 33.1946L26.2319 33.1467ZM23.1934 35.2283V35.3479C23.1934 35.4915 23.1854 35.627 23.1694 35.7546C23.1535 35.8822 23.1296 36.0019 23.0977 36.1135H23.6958C23.632 35.9859 23.5722 35.8663 23.5164 35.7546C23.4605 35.643 23.3927 35.5313 23.313 35.4197L23.1934 35.2283ZM15.6567 35.2283V35.3479C15.6567 35.4915 15.6488 35.627 15.6328 35.7546C15.6169 35.8822 15.5929 36.0019 15.561 36.1135H16.1592C16.0954 35.9859 16.0316 35.8663 15.9678 35.7546C15.904 35.643 15.8402 35.5313 15.7764 35.4197L15.6567 35.2283ZM18.6953 33.1467L18.7671 33.4099C18.8628 33.9841 18.9186 34.4945 18.9346 34.9412C18.9505 35.3878 18.9106 35.7786 18.8149 36.1135H20.4897C20.4259 35.4915 20.2545 34.9412 19.9753 34.4626C19.6962 33.9841 19.2935 33.5614 18.7671 33.1946L18.6953 33.1467ZM20.6572 28.4094C20.7848 28.3297 20.9164 28.3057 21.052 28.3376C21.1876 28.3695 21.2952 28.4493 21.375 28.5769L21.5903 28.9358C21.6701 29.0634 21.694 29.195 21.6621 29.3306C21.6302 29.4661 21.5584 29.5738 21.4468 29.6536C21.3192 29.7174 21.1876 29.7333 21.052 29.7014C20.9164 29.6695 20.8088 29.5977 20.729 29.4861L20.4897 29.1033C20.4259 28.9916 20.41 28.868 20.4419 28.7324C20.4738 28.5968 20.5456 28.4892 20.6572 28.4094ZM24.7485 28.4094C24.8602 28.3297 24.9878 28.3057 25.1313 28.3376C25.2749 28.3695 25.3786 28.4493 25.4424 28.5769L25.6816 28.9358C25.7614 29.0634 25.7853 29.195 25.7534 29.3306C25.7215 29.4661 25.6418 29.5738 25.5142 29.6536C25.4025 29.7174 25.2789 29.7333 25.1433 29.7014C25.0077 29.6695 24.9001 29.5977 24.8203 29.4861L24.5811 29.1033C24.5013 28.9916 24.4774 28.868 24.5093 28.7324C24.5412 28.5968 24.6209 28.4892 24.7485 28.4094ZM29.8447 28.4094C29.9723 28.3297 30.1039 28.3057 30.2395 28.3376C30.3751 28.3695 30.4827 28.4493 30.5625 28.5769L30.7778 28.9358C30.8576 29.0634 30.8815 29.195 30.8496 29.3306C30.8177 29.4661 30.7459 29.5738 30.6343 29.6536C30.5067 29.7174 30.3751 29.7333 30.2395 29.7014C30.1039 29.6695 29.9963 29.5977 29.9165 29.4861L29.6772 29.1033C29.6134 28.9916 29.5975 28.868 29.6294 28.7324C29.6613 28.5968 29.7331 28.4892 29.8447 28.4094ZM33.936 28.4094C34.0477 28.3297 34.1753 28.3057 34.3188 28.3376C34.4624 28.3695 34.5661 28.4493 34.6299 28.5769L34.8691 28.9358C34.9489 29.0634 34.9728 29.195 34.9409 29.3306C34.909 29.4661 34.8293 29.5738 34.7017 29.6536C34.59 29.7174 34.4664 29.7333 34.3308 29.7014C34.1952 29.6695 34.0876 29.5977 34.0078 29.4861L33.7686 29.1033C33.6888 28.9916 33.6649 28.868 33.6968 28.7324C33.7287 28.5968 33.8084 28.4892 33.936 28.4094ZM19.0303 25.8015C19.1579 25.7377 19.2895 25.7218 19.425 25.7537C19.5606 25.7856 19.6683 25.8573 19.748 25.969L20.2744 26.8303C20.3542 26.9579 20.3781 27.0895 20.3462 27.2251C20.3143 27.3607 20.2425 27.4683 20.1309 27.5481C20.0033 27.6119 19.8717 27.6278 19.7361 27.5959C19.6005 27.564 19.4928 27.4923 19.4131 27.3806L18.8867 26.5193C18.807 26.3917 18.783 26.2601 18.8149 26.1245C18.8468 25.9889 18.9186 25.8813 19.0303 25.8015ZM23.1216 25.8015C23.2492 25.7377 23.3808 25.7218 23.5164 25.7537C23.6519 25.7856 23.7516 25.8573 23.8154 25.969L24.3657 26.8303C24.4455 26.9579 24.4694 27.0895 24.4375 27.2251C24.4056 27.3607 24.3258 27.4683 24.1982 27.5481C24.0866 27.6119 23.963 27.6278 23.8274 27.5959C23.6918 27.564 23.5841 27.4923 23.5044 27.3806L22.9541 26.5193C22.8903 26.3917 22.8743 26.2601 22.9062 26.1245C22.9382 25.9889 23.0099 25.8813 23.1216 25.8015ZM28.2178 25.8015C28.3454 25.7377 28.477 25.7218 28.6125 25.7537C28.7481 25.7856 28.8558 25.8573 28.9355 25.969L29.4619 26.8303C29.5417 26.9579 29.5656 27.0895 29.5337 27.2251C29.5018 27.3607 29.43 27.4683 29.3184 27.5481C29.1908 27.6119 29.0592 27.6278 28.9236 27.5959C28.788 27.564 28.6803 27.4923 28.6006 27.3806L28.0742 26.5193C27.9945 26.3917 27.9705 26.2601 28.0024 26.1245C28.0343 25.9889 28.1061 25.8813 28.2178 25.8015ZM32.3091 25.8015C32.4367 25.7377 32.5683 25.7218 32.7039 25.7537C32.8394 25.7856 32.9391 25.8573 33.0029 25.969L33.5532 26.8303C33.633 26.9579 33.6569 27.0895 33.625 27.2251C33.5931 27.3607 33.5133 27.4683 33.3857 27.5481C33.2741 27.6119 33.1505 27.6278 33.0149 27.5959C32.8793 27.564 32.7716 27.4923 32.6919 27.3806L32.1416 26.5193C32.0778 26.3917 32.0618 26.2601 32.0938 26.1245C32.1257 25.9889 32.1974 25.8813 32.3091 25.8015ZM17.4272 23.2175C17.5389 23.1378 17.6625 23.1139 17.7981 23.1458C17.9337 23.1777 18.0413 23.2574 18.1211 23.385L18.6714 24.2463C18.7352 24.358 18.7511 24.4816 18.7192 24.6172C18.6873 24.7528 18.6156 24.8604 18.5039 24.9402C18.3763 25.0199 18.2447 25.0439 18.1091 25.012C17.9736 24.9801 17.8659 24.9003 17.7861 24.7727L17.2598 23.9114C17.18 23.7997 17.1561 23.6721 17.188 23.5286C17.2199 23.385 17.2996 23.2813 17.4272 23.2175ZM21.4946 23.2175C21.6222 23.1378 21.7538 23.1139 21.8894 23.1458C22.025 23.1777 22.1326 23.2574 22.2124 23.385L22.7388 24.2463C22.8185 24.358 22.8424 24.4816 22.8105 24.6172C22.7786 24.7528 22.6989 24.8604 22.5713 24.9402C22.4596 25.0199 22.336 25.0439 22.2004 25.012C22.0649 24.9801 21.9572 24.9003 21.8774 24.7727L21.3271 23.9114C21.2633 23.7997 21.2474 23.6721 21.2793 23.5286C21.3112 23.385 21.383 23.2813 21.4946 23.2175ZM26.6147 23.2175C26.7264 23.1378 26.85 23.1139 26.9856 23.1458C27.1212 23.1777 27.2288 23.2574 27.3086 23.385L27.8589 24.2463C27.9227 24.358 27.9386 24.4816 27.9067 24.6172C27.8748 24.7528 27.8031 24.8604 27.6914 24.9402C27.5638 25.0199 27.4322 25.0439 27.2966 25.012C27.1611 24.9801 27.0534 24.9003 26.9736 24.7727L26.4473 23.9114C26.3675 23.7997 26.3436 23.6721 26.3755 23.5286C26.4074 23.385 26.4871 23.2813 26.6147 23.2175ZM30.6821 23.2175C30.8097 23.1378 30.9413 23.1139 31.0769 23.1458C31.2125 23.1777 31.3202 23.2574 31.3999 23.385L31.9263 24.2463C32.006 24.358 32.0299 24.4816 31.998 24.6172C31.9661 24.7528 31.8864 24.8604 31.7588 24.9402C31.6471 25.0199 31.5235 25.0439 31.3879 25.012C31.2524 24.9801 31.1447 24.9003 31.0649 24.7727L30.5146 23.9114C30.4508 23.7997 30.4349 23.6721 30.4668 23.5286C30.4987 23.385 30.5705 23.2813 30.6821 23.2175ZM15.8003 20.6096C15.9119 20.5458 16.0356 20.5299 16.1711 20.5618C16.3067 20.5937 16.4144 20.6654 16.4941 20.7771L17.0444 21.6384C17.1082 21.766 17.1242 21.8976 17.0923 22.0332C17.0604 22.1688 16.9886 22.2764 16.877 22.3562C16.7493 22.42 16.6178 22.436 16.4822 22.4041C16.3466 22.3722 16.2469 22.3004 16.1831 22.1887L15.6328 21.3274C15.5531 21.1998 15.5291 21.0682 15.561 20.9326C15.5929 20.797 15.6727 20.6894 15.8003 20.6096ZM19.8677 20.6096C19.9953 20.5458 20.1269 20.5299 20.2625 20.5618C20.398 20.5937 20.5057 20.6654 20.5854 20.7771L21.1118 21.6384C21.1916 21.766 21.2155 21.8976 21.1836 22.0332C21.1517 22.1688 21.0799 22.2764 20.9683 22.3562C20.8407 22.42 20.7091 22.436 20.5735 22.4041C20.4379 22.3722 20.3302 22.3004 20.2505 22.1887L19.7241 21.3274C19.6444 21.1998 19.6204 21.0682 19.6523 20.9326C19.6842 20.797 19.756 20.6894 19.8677 20.6096ZM24.9878 20.6096C25.0994 20.5458 25.2231 20.5299 25.3586 20.5618C25.4942 20.5937 25.6019 20.6654 25.6816 20.7771L26.2319 21.6384C26.2957 21.766 26.3117 21.8976 26.2798 22.0332C26.2479 22.1688 26.1761 22.2764 26.0645 22.3562C25.9368 22.42 25.8053 22.436 25.6697 22.4041C25.5341 22.3722 25.4344 22.3004 25.3706 22.1887L24.8203 21.3274C24.7406 21.1998 24.7166 21.0682 24.7485 20.9326C24.7804 20.797 24.8602 20.6894 24.9878 20.6096ZM29.0552 20.6096C29.1828 20.5458 29.3144 20.5299 29.45 20.5618C29.5855 20.5937 29.6932 20.6654 29.7729 20.7771L30.2993 21.6384C30.3791 21.766 30.403 21.8976 30.3711 22.0332C30.3392 22.1688 30.2674 22.2764 30.1558 22.3562C30.0282 22.42 29.8966 22.436 29.761 22.4041C29.6254 22.3722 29.5177 22.3004 29.438 22.1887L28.9116 21.3274C28.8319 21.1998 28.8079 21.0682 28.8398 20.9326C28.8717 20.797 28.9435 20.6894 29.0552 20.6096Z" fill="#732FCB"/>
</svg>
