<svg width="50" height="50" viewBox="0 0 50 50" fill="none" xmlns="http://www.w3.org/2000/svg">
<path d="M27.8115 28.0505L27.8833 28.0745L34.8696 31.1848C34.9494 31.2327 35.0132 31.2885 35.061 31.3523C35.1089 31.4161 35.1408 31.4879 35.1567 31.5676V31.6633V36.5681C35.1567 36.7117 35.1089 36.8353 35.0132 36.939C34.9175 37.0426 34.7979 37.0945 34.6543 37.0945C34.5267 37.0945 34.415 37.0546 34.3193 36.9749C34.2236 36.8951 34.1678 36.7914 34.1519 36.6638V36.5681V33.9124H33.0991C32.4132 33.9124 31.8271 33.6811 31.3406 33.2185C30.8541 32.7559 30.5869 32.1977 30.5391 31.5437V31.3523V30.4431H30.7065L27.8115 29.1511L25.8496 31.3523V36.5681C25.8337 36.7117 25.7778 36.8313 25.6821 36.927C25.5864 37.0227 25.4668 37.0706 25.3232 37.0706C25.1956 37.0706 25.088 37.0307 25.0002 36.9509C24.9125 36.8712 24.8527 36.7755 24.8208 36.6638V36.5681V31.3523L22.6675 29.1511L19.5093 30.467V31.3523C19.5093 31.3523 19.5093 31.3563 19.5093 31.3643C19.5093 31.3722 19.5093 31.3762 19.5093 31.3762C19.5093 32.0461 19.282 32.6243 18.8274 33.1108C18.3728 33.5973 17.8105 33.8645 17.1406 33.9124H16.9731H15.8486V36.5681C15.8486 36.6957 15.8088 36.8074 15.729 36.9031C15.6493 36.9988 15.5535 37.0546 15.4419 37.0706H15.3462C15.2186 37.0706 15.1069 37.0347 15.0112 36.9629C14.9155 36.8911 14.8597 36.7914 14.8438 36.6638V36.5681V31.6633C14.8438 31.5676 14.8637 31.4839 14.9036 31.4121C14.9434 31.3403 14.9953 31.2805 15.0591 31.2327H15.083L15.1548 31.1848L22.5957 28.0745C22.6276 28.0585 22.6595 28.0465 22.6914 28.0386C22.7233 28.0306 22.7632 28.0266 22.811 28.0266C22.8589 28.0266 22.9107 28.0346 22.9666 28.0505C23.0224 28.0665 23.0662 28.0904 23.0981 28.1223L23.1699 28.1941L25.3232 30.3953L27.3091 28.1941C27.3569 28.1462 27.4128 28.1064 27.4766 28.0745C27.5404 28.0426 27.6121 28.0266 27.6919 28.0266C27.7078 28.0266 27.7278 28.0306 27.7517 28.0386C27.7756 28.0465 27.7956 28.0505 27.8115 28.0505ZM31.5679 30.8259V31.3523C31.5679 31.7511 31.6995 32.098 31.9626 32.3931C32.2258 32.6882 32.5488 32.8516 32.9316 32.8835H33.0991H34.1519V31.9983L31.5679 30.8259ZM18.5044 30.8977L15.8486 31.9983V32.8835H16.9731C17.3719 32.8835 17.7148 32.752 18.002 32.4888C18.2891 32.2256 18.4486 31.9026 18.4805 31.5198L18.5044 31.3762V30.8977ZM24.5815 13.1448C24.6294 13.081 24.6892 13.0251 24.761 12.9773C24.8328 12.9294 24.9165 12.9055 25.0122 12.9055C25.0601 12.9055 25.1119 12.9175 25.1677 12.9414C25.2236 12.9653 25.2754 12.9932 25.3232 13.0251C26.0889 13.6632 26.9502 14.1417 27.9072 14.4607C28.8643 14.7797 29.909 14.9392 31.0415 14.9392C31.1851 14.9392 31.3087 14.9871 31.4124 15.0828C31.516 15.1785 31.5679 15.2981 31.5679 15.4417C31.5679 15.4736 31.5639 15.5015 31.5559 15.5254C31.5479 15.5493 31.5439 15.5772 31.5439 15.6091C31.512 15.6889 31.4841 15.7726 31.4602 15.8604C31.4363 15.9481 31.4084 16.0398 31.3765 16.1355L31.209 16.7576L30.9219 17.8342L30.7783 18.4324V18.4563C30.9857 18.9029 31.0216 19.3615 30.886 19.832C30.7504 20.3026 30.4912 20.6734 30.1084 20.9446V20.801C29.9648 21.8697 29.7495 22.8108 29.4624 23.6243C29.1912 24.4218 28.8483 25.0957 28.4336 25.646C28.0189 26.1963 27.5483 26.607 27.022 26.8782C26.4797 27.1653 25.8735 27.3088 25.2036 27.3088C24.5496 27.3088 23.9595 27.1653 23.4331 26.8782C22.9067 26.607 22.4482 26.2003 22.0574 25.658C21.6666 25.1156 21.3436 24.4457 21.0884 23.6482C20.8491 22.8507 20.6657 21.9176 20.5381 20.8489C20.2829 20.6575 20.0795 20.4102 19.928 20.1072C19.7764 19.8041 19.7007 19.4851 19.7007 19.1501C19.7007 19.0385 19.7087 18.9308 19.7246 18.8271C19.7406 18.7235 19.7565 18.6238 19.7725 18.5281V18.552L19.5093 18.0735L19.0786 17.2839L18.5522 16.2791C18.5363 16.2472 18.5243 16.2113 18.5164 16.1714C18.5084 16.1315 18.5044 16.0956 18.5044 16.0637C18.5044 15.9202 18.5443 15.8005 18.624 15.7048C18.7038 15.6091 18.8075 15.5533 18.9351 15.5374C20.4344 15.3459 21.6506 15.0469 22.5837 14.6401C23.5168 14.2334 24.1828 13.7349 24.5815 13.1448ZM25.2036 26.28C26.1447 26.28 26.9263 25.8972 27.5483 25.1316C28.1704 24.366 28.641 23.1856 28.96 21.5906L26.5435 22.8826C26.368 22.9783 26.1806 23.05 25.9812 23.0979C25.7818 23.1458 25.5705 23.1697 25.3472 23.1697C25.1558 23.1697 24.9683 23.1497 24.7849 23.1099C24.6015 23.07 24.43 23.0181 24.2705 22.9543H24.2944L24.103 22.8586L21.6626 21.5188C21.9019 23.1298 22.3206 24.3261 22.9187 25.1077C23.5168 25.8892 24.2785 26.28 25.2036 26.28ZM29.8931 19.0066H20.7295C20.6976 19.2139 20.7255 19.4133 20.8132 19.6047C20.901 19.7961 21.0326 19.9556 21.208 20.0833L21.3037 20.155L24.6055 21.9734C24.7012 22.0372 24.8128 22.085 24.9404 22.1169C25.068 22.1488 25.2036 22.1648 25.3472 22.1648C25.4429 22.1648 25.5386 22.1528 25.6343 22.1289C25.73 22.105 25.8257 22.0771 25.9214 22.0452L26.0649 21.9734L29.3906 20.179C29.5661 20.0833 29.7017 19.9596 29.7974 19.8081C29.8931 19.6566 29.9409 19.4771 29.9409 19.2698C29.9409 19.2219 29.9369 19.1781 29.929 19.1382C29.921 19.0983 29.909 19.0544 29.8931 19.0066ZM25.084 14.1497L25.0361 14.1975C24.5417 14.7558 23.8558 15.2223 22.9785 15.5972C22.1012 15.972 21.0405 16.2551 19.7964 16.4465L20.0835 17.0208L20.4902 17.7385L20.6338 17.9778H29.8452L30.0366 17.1882L30.228 16.4944L30.3716 15.9441H30.2759C29.3029 15.8803 28.3977 15.7088 27.5603 15.4297C26.7229 15.1506 25.9453 14.7558 25.2275 14.2454L25.084 14.1497Z" fill="#732FCB"/>
</svg>
