<svg width="50" height="50" viewBox="0 0 50 50" fill="none" xmlns="http://www.w3.org/2000/svg">
<path d="M24.8081 16.3149C25.6375 16.3149 26.4111 16.4665 27.1289 16.7695C27.8467 17.0885 28.4767 17.5192 29.019 18.0615C29.5614 18.6038 29.984 19.2339 30.2871 19.9517C30.6061 20.6854 30.7656 21.459 30.7656 22.2725C30.7656 22.8307 30.6899 23.377 30.5383 23.9114C30.3868 24.4457 30.1675 24.9442 29.8804 25.4067C29.8963 25.4067 29.9043 25.4147 29.9043 25.4307C29.9043 25.4466 29.9043 25.4626 29.9043 25.4785V25.5503V32.8237C30.1117 32.8237 30.319 32.8477 30.5264 32.8955C30.7337 32.9434 30.9331 33.0151 31.1245 33.1108L31.292 33.2065L31.7705 33.5176V32.9434C31.7705 32.8158 31.8144 32.7081 31.9021 32.6204C31.9898 32.5326 32.0895 32.4728 32.2012 32.4409H32.2969C32.4245 32.4409 32.5321 32.4808 32.6199 32.5605C32.7076 32.6403 32.7674 32.736 32.7993 32.8477V32.9434V36.2212C32.7993 36.3488 32.7594 36.4604 32.6797 36.5562C32.5999 36.6519 32.5042 36.7077 32.3926 36.7236L32.2969 36.7476H17.8457C17.7181 36.7476 17.6064 36.7077 17.5107 36.6279C17.415 36.5482 17.3592 36.4445 17.3433 36.3169L17.3193 36.2212V32.9434C17.3193 32.7998 17.3712 32.6802 17.4749 32.5845C17.5785 32.4888 17.7021 32.4409 17.8457 32.4409C17.9733 32.4409 18.081 32.4808 18.1687 32.5605C18.2564 32.6403 18.3162 32.736 18.3481 32.8477V32.9434V33.5654L19.042 33.1826C19.1696 33.1188 19.2972 33.063 19.4248 33.0151C19.5524 32.9673 19.68 32.9274 19.8076 32.8955V25.5503V25.5264C19.5046 25.0479 19.2693 24.5334 19.1018 23.9832C18.9343 23.4329 18.8506 22.8626 18.8506 22.2725C18.8506 21.459 19.0101 20.6854 19.3291 19.9517C19.6322 19.2339 20.0549 18.6038 20.5972 18.0615C21.1395 17.5192 21.7695 17.0885 22.4873 16.7695C23.2051 16.4665 23.9787 16.3149 24.8081 16.3149ZM19.688 33.9961L19.5444 34.0918L18.3481 34.7378V35.7188H31.7705V34.7139L30.7417 34.0679C30.5024 33.9084 30.2432 33.8326 29.9641 33.8406C29.685 33.8486 29.4338 33.9403 29.2104 34.1157C28.8276 34.3869 28.4129 34.5384 27.9663 34.5703C27.5197 34.6022 27.089 34.5145 26.6743 34.3071L26.5068 34.2114L26.3633 34.1396C26.0921 33.9642 25.797 33.8725 25.478 33.8645C25.159 33.8565 24.8639 33.9163 24.5928 34.0439L24.4014 34.1396C23.9867 34.3949 23.5321 34.5304 23.0376 34.5464C22.5431 34.5623 22.0806 34.4587 21.6499 34.2354L21.4585 34.1396C21.1873 33.9642 20.8962 33.8685 20.5852 33.8525C20.2742 33.8366 19.9751 33.8844 19.688 33.9961ZM28.8994 26.0767H20.8364V32.8477C20.9959 32.8636 21.1594 32.8995 21.3269 32.9553C21.4944 33.0111 21.6579 33.0789 21.8174 33.1587L22.0088 33.2544C22.264 33.4299 22.5471 33.5256 22.8582 33.5415C23.1692 33.5575 23.4603 33.4937 23.7314 33.3501L23.8989 33.2544C24.3296 32.9992 24.7961 32.8636 25.2986 32.8477C25.801 32.8317 26.2756 32.9354 26.7222 33.1587L26.8896 33.2544L27.0332 33.3501C27.2565 33.4777 27.4958 33.5455 27.751 33.5535C28.0062 33.5614 28.2454 33.5016 28.4688 33.374L28.6123 33.2783C28.6602 33.2464 28.708 33.2145 28.7559 33.1826C28.8037 33.1507 28.8595 33.1188 28.9233 33.0869C28.9233 33.0869 28.9194 33.0829 28.9114 33.075C28.9034 33.067 28.8994 33.055 28.8994 33.0391V32.9434V26.0767ZM22.5352 29.4263C22.6787 29.4263 22.7983 29.4781 22.894 29.5818C22.9897 29.6855 23.0376 29.8091 23.0376 29.9526V30.9097C23.0376 31.0532 22.9897 31.1729 22.894 31.2686C22.7983 31.3643 22.6787 31.4121 22.5352 31.4121C22.3916 31.4121 22.272 31.3643 22.1763 31.2686C22.0806 31.1729 22.0327 31.0532 22.0327 30.9097V29.9526C22.0327 29.8091 22.0806 29.6855 22.1763 29.5818C22.272 29.4781 22.3916 29.4263 22.5352 29.4263ZM24.8081 29.4263C24.9517 29.4263 25.0713 29.4781 25.167 29.5818C25.2627 29.6855 25.3105 29.8091 25.3105 29.9526V30.9097C25.3105 31.0532 25.2627 31.1729 25.167 31.2686C25.0713 31.3643 24.9517 31.4121 24.8081 31.4121C24.6646 31.4121 24.5449 31.3643 24.4492 31.2686C24.3535 31.1729 24.3057 31.0532 24.3057 30.9097V29.9526C24.3057 29.8091 24.3535 29.6855 24.4492 29.5818C24.5449 29.4781 24.6646 29.4263 24.8081 29.4263ZM27.0811 29.4263C27.2246 29.4263 27.3442 29.4781 27.4399 29.5818C27.5356 29.6855 27.5835 29.8091 27.5835 29.9526V30.9097C27.5835 31.0532 27.5356 31.1729 27.4399 31.2686C27.3442 31.3643 27.2246 31.4121 27.0811 31.4121C26.9375 31.4121 26.8179 31.3643 26.7222 31.2686C26.6265 31.1729 26.5786 31.0532 26.5786 30.9097V29.9526C26.5786 29.8091 26.6265 29.6855 26.7222 29.5818C26.8179 29.4781 26.9375 29.4263 27.0811 29.4263ZM22.5352 26.3638C22.6787 26.3638 22.7983 26.4156 22.894 26.5193C22.9897 26.623 23.0376 26.7466 23.0376 26.8901V27.895C23.0376 28.0386 22.9897 28.1622 22.894 28.2659C22.7983 28.3695 22.6787 28.4214 22.5352 28.4214C22.3916 28.4214 22.272 28.3695 22.1763 28.2659C22.0806 28.1622 22.0327 28.0386 22.0327 27.895V26.8901C22.0327 26.7466 22.0806 26.623 22.1763 26.5193C22.272 26.4156 22.3916 26.3638 22.5352 26.3638ZM24.8081 26.3638C24.9517 26.3638 25.0713 26.4156 25.167 26.5193C25.2627 26.623 25.3105 26.7466 25.3105 26.8901V27.895C25.3105 28.0386 25.2627 28.1622 25.167 28.2659C25.0713 28.3695 24.9517 28.4214 24.8081 28.4214C24.6646 28.4214 24.5449 28.3695 24.4492 28.2659C24.3535 28.1622 24.3057 28.0386 24.3057 27.895V26.8901C24.3057 26.7466 24.3535 26.623 24.4492 26.5193C24.5449 26.4156 24.6646 26.3638 24.8081 26.3638ZM27.0811 26.3638C27.2246 26.3638 27.3442 26.4156 27.4399 26.5193C27.5356 26.623 27.5835 26.7466 27.5835 26.8901V27.895C27.5835 28.0386 27.5356 28.1622 27.4399 28.2659C27.3442 28.3695 27.2246 28.4214 27.0811 28.4214C26.9375 28.4214 26.8179 28.3695 26.7222 28.2659C26.6265 28.1622 26.5786 28.0386 26.5786 27.895V26.8901C26.5786 26.7466 26.6265 26.623 26.7222 26.5193C26.8179 26.4156 26.9375 26.3638 27.0811 26.3638ZM24.8081 13.2524C26.0044 13.2524 27.1289 13.4757 28.1816 13.9224C29.2344 14.353 30.1555 14.9472 30.9451 15.7048C31.7346 16.4625 32.3527 17.3517 32.7993 18.3726C33.2619 19.3774 33.4932 20.4621 33.4932 21.6265C33.4932 22.6473 33.3097 23.6243 32.9429 24.5574C32.576 25.4905 32.0576 26.3319 31.3877 27.0815C31.292 27.1772 31.1724 27.2291 31.0288 27.2371C30.8853 27.245 30.7656 27.2012 30.6699 27.1055C30.5583 27.0257 30.4985 26.9141 30.4905 26.7705C30.4825 26.627 30.5264 26.4993 30.6221 26.3877C31.2122 25.7337 31.6668 25 31.9858 24.1865C32.3048 23.373 32.4644 22.5197 32.4644 21.6265C32.4644 20.6056 32.265 19.6566 31.8662 18.7793C31.4674 17.8861 30.9211 17.1045 30.2273 16.4346C29.5334 15.7646 28.724 15.2383 27.7988 14.8555C26.8577 14.4727 25.8608 14.2812 24.8081 14.2812C23.7554 14.2812 22.7585 14.4727 21.8174 14.8555C20.8923 15.2383 20.0828 15.7646 19.3889 16.4346C18.6951 17.1045 18.1488 17.8861 17.75 18.7793C17.3512 19.6566 17.1519 20.6056 17.1519 21.6265C17.1519 22.5356 17.3233 23.4129 17.6663 24.2583C18.0092 25.1037 18.4917 25.8613 19.1138 26.5312C19.2095 26.627 19.2533 26.7466 19.2454 26.8901C19.2374 27.0337 19.1855 27.1533 19.0898 27.249C18.9941 27.3447 18.8745 27.3926 18.731 27.3926C18.5874 27.3926 18.4678 27.3368 18.3721 27.2251C17.6543 26.4595 17.1 25.5981 16.7092 24.6411C16.3184 23.6841 16.123 22.6792 16.123 21.6265C16.123 20.4621 16.3543 19.3774 16.8169 18.3726C17.2635 17.3517 17.8816 16.4625 18.6711 15.7048C19.4607 14.9472 20.3818 14.353 21.4346 13.9224C22.4873 13.4757 23.6118 13.2524 24.8081 13.2524ZM24.8081 17.3198C24.1222 17.3198 23.4842 17.4554 22.894 17.7266C22.2879 17.9818 21.7616 18.3327 21.3149 18.7793C20.8683 19.2259 20.5174 19.7523 20.2622 20.3584C20.007 20.9645 19.8794 21.6025 19.8794 22.2725C19.8794 22.7829 19.9512 23.2734 20.0947 23.7439C20.2383 24.2144 20.4456 24.6491 20.7168 25.0479H28.8994L28.9712 24.9282C29.2264 24.5295 29.4178 24.1068 29.5454 23.6602C29.673 23.2135 29.7368 22.751 29.7368 22.2725C29.7368 21.6025 29.6092 20.9645 29.354 20.3584C29.0988 19.7523 28.7479 19.2259 28.3013 18.7793C27.8547 18.3327 27.3283 17.9818 26.7222 17.7266C26.132 17.4554 25.494 17.3198 24.8081 17.3198Z" fill="#732FCB"/>
</svg>
