<svg width="50" height="50" viewBox="0 0 50 50" fill="none" xmlns="http://www.w3.org/2000/svg">
<path d="M24.9375 13.2524C25.5277 13.2524 26.0341 13.4638 26.4568 13.8865C26.8795 14.3092 27.0908 14.8236 27.0908 15.4297C27.0908 15.7008 27.043 15.96 26.9473 16.2073C26.8516 16.4545 26.716 16.6738 26.5405 16.8652C27.4178 17.2002 28.1356 17.7585 28.6938 18.54C29.2521 19.3216 29.5312 20.2148 29.5312 21.2197V22.4399L29.5073 22.8706V22.9424L29.4834 23.0142C29.4834 23.0301 29.4794 23.0461 29.4714 23.062C29.4635 23.078 29.4595 23.0859 29.4595 23.0859L29.4355 23.1338C29.4355 23.1816 29.4316 23.2375 29.4236 23.3013C29.4156 23.3651 29.4116 23.4289 29.4116 23.4927C30.0496 23.5565 30.6358 23.7678 31.1702 24.1267C31.7045 24.4856 32.1152 24.9521 32.4023 25.5264L32.498 25.7178L32.522 25.7656L32.7612 25.8853L33.3354 26.2202L33.8857 26.5073C34.9863 27.1453 35.8078 27.7395 36.3501 28.2898C36.8924 28.8401 37.1636 29.3625 37.1636 29.8569V30.4072V30.5747C37.1476 30.7502 37.1117 30.9216 37.0559 31.0891C37.0001 31.2566 36.9323 31.4201 36.8525 31.5796C36.8844 31.6115 36.9163 31.6514 36.9482 31.6992C36.9801 31.7471 37.02 31.7949 37.0679 31.8428C37.1795 31.9863 37.1995 32.1498 37.1277 32.3333C37.0559 32.5167 36.9323 32.6243 36.7568 32.6562H36.6611H36.1587C36.3182 32.8636 36.4458 33.0989 36.5415 33.3621C36.6372 33.6252 36.6851 33.9004 36.6851 34.1875C36.6851 34.8574 36.4538 35.4396 35.9912 35.9341C35.5286 36.4285 34.9624 36.6917 34.2925 36.7236L34.125 36.7476H31.1821C31.0545 36.7476 30.9389 36.6957 30.8352 36.592C30.7315 36.4884 30.6797 36.3647 30.6797 36.2212C30.6797 36.0936 30.7196 35.9859 30.7993 35.8982C30.8791 35.8105 30.9827 35.7507 31.1104 35.7188H31.1821H34.125C34.5557 35.7188 34.9185 35.5712 35.2136 35.2761C35.5087 34.981 35.6562 34.6182 35.6562 34.1875C35.6562 33.7887 35.5247 33.4458 35.2615 33.1587C34.9983 32.8716 34.6673 32.7041 34.2686 32.6562H34.125H15.75C15.3193 32.6562 14.9565 32.8038 14.6614 33.0989C14.3663 33.394 14.2188 33.7568 14.2188 34.1875C14.2188 34.5863 14.3503 34.9292 14.6135 35.2163C14.8767 35.5034 15.2077 35.6709 15.6064 35.7188H15.75H28.957C29.1006 35.7188 29.2242 35.7666 29.3279 35.8623C29.4316 35.958 29.4834 36.0776 29.4834 36.2212C29.4834 36.3488 29.4435 36.4604 29.3638 36.5562C29.284 36.6519 29.1803 36.7077 29.0527 36.7236L28.957 36.7476H15.75C15.0482 36.7476 14.446 36.4963 13.9436 35.9939C13.4412 35.4915 13.1899 34.8893 13.1899 34.1875C13.1899 33.7887 13.2737 33.4179 13.4412 33.075C13.6086 32.732 13.8359 32.4489 14.123 32.2256C13.7402 31.9704 13.4292 31.6354 13.1899 31.2207C12.9507 30.806 12.8311 30.3514 12.8311 29.8569C12.8311 29.3306 13.1501 28.7803 13.7881 28.2061C14.4261 27.6318 15.3831 27.0098 16.6592 26.3398L16.9941 26.1484L16.9224 26.1006L17.4248 25.3589C17.7438 24.8325 18.1625 24.4098 18.6809 24.0908C19.1993 23.7718 19.7616 23.5724 20.3677 23.4927C20.3677 23.4129 20.3637 23.3332 20.3557 23.2534C20.3477 23.1737 20.3438 23.0939 20.3438 23.0142V21.2197C20.3438 20.2148 20.6229 19.3176 21.1812 18.5281C21.7394 17.7385 22.4572 17.1842 23.3345 16.8652C23.159 16.6738 23.0234 16.4545 22.9277 16.2073C22.832 15.96 22.7842 15.7008 22.7842 15.4297C22.7842 14.8236 22.9955 14.3092 23.4182 13.8865C23.8409 13.4638 24.3473 13.2524 24.9375 13.2524ZM20.8701 26.5312H18.5493L18.334 26.627L17.7358 26.938L17.1855 27.2012L16.6831 27.4883C16.6353 27.5042 16.5914 27.5242 16.5515 27.5481C16.5116 27.572 16.4757 27.5999 16.4438 27.6318L15.9893 27.895C15.3193 28.2938 14.8049 28.6567 14.446 28.9836C14.0872 29.3106 13.8918 29.5778 13.8599 29.7852V29.8569C13.8599 30.3195 14.0194 30.7222 14.3384 31.0652C14.6574 31.4081 15.0402 31.5955 15.4868 31.6274H15.6304H34.9385C35.0182 31.6274 35.102 31.6195 35.1897 31.6035C35.2774 31.5876 35.3612 31.5636 35.4409 31.5317L35.5366 31.6274C35.1698 31.2287 34.8308 30.9256 34.5198 30.7183C34.2087 30.5109 33.9336 30.3993 33.6943 30.3833L33.5747 30.3594C33.1919 30.3594 32.7612 30.4072 32.2827 30.5029C31.8042 30.5986 31.2858 30.7502 30.7275 30.9575C30.6797 30.9575 30.6358 30.9615 30.5959 30.9695C30.5561 30.9775 30.5122 30.9735 30.4644 30.9575L27.7847 30.5269L25.4399 30.144L23.4062 29.8569L22.2578 29.6895L21.4683 29.5938L20.7744 29.522L19.9849 29.4263L19.4824 29.4023L19.2192 29.3784H18.9561H18.8604C18.7168 29.3784 18.5932 29.3266 18.4895 29.2229C18.3858 29.1192 18.334 28.9956 18.334 28.8521C18.334 28.7244 18.3858 28.6088 18.4895 28.5051C18.5932 28.4014 18.7168 28.3496 18.8604 28.3496H18.98H19.2192L19.5303 28.3735L20.0327 28.4214L20.8462 28.4932L21.8032 28.6128L22.1621 28.6606C21.891 28.4054 21.6437 28.1024 21.4204 27.7515C21.1971 27.4006 21.0137 26.9938 20.8701 26.5312ZM28.8374 26.5073V26.5312C28.5822 27.2171 28.2592 27.7913 27.8684 28.2539C27.4776 28.7165 27.0111 29.0594 26.4688 29.2827L28.7896 29.6655L30.5122 29.9287L30.7515 29.8569C31.23 29.7134 31.6806 29.5977 32.1033 29.51C32.526 29.4223 32.9287 29.3704 33.3115 29.3545H33.5747C33.9735 29.3545 34.3802 29.4701 34.7949 29.7014C35.2096 29.9327 35.6483 30.2796 36.1108 30.7422C36.1268 30.6784 36.1388 30.6226 36.1467 30.5747C36.1547 30.5269 36.1587 30.471 36.1587 30.4072V29.8569L36.1348 29.7852C36.1029 29.5618 35.9115 29.2787 35.5605 28.9358C35.2096 28.5929 34.6912 28.214 34.0054 27.7993L33.5747 27.5122C33.5269 27.4963 33.483 27.4763 33.4431 27.4524C33.4032 27.4285 33.3673 27.4006 33.3354 27.3687L32.8091 27.0815L32.2588 26.7944L31.7803 26.5312H29.0288H28.9331C28.9172 26.5153 28.9012 26.5073 28.8853 26.5073C28.8693 26.5073 28.8534 26.5073 28.8374 26.5073ZM24.5068 20.0713C23.8529 20.2786 23.2667 20.6056 22.7483 21.0522C22.2299 21.4989 21.7713 22.0731 21.3726 22.7749C21.3885 24.7687 21.6876 26.2362 22.2698 27.1772C22.852 28.1183 23.7173 28.5809 24.8657 28.5649C25.9344 28.549 26.7678 28.0984 27.366 27.2131C27.9641 26.3279 28.311 24.9681 28.4067 23.1338C28.2153 23.1497 28.0319 23.1577 27.8564 23.1577C27.681 23.1577 27.5055 23.1497 27.3301 23.1338C27.3939 23.1338 27.4497 23.1458 27.4976 23.1697C27.5454 23.1936 27.5853 23.2295 27.6172 23.2773C27.7129 23.389 27.7568 23.5126 27.7488 23.6482C27.7408 23.7838 27.689 23.8994 27.5933 23.9951C27.2583 24.2982 26.9114 24.4617 26.5525 24.4856C26.1936 24.5095 25.8467 24.4019 25.5117 24.1626C25.3841 24.0669 25.3123 23.9513 25.2964 23.8157C25.2804 23.6801 25.3123 23.5565 25.3921 23.4448C25.4718 23.3332 25.5835 23.2654 25.7271 23.2415C25.8706 23.2175 25.9982 23.2454 26.1099 23.3252C26.2534 23.4368 26.381 23.4847 26.4927 23.4688C26.6043 23.4528 26.7399 23.381 26.8994 23.2534C26.9473 23.1896 27.0071 23.1497 27.0789 23.1338C27.1506 23.1178 27.2184 23.1099 27.2822 23.1099C26.5645 22.9982 25.9703 22.6872 25.4998 22.1768C25.0292 21.6663 24.6982 20.9645 24.5068 20.0713ZM26.1338 26.0767C26.2454 26.1724 26.3053 26.288 26.3132 26.4236C26.3212 26.5592 26.2773 26.6828 26.1816 26.7944C25.7988 27.2251 25.3921 27.4644 24.9614 27.5122C24.5308 27.5601 24.124 27.4644 23.7412 27.2251C23.6455 27.1772 23.5658 27.1254 23.502 27.0696C23.4382 27.0138 23.3823 26.9619 23.3345 26.9141C23.2388 26.8184 23.1949 26.6987 23.2029 26.5552C23.2109 26.4116 23.2627 26.292 23.3584 26.1963C23.4541 26.1165 23.5618 26.0727 23.6814 26.0647C23.801 26.0567 23.9087 26.0846 24.0044 26.1484L24.1479 26.2681C24.1639 26.284 24.1838 26.3 24.2078 26.3159C24.2317 26.3319 24.2516 26.3478 24.2676 26.3638C24.459 26.4754 24.6464 26.5193 24.8298 26.4954C25.0133 26.4714 25.2087 26.3478 25.416 26.1245C25.5117 26.0129 25.6313 25.953 25.7749 25.9451C25.9185 25.9371 26.0381 25.981 26.1338 26.0767ZM29.3159 24.4976L29.292 24.5693C29.276 24.7448 29.2521 24.9083 29.2202 25.0598C29.1883 25.2113 29.1564 25.3589 29.1245 25.5024H31.1821C30.9588 25.2313 30.6837 25.008 30.3567 24.8325C30.0297 24.6571 29.6828 24.5454 29.3159 24.4976ZM20.4395 24.5215C20.0726 24.5693 19.7297 24.677 19.4106 24.8445C19.0916 25.012 18.8125 25.2313 18.5732 25.5024H20.6069C20.575 25.3589 20.5471 25.2034 20.5232 25.0359C20.4993 24.8684 20.4714 24.6969 20.4395 24.5215ZM24.124 23.2773C24.2197 23.389 24.2636 23.5126 24.2556 23.6482C24.2476 23.7838 24.1958 23.8994 24.1001 23.9951C23.7651 24.2982 23.4182 24.4617 23.0593 24.4856C22.7004 24.5095 22.3535 24.4019 22.0186 24.1626C21.9069 24.0669 21.8391 23.9513 21.8152 23.8157C21.7913 23.6801 21.8192 23.5565 21.8989 23.4448C21.9946 23.3332 22.1103 23.2654 22.2458 23.2415C22.3814 23.2175 22.505 23.2454 22.6167 23.3252C22.7603 23.4368 22.8918 23.4847 23.0115 23.4688C23.1311 23.4528 23.2627 23.381 23.4062 23.2534C23.5179 23.1577 23.6415 23.1099 23.7771 23.1099C23.9127 23.1099 24.0283 23.1657 24.124 23.2773ZM24.9375 17.583C23.9964 17.583 23.1829 17.914 22.4971 18.5759C21.8112 19.2379 21.4364 20.0394 21.3726 20.9805C21.8351 20.4382 22.3535 19.9995 22.9277 19.6646C23.502 19.3296 24.132 19.0903 24.8179 18.9468C24.8179 18.9468 24.8219 18.9468 24.8298 18.9468C24.8378 18.9468 24.8418 18.9468 24.8418 18.9468H24.8657H24.8896C24.9056 18.9468 24.9136 18.9468 24.9136 18.9468H24.8418C24.8577 18.9468 24.8737 18.9428 24.8896 18.9348C24.9056 18.9268 24.9215 18.9308 24.9375 18.9468C24.9535 18.9468 24.9654 18.9468 24.9734 18.9468C24.9814 18.9468 24.9933 18.9468 25.0093 18.9468C25.0093 18.9468 25.0133 18.9468 25.0212 18.9468C25.0292 18.9468 25.0332 18.9468 25.0332 18.9468C25.0492 18.9468 25.0611 18.9508 25.0691 18.9587C25.0771 18.9667 25.0811 18.9707 25.0811 18.9707C25.097 18.9707 25.109 18.9707 25.1169 18.9707C25.1249 18.9707 25.1289 18.9787 25.1289 18.9946C25.1449 18.9946 25.1528 18.9946 25.1528 18.9946C25.1688 19.0106 25.1807 19.0186 25.1887 19.0186C25.1967 19.0186 25.2007 19.0265 25.2007 19.0425C25.2166 19.0425 25.2246 19.0425 25.2246 19.0425C25.2406 19.0584 25.2525 19.0704 25.2605 19.0784C25.2685 19.0863 25.2725 19.0903 25.2725 19.0903C25.2725 19.0903 25.2764 19.0943 25.2844 19.1023C25.2924 19.1103 25.2964 19.1143 25.2964 19.1143C25.2964 19.1143 25.3004 19.1182 25.3083 19.1262C25.3163 19.1342 25.3203 19.1462 25.3203 19.1621C25.3363 19.1621 25.3442 19.1661 25.3442 19.1741C25.3442 19.182 25.3442 19.186 25.3442 19.186C25.3442 19.186 25.3482 19.19 25.3562 19.198C25.3642 19.206 25.3682 19.2179 25.3682 19.2339C25.3682 19.2339 25.3722 19.2379 25.3801 19.2458C25.3881 19.2538 25.3921 19.2578 25.3921 19.2578C25.3921 19.2738 25.3921 19.2857 25.3921 19.2937C25.3921 19.3017 25.3921 19.3136 25.3921 19.3296C25.408 19.3296 25.416 19.3296 25.416 19.3296C25.416 19.3296 25.416 19.3376 25.416 19.3535C25.416 19.3535 25.416 19.3575 25.416 19.3655C25.416 19.3735 25.416 19.3774 25.416 19.3774C25.5596 20.4302 25.8786 21.1759 26.373 21.6145C26.8675 22.0531 27.5614 22.2166 28.4546 22.105C28.4546 22.0731 28.4546 22.0332 28.4546 21.9854C28.4546 21.9375 28.4546 21.8896 28.4546 21.8418C28.4546 21.7939 28.4586 21.7541 28.4666 21.7222C28.4745 21.6903 28.4865 21.6504 28.5024 21.6025V21.2197C28.5024 20.2148 28.1555 19.3575 27.4617 18.6477C26.7678 17.9379 25.9264 17.583 24.9375 17.583ZM24.9375 14.2812C24.6344 14.2812 24.3713 14.3929 24.1479 14.6162C23.9246 14.8395 23.813 15.1107 23.813 15.4297C23.813 15.7487 23.9246 16.0199 24.1479 16.2432C24.3713 16.4665 24.6344 16.5781 24.9375 16.5781C25.2406 16.5781 25.5037 16.4665 25.7271 16.2432C25.9504 16.0199 26.062 15.7487 26.062 15.4297C26.062 15.1107 25.9504 14.8395 25.7271 14.6162C25.5037 14.3929 25.2406 14.2812 24.9375 14.2812Z" fill="#732FCB"/>
</svg>
