<svg width="50" height="50" viewBox="0 0 50 50" fill="none" xmlns="http://www.w3.org/2000/svg">
<path d="M33.9365 31.2207C33.1709 31.2207 32.5209 31.4879 31.9866 32.0222C31.4522 32.5566 31.1851 33.2065 31.1851 33.9722C31.1851 34.7378 31.4522 35.3918 31.9866 35.9341C32.5209 36.4764 33.1709 36.7476 33.9365 36.7476C34.7021 36.7476 35.3521 36.4764 35.8865 35.9341C36.4208 35.3918 36.688 34.7378 36.688 33.9722C36.6401 33.2065 36.349 32.5566 35.8147 32.0222C35.2804 31.4879 34.6543 31.2207 33.9365 31.2207ZM33.9365 35.7188C33.474 35.7188 33.0712 35.5433 32.7283 35.1924C32.3853 34.8415 32.2139 34.4347 32.2139 33.9722C32.2139 33.4618 32.3853 33.047 32.7283 32.728C33.0712 32.409 33.474 32.2495 33.9365 32.2495C34.4469 32.2495 34.8656 32.425 35.1926 32.7759C35.5196 33.1268 35.6831 33.5256 35.6831 33.9722C35.6831 34.4826 35.5077 34.9013 35.1567 35.2283C34.8058 35.5553 34.3991 35.7188 33.9365 35.7188ZM31.5918 20.1909L33.8408 14.377L30.7783 13.2524L28.5293 19.0903L25.8735 19.2817L22.3086 28.5649V23.1577H13.3125V36.2212C13.3125 36.3807 13.3604 36.5083 13.4561 36.604C13.5518 36.6997 13.6794 36.7476 13.8389 36.7476C13.9824 36.7476 14.1021 36.6997 14.1978 36.604C14.2935 36.5083 14.3413 36.3807 14.3413 36.2212V24.0908H17.4038V36.2212C17.4038 36.3807 17.4517 36.5083 17.5474 36.604C17.6431 36.6997 17.7627 36.7476 17.9062 36.7476C18.0658 36.7476 18.1934 36.6997 18.2891 36.604C18.3848 36.5083 18.4326 36.3807 18.4326 36.2212V24.0908H21.4951V31.125L21.0884 32.1538C20.9767 32.4569 20.9249 32.7599 20.9329 33.063C20.9408 33.366 21.0246 33.6691 21.1841 33.9722C21.3276 34.2912 21.5071 34.5504 21.7224 34.7498C21.9377 34.9491 22.1969 35.1047 22.5 35.2163L25.3711 36.3408C25.5146 36.3887 25.6622 36.4325 25.8137 36.4724C25.9653 36.5123 26.0889 36.5322 26.1846 36.5322C26.695 36.5322 27.1576 36.3927 27.5723 36.1135C27.987 35.8344 28.2741 35.4635 28.4336 35.001L33.2188 22.0332L31.5918 20.1909ZM27.5005 34.4985C27.3569 34.8494 27.1057 35.1126 26.7468 35.2881C26.3879 35.4635 26.033 35.4715 25.6821 35.312L22.811 34.1875C22.6037 34.1396 22.4402 34.0479 22.3206 33.9124C22.2009 33.7768 22.0933 33.6292 21.9976 33.4697C21.9019 33.3262 21.854 33.1547 21.854 32.9553C21.854 32.7559 21.9019 32.5526 21.9976 32.3452L26.687 20.0952L29.3428 19.9038L31.4004 14.4966L32.6206 14.999L30.563 20.4062L32.2139 22.2485L27.5005 34.4985Z" fill="#732FCB"/>
</svg>
