<svg width="50" height="50" viewBox="0 0 50 50" fill="none" xmlns="http://www.w3.org/2000/svg">
<path d="M13.7666 30.0962C13.623 30.0962 13.4994 30.148 13.3958 30.2517C13.2921 30.3554 13.2402 30.479 13.2402 30.6226C13.2402 30.7502 13.2801 30.8578 13.3599 30.9456C13.4396 31.0333 13.5433 31.0931 13.6709 31.125H13.7666H17.3315V36.7476C17.3315 36.8911 17.3794 37.0107 17.4751 37.1064C17.5708 37.2021 17.6904 37.25 17.834 37.25C17.9616 37.25 18.0732 37.2101 18.1689 37.1304C18.2646 37.0506 18.3205 36.9549 18.3364 36.8433L18.3604 36.7476V31.125H21.9253C22.0688 31.125 22.1885 31.0771 22.2842 30.9814C22.3799 30.8857 22.4277 30.7661 22.4277 30.6226C22.4277 30.495 22.3879 30.3833 22.3081 30.2876C22.2284 30.1919 22.1326 30.1361 22.021 30.1201L21.9253 30.0962H13.7666ZM24.4854 12.75C23.64 12.75 22.9182 13.0491 22.3201 13.6472C21.7219 14.2454 21.4229 14.9671 21.4229 15.8125C21.4229 15.8444 21.4229 15.8803 21.4229 15.9202C21.4229 15.96 21.4229 16.0039 21.4229 16.0518C20.8008 15.8125 20.1667 15.7886 19.5208 15.98C18.8748 16.1714 18.3444 16.5382 17.9297 17.0806L17.834 17.248L13.312 24.2104C13.312 24.2264 13.312 24.2384 13.312 24.2463C13.312 24.2543 13.304 24.2583 13.2881 24.2583L13.3359 24.2104C13.32 24.2264 13.308 24.2424 13.3 24.2583C13.2921 24.2743 13.2881 24.2902 13.2881 24.3062C13.2881 24.3062 13.2841 24.3101 13.2761 24.3181C13.2681 24.3261 13.2642 24.3301 13.2642 24.3301C13.2642 24.346 13.2642 24.358 13.2642 24.366C13.2642 24.3739 13.2642 24.3859 13.2642 24.4019C13.2642 24.4019 13.2642 24.4098 13.2642 24.4258C13.2482 24.4258 13.2402 24.4298 13.2402 24.4377C13.2402 24.4457 13.2402 24.4577 13.2402 24.4736V24.4976V26.627C13.2402 27.3128 13.4715 27.899 13.9341 28.3855C14.3966 28.872 14.9629 29.1392 15.6328 29.187H15.8003H23.2651V31.6274C23.2651 31.755 23.305 31.8667 23.3848 31.9624C23.4645 32.0581 23.5602 32.1139 23.6719 32.1299L23.7676 32.1538H25.2031L25.873 35.623C25.9528 36.1016 26.1801 36.4924 26.5549 36.7954C26.9298 37.0985 27.3564 37.25 27.835 37.25C27.8828 37.25 27.9307 37.246 27.9785 37.238C28.0264 37.2301 28.0742 37.2261 28.1221 37.2261C28.5208 37.1463 28.8359 36.9469 29.0671 36.6279C29.2984 36.3089 29.3901 35.958 29.3423 35.5752L29.3184 35.4316L28.6724 32.1538H29.0791C29.2227 32.1538 29.3423 32.098 29.438 31.9863C29.5337 31.8747 29.5815 31.7471 29.5815 31.6035L29.5576 31.5317L28.8159 28.23C28.6883 27.6717 28.469 27.1613 28.158 26.6987C27.8469 26.2362 27.4761 25.8374 27.0454 25.5024C27.4761 25.4546 27.835 25.2751 28.1221 24.9641C28.4092 24.6531 28.5527 24.2822 28.5527 23.8516C28.5527 23.4049 28.4052 23.0221 28.1101 22.7031C27.815 22.3841 27.4601 22.2087 27.0454 22.1768H26.9019H22.7866L22.3081 20.2866C22.2922 20.175 22.2443 20.0872 22.1646 20.0234C22.0848 19.9596 21.9891 19.9198 21.8774 19.9038H21.7817H21.71C21.5824 19.9357 21.4827 20.0035 21.4109 20.1072C21.3391 20.2109 21.3032 20.3185 21.3032 20.4302L21.3271 20.5259L21.8774 22.7988C21.9093 22.8945 21.9612 22.9783 22.033 23.05C22.1047 23.1218 22.1885 23.1657 22.2842 23.1816H22.3799H26.9019C27.0773 23.1816 27.2288 23.2454 27.3564 23.373C27.484 23.5007 27.5479 23.6602 27.5479 23.8516C27.5479 24.0111 27.492 24.1506 27.3804 24.2703C27.2687 24.3899 27.1411 24.4577 26.9976 24.4736L26.9019 24.4976H24.3657C24.3179 24.4816 24.27 24.4736 24.2222 24.4736C24.1743 24.4736 24.1265 24.4736 24.0786 24.4736C24.0627 24.4736 24.0467 24.4736 24.0308 24.4736C24.0148 24.4736 23.9989 24.4816 23.9829 24.4976H21.9253C21.6382 24.4976 21.375 24.4258 21.1357 24.2822C20.8965 24.1387 20.7131 23.9393 20.5854 23.6841L20.5137 23.5645L19.3413 20.813C19.2775 20.6854 19.1818 20.5937 19.0542 20.5378C18.9266 20.482 18.799 20.486 18.6714 20.5498C18.5438 20.5977 18.4561 20.6734 18.4082 20.7771C18.3604 20.8808 18.3444 20.9964 18.3604 21.124L18.3843 21.2197L19.5806 23.9712C19.772 24.4019 20.0631 24.7568 20.4539 25.0359C20.8446 25.315 21.2713 25.4705 21.7339 25.5024H21.9253H24.3418C25.1393 25.5662 25.8531 25.8494 26.4832 26.3518C27.1132 26.8542 27.5399 27.4963 27.7632 28.2778L27.811 28.4692L28.4331 31.125H28.0503C28.0503 31.125 28.0463 31.125 28.0383 31.125C28.0304 31.125 28.0264 31.125 28.0264 31.125H25.6338C25.6338 31.125 25.6298 31.125 25.6218 31.125C25.6139 31.125 25.6099 31.125 25.6099 31.125H24.2939V28.6846C24.2939 28.557 24.2541 28.4453 24.1743 28.3496C24.0946 28.2539 23.9909 28.1981 23.8633 28.1821L23.7676 28.1582H15.8003C15.4015 28.1582 15.0586 28.0266 14.7715 27.7634C14.4844 27.5002 14.3169 27.1693 14.269 26.7705V26.627V25H18.4082C18.5518 25 18.6754 24.9521 18.7791 24.8564C18.8827 24.7607 18.9346 24.6411 18.9346 24.4976C18.9346 24.37 18.8947 24.2583 18.8149 24.1626C18.7352 24.0669 18.6315 24.0111 18.5039 23.9951L18.4082 23.9712H14.6997L18.6953 17.7983C18.9665 17.3517 19.3573 17.0646 19.8677 16.937C20.3781 16.8094 20.8566 16.8652 21.3032 17.1045L21.4468 17.2002L21.9014 17.5112L21.9731 17.5591C22.0369 17.6707 22.1127 17.7744 22.2004 17.8701C22.2882 17.9658 22.3799 18.0535 22.4756 18.1333C22.651 18.4204 22.7547 18.7434 22.7866 19.1023C22.8185 19.4612 22.7627 19.8081 22.6191 20.1431C22.5553 20.2707 22.5474 20.3983 22.5952 20.5259C22.6431 20.6535 22.7308 20.7492 22.8584 20.813C22.986 20.8768 23.1176 20.8808 23.2532 20.825C23.3888 20.7691 23.4805 20.6774 23.5283 20.5498C23.6559 20.2627 23.7397 19.9716 23.7795 19.6765C23.8194 19.3814 23.8234 19.0903 23.7915 18.8032C23.9032 18.8192 24.0148 18.8351 24.1265 18.8511C24.2381 18.867 24.3577 18.875 24.4854 18.875C25.3307 18.875 26.0525 18.5759 26.6506 17.9778C27.2488 17.3796 27.5479 16.6579 27.5479 15.8125C27.5479 14.9671 27.2488 14.2454 26.6506 13.6472C26.0525 13.0491 25.3307 12.75 24.4854 12.75ZM26.2319 32.1538H27.6196L28.3374 35.623C28.3534 35.7666 28.3254 35.8942 28.2537 36.0059C28.1819 36.1175 28.0742 36.1893 27.9307 36.2212C27.9147 36.2212 27.8988 36.2212 27.8828 36.2212C27.8669 36.2212 27.8509 36.2212 27.835 36.2212C27.6117 36.2212 27.4163 36.1574 27.2488 36.0298C27.0813 35.9022 26.9657 35.7427 26.9019 35.5513L26.854 35.4316L26.2319 32.1538ZM33.4336 23.5405C33.3219 23.6043 33.2502 23.696 33.2183 23.8157C33.1864 23.9353 33.1864 24.0509 33.2183 24.1626L33.2661 24.2344L33.625 24.8325C33.6888 24.9442 33.7087 25.0558 33.6848 25.1675C33.6609 25.2791 33.6011 25.3748 33.5054 25.4546C33.2342 25.6779 33.0508 25.953 32.9551 26.28C32.8594 26.607 32.8594 26.938 32.9551 27.2729L33.0029 27.3926L33.3618 28.2539C33.4097 28.3815 33.5014 28.4732 33.637 28.5291C33.7725 28.5849 33.9041 28.5889 34.0317 28.541C34.1434 28.4932 34.2271 28.4134 34.283 28.3018C34.3388 28.1901 34.3587 28.0785 34.3428 27.9668L34.3188 27.8711L33.96 27.0098C33.8962 26.8822 33.8842 26.7466 33.9241 26.603C33.9639 26.4595 34.0397 26.3478 34.1514 26.2681C34.4225 26.0448 34.598 25.7616 34.6777 25.4187C34.7575 25.0758 34.7176 24.7448 34.5581 24.4258L34.4863 24.3062L34.1274 23.708C34.0636 23.5964 33.9639 23.5246 33.8284 23.4927C33.6928 23.4608 33.5612 23.4767 33.4336 23.5405ZM30.3711 17.4155C30.2594 17.4793 30.1877 17.571 30.1558 17.6907C30.1239 17.8103 30.1239 17.9259 30.1558 18.0376L30.2036 18.1094L30.5625 18.7075C30.6263 18.8192 30.6462 18.9308 30.6223 19.0425C30.5984 19.1541 30.5386 19.2498 30.4429 19.3296C30.1717 19.5529 29.9883 19.828 29.8926 20.155C29.7969 20.482 29.7969 20.813 29.8926 21.1479L29.9404 21.2676L30.2993 22.1289C30.3472 22.2565 30.4389 22.3482 30.5745 22.4041C30.71 22.4599 30.8416 22.4639 30.9692 22.416C31.0809 22.3682 31.1646 22.2884 31.2205 22.1768C31.2763 22.0651 31.2962 21.9535 31.2803 21.8418L31.2563 21.7461L30.8975 20.8848C30.8337 20.7572 30.8217 20.6216 30.8616 20.478C30.9014 20.3345 30.9772 20.2228 31.0889 20.1431C31.36 19.9198 31.5355 19.6366 31.6152 19.2937C31.695 18.9508 31.6551 18.6198 31.4956 18.3008L31.4238 18.1812L31.0649 17.583C31.0011 17.4714 30.9014 17.3996 30.7659 17.3677C30.6303 17.3358 30.4987 17.3517 30.3711 17.4155ZM35.4673 15.3818C35.3716 15.4456 35.3038 15.5374 35.2639 15.657C35.224 15.7766 35.228 15.8923 35.2759 16.0039L35.2998 16.0757L35.6587 16.6738C35.7225 16.7695 35.7464 16.8772 35.7305 16.9968C35.7145 17.1165 35.6587 17.2161 35.563 17.2959C35.2918 17.5033 35.1044 17.7744 35.0007 18.1094C34.8971 18.4443 34.901 18.7713 35.0127 19.0903L35.0605 19.2339L35.3955 20.0952C35.4593 20.2228 35.555 20.3145 35.6826 20.3704C35.8102 20.4262 35.9378 20.4222 36.0654 20.3584C36.1771 20.3105 36.2648 20.2348 36.3286 20.1311C36.3924 20.0274 36.4084 19.9118 36.3765 19.7842L36.3525 19.7124L35.9937 18.8511C35.9458 18.7075 35.9378 18.568 35.9697 18.4324C36.0016 18.2968 36.0734 18.1812 36.1851 18.0854C36.4722 17.8621 36.6516 17.583 36.7234 17.248C36.7952 16.9131 36.7593 16.5861 36.6157 16.2671L36.5439 16.1475L36.1851 15.5493C36.1053 15.4217 35.9976 15.342 35.8621 15.3101C35.7265 15.2782 35.5949 15.3021 35.4673 15.3818ZM24.4854 13.7788C25.0436 13.7788 25.5221 13.9782 25.9209 14.377C26.3197 14.7757 26.519 15.2542 26.519 15.8125C26.519 16.3708 26.3197 16.8493 25.9209 17.248C25.5221 17.6468 25.0436 17.8462 24.4854 17.8462C24.2461 17.8462 24.0228 17.8103 23.8154 17.7385C23.6081 17.6667 23.4167 17.5671 23.2412 17.4395C23.1615 17.3438 23.0817 17.248 23.002 17.1523C22.9222 17.0566 22.8345 16.9689 22.7388 16.8892C22.6431 16.7297 22.5673 16.5582 22.5115 16.3748C22.4556 16.1913 22.4277 16.0039 22.4277 15.8125C22.4277 15.2542 22.6271 14.7757 23.0259 14.377C23.4246 13.9782 23.9111 13.7788 24.4854 13.7788Z" fill="#732FCB"/>
</svg>
