<svg width="50" height="50" viewBox="0 0 50 50" fill="none" xmlns="http://www.w3.org/2000/svg">
<path d="M20.8663 37.0413C20.7227 37.0413 20.5991 36.9934 20.4954 36.8977C20.3917 36.802 20.3399 36.6824 20.3399 36.5388C20.3399 36.4112 20.3798 36.2996 20.4595 36.2039C20.5393 36.1082 20.643 36.0523 20.7706 36.0364L20.8663 36.0125H24.2159V20.5085C23.9926 19.057 23.5858 17.9525 22.9957 17.1948C22.4055 16.4372 21.6239 16.0105 20.6509 15.9148V16.7522C20.6509 16.8958 20.5991 17.0154 20.4954 17.1111C20.3917 17.2068 20.2681 17.2546 20.1246 17.2546H18.5455C18.4498 17.8129 18.2384 18.2436 17.9114 18.5466C17.5845 18.8497 17.1498 19.0012 16.6075 19.0012C16.0652 19.0012 15.6265 18.8337 15.2916 18.4988C14.9566 18.1638 14.7493 17.6933 14.6695 17.0872L14.6934 17.2546H13.6407C13.5131 17.2546 13.4054 17.2188 13.3177 17.147C13.23 17.0752 13.1702 16.9835 13.1382 16.8718C12.9149 16.0583 13.0146 15.2808 13.4373 14.5391C13.86 13.7974 14.4781 13.3069 15.2916 13.0676C15.5468 13.0038 15.806 12.9679 16.0692 12.96C16.3323 12.952 16.5836 12.9799 16.8228 13.0437L20.2442 13.8572C20.3559 13.8891 20.4516 13.9489 20.5313 14.0366C20.6111 14.1243 20.6509 14.232 20.6509 14.3596V14.886C21.4325 14.9498 22.1224 15.1771 22.7205 15.5679C23.3187 15.9587 23.8171 16.505 24.2159 17.2068V15.3645C24.2159 15.2209 24.2637 15.1013 24.3594 15.0056C24.4551 14.9099 24.5748 14.8621 24.7183 14.8621C24.8459 14.8621 24.9576 14.9019 25.0533 14.9817C25.149 15.0614 25.2048 15.1571 25.2208 15.2688V15.3645V17.3503C25.7152 16.6007 26.3054 16.0185 26.9913 15.6038C27.6771 15.189 28.4667 14.9498 29.3599 14.886V14.3596C29.3599 14.232 29.3958 14.1243 29.4676 14.0366C29.5394 13.9489 29.6311 13.8891 29.7427 13.8572L33.1641 13.0437C33.4193 12.9799 33.6745 12.952 33.9298 12.96C34.185 12.9679 34.4402 13.0038 34.6954 13.0676C35.5248 13.3069 36.1509 13.7974 36.5736 14.5391C36.9962 15.2808 37.088 16.0583 36.8487 16.8718C36.8168 16.9835 36.757 17.0752 36.6693 17.147C36.5815 17.2188 36.4818 17.2546 36.3702 17.2546H35.2935V17.2786C35.1978 17.8209 34.9865 18.2436 34.6595 18.5466C34.3325 18.8497 33.9058 19.0012 33.3795 19.0012C32.8531 19.0012 32.4264 18.8497 32.0994 18.5466C31.7724 18.2436 31.5531 17.8129 31.4415 17.2546H29.8624C29.7188 17.2546 29.5992 17.2068 29.5035 17.1111C29.4078 17.0154 29.3599 16.8958 29.3599 16.7522V15.8909C28.355 15.9866 27.5097 16.3534 26.8238 16.9915C26.1379 17.6295 25.6036 18.5626 25.2208 19.7908V36.0125H29.0728C29.2164 36.0125 29.336 36.0643 29.4317 36.168C29.5274 36.2716 29.5753 36.3953 29.5753 36.5388C29.5753 36.6664 29.5354 36.7741 29.4556 36.8618C29.3759 36.9495 29.2802 37.0094 29.1685 37.0413H29.0728H20.8663ZM34.2408 17.2546H32.4942C32.558 17.5098 32.6617 17.6933 32.8052 17.8049C32.9488 17.9166 33.1402 17.9724 33.3795 17.9724C33.6187 17.9724 33.8101 17.9166 33.9537 17.8049C34.0972 17.6933 34.1929 17.5098 34.2408 17.2546ZM17.4927 17.2546H15.7462C15.81 17.5098 15.9097 17.6933 16.0452 17.8049C16.1808 17.9166 16.3682 17.9724 16.6075 17.9724C16.8467 17.9724 17.0382 17.9166 17.1817 17.8049C17.3253 17.6933 17.4289 17.5098 17.4927 17.2546ZM34.4322 14.0725C34.2567 14.0247 34.0813 13.9967 33.9058 13.9888C33.7304 13.9808 33.5629 14.0007 33.4034 14.0486L30.3648 14.7664V15.3645V15.3884V16.2258H35.9395V16.1541C35.9714 15.7074 35.8598 15.2927 35.6046 14.9099C35.3493 14.5271 35.0064 14.2559 34.5757 14.0964L34.4322 14.0725ZM15.5787 14.0725L15.4112 14.0964C14.9805 14.2559 14.6416 14.5271 14.3944 14.9099C14.1471 15.2927 14.0315 15.7074 14.0474 16.1541V16.2258H19.6221V15.3884V15.3645V14.7664L16.6075 14.0486C16.432 14.0007 16.2566 13.9808 16.0811 13.9888C15.9057 13.9967 15.7382 14.0247 15.5787 14.0725Z" fill="#732FCB"/>
</svg>
