<svg width="50" height="50" viewBox="0 0 50 50" fill="none" xmlns="http://www.w3.org/2000/svg">
<path d="M36.1138 33.3142C36.2573 33.3142 36.3809 33.3621 36.4846 33.4578C36.5883 33.5535 36.6401 33.6731 36.6401 33.8167C36.6401 33.9602 36.5883 34.0798 36.4846 34.1755C36.3809 34.2712 36.2573 34.3191 36.1138 34.3191C35.9383 34.3191 35.7748 34.351 35.6233 34.4148C35.4718 34.4786 35.3402 34.5743 35.2285 34.7019L34.3433 35.6589C34.0721 35.962 33.7451 36.2013 33.3623 36.3767C32.9795 36.5522 32.5807 36.6479 32.166 36.6638C31.7354 36.6957 31.3246 36.6439 30.9338 36.5083C30.5431 36.3727 30.1882 36.1694 29.8691 35.8982L29.6777 35.7307C29.279 35.3958 28.8044 35.2323 28.2542 35.2402C27.7039 35.2482 27.2293 35.4277 26.8306 35.7786C26.2563 36.3049 25.5705 36.5801 24.7729 36.604C23.9754 36.6279 23.2656 36.4006 22.6436 35.9221C22.2607 35.6031 21.8141 35.4476 21.3037 35.4556C20.7933 35.4635 20.3467 35.6191 19.9639 35.9221L19.7964 36.0417C19.5093 36.281 19.1903 36.4604 18.8394 36.5801C18.4884 36.6997 18.1296 36.7595 17.7627 36.7595C17.4437 36.7595 17.1207 36.7117 16.7937 36.616C16.4667 36.5203 16.1676 36.3767 15.8965 36.1853L14.1021 34.9172C14.0063 34.8375 13.8987 34.7817 13.7791 34.7498C13.6594 34.7179 13.5358 34.7019 13.4082 34.7019C13.2646 34.7019 13.141 34.6501 13.0374 34.5464C12.9337 34.4427 12.8818 34.3191 12.8818 34.1755C12.8818 34.0479 12.9337 33.9323 13.0374 33.8286C13.141 33.7249 13.2646 33.6731 13.4082 33.6731C13.6475 33.6731 13.8787 33.709 14.1021 33.7808C14.3254 33.8525 14.5327 33.9522 14.7241 34.0798L16.5186 35.3479C16.9173 35.635 17.356 35.7706 17.8345 35.7546C18.313 35.7387 18.7437 35.5792 19.1265 35.2761L19.27 35.1565C19.8602 34.678 20.5341 34.4387 21.2917 34.4387C22.0494 34.4387 22.7233 34.67 23.3135 35.1326C23.7282 35.4516 24.2027 35.6031 24.7371 35.5872C25.2714 35.5712 25.73 35.3878 26.1128 35.0369C26.703 34.4945 27.4128 34.2194 28.2422 34.2114C29.0716 34.2035 29.7894 34.4626 30.3955 34.989L30.5869 35.1565C30.7943 35.3319 31.0256 35.4635 31.2808 35.5513C31.536 35.639 31.8071 35.6749 32.0942 35.6589C32.3813 35.643 32.6485 35.5752 32.8958 35.4556C33.143 35.3359 33.3623 35.1804 33.5537 34.989L34.439 34.032C34.6463 33.7927 34.8975 33.6133 35.1926 33.4937C35.4877 33.374 35.7948 33.3142 36.1138 33.3142ZM36.1138 29.9885C36.2573 29.9885 36.3809 30.0364 36.4846 30.1321C36.5883 30.2278 36.6401 30.3474 36.6401 30.491C36.6401 30.6345 36.5883 30.7542 36.4846 30.8499C36.3809 30.9456 36.2573 30.9934 36.1138 30.9934C35.9383 30.9934 35.7748 31.0253 35.6233 31.0891C35.4718 31.1529 35.3402 31.2486 35.2285 31.3762L34.3433 32.3333C34.0721 32.6363 33.7451 32.8756 33.3623 33.051C32.9795 33.2265 32.5807 33.3222 32.166 33.3381C31.7354 33.37 31.3246 33.3182 30.9338 33.1826C30.5431 33.047 30.1882 32.8437 29.8691 32.5725L29.6777 32.405C29.279 32.0701 28.8044 31.9066 28.2542 31.9146C27.7039 31.9225 27.2293 32.102 26.8306 32.4529C26.2563 32.9792 25.5705 33.2544 24.7729 33.2783C23.9754 33.3022 23.2656 33.075 22.6436 32.5964C22.2607 32.2774 21.8141 32.1219 21.3037 32.1299C20.7933 32.1379 20.3467 32.2934 19.9639 32.5964L19.7964 32.7161C19.5093 32.9553 19.1903 33.1348 18.8394 33.2544C18.4884 33.374 18.1296 33.4338 17.7627 33.4338C17.4437 33.4338 17.1207 33.386 16.7937 33.2903C16.4667 33.1946 16.1676 33.051 15.8965 32.8596L14.1021 31.5916C14.0063 31.5118 13.8987 31.456 13.7791 31.4241C13.6594 31.3922 13.5358 31.3762 13.4082 31.3762C13.2646 31.3762 13.141 31.3244 13.0374 31.2207C12.9337 31.117 12.8818 30.9934 12.8818 30.8499C12.8818 30.7222 12.9337 30.6066 13.0374 30.5029C13.141 30.3993 13.2646 30.3474 13.4082 30.3474C13.6475 30.3474 13.8787 30.3833 14.1021 30.4551C14.3254 30.5269 14.5327 30.6265 14.7241 30.7542L16.5186 32.0222C16.9173 32.3093 17.356 32.4449 17.8345 32.429C18.313 32.413 18.7437 32.2535 19.1265 31.9504L19.27 31.8308C19.8602 31.3523 20.5341 31.113 21.2917 31.113C22.0494 31.113 22.7233 31.3443 23.3135 31.8069C23.7282 32.1259 24.2027 32.2774 24.7371 32.2615C25.2714 32.2455 25.73 32.0621 26.1128 31.7112C26.703 31.1689 27.4128 30.8937 28.2422 30.8857C29.0716 30.8778 29.7894 31.137 30.3955 31.6633L30.5869 31.8308C30.7943 32.0063 31.0295 32.1339 31.2927 32.2136C31.5559 32.2934 31.8231 32.3333 32.0942 32.3333C32.3813 32.3173 32.6485 32.2495 32.8958 32.1299C33.143 32.0103 33.3623 31.8547 33.5537 31.6633L34.439 30.6824C34.6463 30.4591 34.8975 30.2876 35.1926 30.168C35.4877 30.0483 35.7948 29.9885 36.1138 29.9885ZM22.4521 25.6101C23.154 25.6101 23.7481 25.8454 24.2346 26.3159C24.7211 26.7865 24.9644 27.3567 24.9644 28.0266C24.9644 28.234 24.9325 28.4413 24.8687 28.6487C24.8049 28.856 24.7171 29.0474 24.6055 29.2229C24.8766 29.2229 25.1438 29.179 25.407 29.0913C25.6702 29.0036 25.9054 28.872 26.1128 28.6965C26.703 28.1542 27.4128 27.8791 28.2422 27.8711C29.0716 27.8631 29.7894 28.1143 30.3955 28.6248L30.5869 28.7922C30.7943 28.9677 31.0295 29.0993 31.2927 29.187C31.5559 29.2747 31.8231 29.3106 32.0942 29.2947C32.3813 29.2787 32.6485 29.2149 32.8958 29.1033C33.143 28.9916 33.3623 28.8321 33.5537 28.6248L34.439 27.6677C34.6463 27.4444 34.8975 27.269 35.1926 27.1414C35.4877 27.0138 35.7868 26.95 36.0898 26.95C36.2493 26.95 36.3809 27.0018 36.4846 27.1055C36.5883 27.2091 36.6401 27.3328 36.6401 27.4763C36.6401 27.6039 36.5883 27.7196 36.4846 27.8232C36.3809 27.9269 36.2493 27.9788 36.0898 27.9788C35.9303 27.9788 35.7748 28.0107 35.6233 28.0745C35.4718 28.1383 35.3402 28.234 35.2285 28.3616L34.3433 29.3186C34.0721 29.6217 33.7451 29.8609 33.3623 30.0364C32.9795 30.2118 32.5807 30.3075 32.166 30.3235C31.7354 30.3554 31.3246 30.3035 30.9338 30.168C30.5431 30.0324 30.1882 29.829 29.8691 29.5579L29.6777 29.3904C29.279 29.0395 28.8044 28.868 28.2542 28.876C27.7039 28.884 27.2293 29.0714 26.8306 29.4382C26.368 29.8529 25.8257 30.1121 25.2036 30.2158C24.5815 30.3195 23.9834 30.2517 23.4092 30.0125C23.2656 29.9486 23.13 29.8809 23.0024 29.8091C22.8748 29.7373 22.7552 29.6615 22.6436 29.5818C22.2607 29.2628 21.8141 29.1033 21.3037 29.1033C20.7933 29.1033 20.3467 29.2628 19.9639 29.5818L19.7964 29.7014C19.5093 29.9407 19.1903 30.1201 18.8394 30.2397C18.4884 30.3594 18.1296 30.4192 17.7627 30.4192C17.4437 30.4192 17.1207 30.3713 16.7937 30.2756C16.4667 30.1799 16.1676 30.0284 15.8965 29.821L14.1021 28.553C14.0063 28.4892 13.8987 28.4373 13.7791 28.3975C13.6594 28.3576 13.5358 28.3376 13.4082 28.3376C13.2646 28.3376 13.141 28.2898 13.0374 28.1941C12.9337 28.0984 12.8818 27.9788 12.8818 27.8352C12.8818 27.6917 12.9337 27.572 13.0374 27.4763C13.141 27.3806 13.2646 27.3328 13.4082 27.3328C13.4242 27.3328 13.4441 27.3328 13.468 27.3328C13.4919 27.3328 13.5119 27.3328 13.5278 27.3328L13.7432 27.3806C13.9027 26.8702 14.2017 26.4475 14.6404 26.1125C15.079 25.7776 15.5854 25.6101 16.1597 25.6101H22.4521ZM22.4521 26.6389H16.1597C15.8088 26.6389 15.5017 26.7466 15.2385 26.9619C14.9753 27.1772 14.8118 27.4364 14.748 27.7395L16.5186 29.0076C16.9173 29.2787 17.356 29.4063 17.8345 29.3904C18.313 29.3744 18.7437 29.2149 19.1265 28.9119L19.27 28.7922C19.8602 28.3297 20.5341 28.0944 21.2917 28.0864C22.0494 28.0785 22.7233 28.3057 23.3135 28.7683C23.3613 28.8002 23.4012 28.8281 23.4331 28.8521C23.465 28.876 23.5049 28.8959 23.5527 28.9119C23.6644 28.7843 23.7481 28.6447 23.804 28.4932C23.8598 28.3416 23.8877 28.1861 23.8877 28.0266C23.8877 27.6438 23.7481 27.3168 23.469 27.0457C23.1899 26.7745 22.8509 26.6389 22.4521 26.6389ZM35.3242 13.2405C35.8187 13.2405 36.2414 13.408 36.5923 13.7429C36.9432 14.0779 37.1187 14.4846 37.1187 14.9631V15.7766C37.1187 15.9042 37.0668 16.0199 36.9631 16.1235C36.8595 16.2272 36.7279 16.2791 36.5684 16.2791C36.4248 16.2791 36.3012 16.2272 36.1975 16.1235C36.0938 16.0199 36.042 15.9042 36.042 15.7766V14.9631C36.042 14.7717 35.9702 14.6082 35.8267 14.4727C35.6831 14.3371 35.5156 14.2693 35.3242 14.2693C35.1169 14.2693 34.9454 14.3371 34.8098 14.4727C34.6742 14.6082 34.6064 14.7717 34.6064 14.9631V26.4475C34.6064 26.5911 34.5546 26.7107 34.4509 26.8064C34.3472 26.9021 34.2157 26.95 34.0562 26.95C33.9126 26.95 33.789 26.9021 33.6853 26.8064C33.5816 26.7107 33.5298 26.5911 33.5298 26.4475V23.2893H26.4956V26.4475C26.4956 26.5911 26.4438 26.7107 26.3401 26.8064C26.2364 26.9021 26.1128 26.95 25.9692 26.95C25.8257 26.95 25.7021 26.9021 25.5984 26.8064C25.4947 26.7107 25.4429 26.5911 25.4429 26.4475V14.9631C25.4429 14.4846 25.6183 14.0779 25.9692 13.7429C26.3201 13.408 26.7428 13.2405 27.2373 13.2405C27.7158 13.2405 28.1305 13.408 28.4814 13.7429C28.8324 14.0779 29.0078 14.4846 29.0078 14.9631V15.7766C29.0078 15.9042 28.956 16.0199 28.8523 16.1235C28.7486 16.2272 28.625 16.2791 28.4814 16.2791C28.3379 16.2791 28.2143 16.2272 28.1106 16.1235C28.0069 16.0199 27.9551 15.9042 27.9551 15.7766V14.9631C27.9551 14.7717 27.8833 14.6082 27.7397 14.4727C27.5962 14.3371 27.4287 14.2693 27.2373 14.2693C27.0299 14.2693 26.8545 14.3371 26.7109 14.4727C26.5674 14.6082 26.4956 14.7717 26.4956 14.9631V18.1453H33.5298V14.9631C33.5298 14.4846 33.7052 14.0779 34.0562 13.7429C34.4071 13.408 34.8298 13.2405 35.3242 13.2405ZM33.5298 19.1741H26.4956V22.2605H33.5298V19.1741Z" fill="#732FCB"/>
</svg>
