<svg width="50" height="50" viewBox="0 0 50 50" fill="none" xmlns="http://www.w3.org/2000/svg">
<path d="M28.1517 13.5994C28.2314 13.5994 28.3112 13.6193 28.3909 13.6592C28.4707 13.6991 28.5265 13.7589 28.5584 13.8386L28.6063 13.9104L29.6829 16.2312C29.8105 16.5024 29.9979 16.7177 30.2452 16.8772C30.4924 17.0367 30.7596 17.1165 31.0467 17.1165C31.3178 17.1165 31.577 17.0487 31.8243 16.9131C32.0715 16.7775 32.2669 16.5981 32.4105 16.3748L32.4822 16.2312L32.6258 15.9919C32.6896 15.8643 32.7893 15.7806 32.9249 15.7407C33.0604 15.7008 33.1841 15.7128 33.2957 15.7766C33.4074 15.8404 33.4871 15.9281 33.535 16.0398C33.5828 16.1514 33.5908 16.2631 33.5589 16.3748L33.511 16.4705L33.3914 16.7097C33.1681 17.1404 32.8451 17.4833 32.4224 17.7385C31.9997 17.9937 31.5412 18.1213 31.0467 18.1213C30.8872 18.1213 30.7317 18.1094 30.5801 18.0854C30.4286 18.0615 30.2811 18.0177 30.1375 17.9539V22.093L30.1136 22.1648C30.1295 22.1807 30.1415 22.1927 30.1495 22.2007C30.1574 22.2087 30.1694 22.2206 30.1854 22.2366L30.2332 22.3323L31.597 24.988C31.7884 25.3708 32.0635 25.6699 32.4224 25.8853C32.7813 26.1006 33.1681 26.2083 33.5828 26.2083C33.9816 26.2083 34.3484 26.1125 34.6834 25.9211C35.0184 25.7297 35.2895 25.4666 35.4969 25.1316L35.5926 24.988L35.7601 24.6292C35.8239 24.5015 35.9236 24.4178 36.0591 24.3779C36.1947 24.3381 36.3263 24.35 36.4539 24.4138C36.5656 24.4617 36.6453 24.5414 36.6932 24.6531C36.741 24.7647 36.749 24.8844 36.7171 25.012L36.6692 25.0837L36.5018 25.4666C36.2147 26.0089 35.8079 26.4395 35.2816 26.7585C34.7552 27.0776 34.1889 27.2371 33.5828 27.2371C33.4552 27.2371 33.3316 27.2291 33.212 27.2131C33.0923 27.1972 32.9687 27.1812 32.8411 27.1653V32.8118H36.2147C36.3423 32.8118 36.4539 32.8556 36.5496 32.9434C36.6453 33.0311 36.7011 33.1308 36.7171 33.2424L36.741 33.3381V35.8743C36.741 36.0019 36.7011 36.1135 36.6214 36.2092C36.5416 36.3049 36.438 36.3608 36.3104 36.3767L36.2147 36.4006H14.2508C14.1391 36.4006 14.0355 36.3608 13.9398 36.281C13.8441 36.2013 13.7802 36.0976 13.7483 35.97V35.8743V33.3381C13.7483 33.1946 13.8002 33.071 13.9039 32.9673C14.0075 32.8636 14.1232 32.8118 14.2508 32.8118H17.3851V27.1653C17.3053 27.1812 17.2256 27.1932 17.1458 27.2012C17.0661 27.2091 16.9863 27.2211 16.9066 27.2371H16.6912C16.0532 27.2371 15.459 27.0855 14.9087 26.7825C14.3585 26.4794 13.9158 26.0647 13.5809 25.5383L13.4612 25.3469L13.3177 25.1077C13.2539 24.9801 13.2419 24.8485 13.2818 24.7129C13.3217 24.5773 13.3974 24.4776 13.5091 24.4138C13.6207 24.35 13.7364 24.3301 13.856 24.354C13.9756 24.3779 14.0753 24.4377 14.1551 24.5334L14.2029 24.6052L14.3465 24.8445C14.5857 25.2751 14.9167 25.6101 15.3394 25.8494C15.7621 26.0886 16.2127 26.2083 16.6912 26.2083C17.1219 26.2083 17.5246 26.0966 17.8995 25.8733C18.2743 25.65 18.5574 25.3469 18.7488 24.9641L18.8206 24.8206L19.8494 22.4519V17.8582C19.7059 17.9379 19.5464 17.9977 19.3709 18.0376C19.1955 18.0775 19.02 18.1054 18.8445 18.1213H18.6531C18.1587 18.1213 17.6921 18.0057 17.2535 17.7744C16.8148 17.5431 16.452 17.2201 16.1649 16.8054L16.0691 16.6379L15.9734 16.4944C15.9096 16.3668 15.8937 16.2352 15.9256 16.0996C15.9575 15.964 16.0372 15.8643 16.1649 15.8005C16.2765 15.7367 16.3921 15.7128 16.5118 15.7288C16.6314 15.7447 16.7311 15.8005 16.8108 15.8962L16.8587 15.968L16.9544 16.1355C17.1299 16.4386 17.3691 16.6778 17.6722 16.8533C17.9752 17.0287 18.3022 17.1165 18.6531 17.1165C18.9562 17.1165 19.2433 17.0367 19.5145 16.8772C19.7856 16.7177 20.001 16.5103 20.1605 16.2551L20.2322 16.1116L21.285 13.9104C21.3169 13.8306 21.3647 13.7668 21.4285 13.719C21.4923 13.6711 21.5641 13.6392 21.6439 13.6233L21.7396 13.5994H28.1517ZM14.7772 33.8406V35.3718H35.7122V33.8406H26.9793C26.8517 33.8406 26.74 33.8007 26.6443 33.7209C26.5486 33.6412 26.4928 33.5455 26.4769 33.4338L26.4529 33.3381V31.0413C26.4529 30.6425 26.3134 30.3035 26.0342 30.0244C25.7551 29.7453 25.4162 29.6057 25.0174 29.6057C24.6346 29.6057 24.3076 29.7293 24.0364 29.9766C23.7653 30.2238 23.6137 30.5308 23.5818 30.8977L23.5579 31.0413V32.8118H25.137C25.2806 32.8118 25.4002 32.8636 25.4959 32.9673C25.5916 33.071 25.6395 33.1946 25.6395 33.3381C25.6395 33.4657 25.5996 33.5734 25.5198 33.6611C25.4401 33.7489 25.3444 33.8087 25.2327 33.8406H25.137H14.7772ZM31.8362 32.8118V27.6917H18.4139V32.8118H22.553V31.0413C22.553 30.3713 22.7923 29.7931 23.2708 29.3066C23.7493 28.8201 24.3315 28.5769 25.0174 28.5769C25.6714 28.5769 26.2336 28.8002 26.7042 29.2468C27.1747 29.6934 27.4339 30.2358 27.4817 30.8738V31.0413V32.8118H31.8362ZM29.4676 23.074H20.7108L19.7537 25.2273C19.6261 25.5144 19.4626 25.7816 19.2632 26.0288C19.0639 26.276 18.8366 26.4874 18.5814 26.6628H31.7405C31.5491 26.5352 31.3697 26.3837 31.2022 26.2083C31.0347 26.0328 30.8952 25.8414 30.7835 25.634L30.6878 25.4426L29.4676 23.074ZM29.1087 18.1213H20.8782V22.0452H29.1087V18.1213ZM27.8167 14.6282H22.0506L21.1414 16.5422C21.0936 16.6539 21.0417 16.7536 20.9859 16.8413C20.9301 16.929 20.8703 17.0208 20.8065 17.1165H29.013C28.9811 17.0686 28.9492 17.0208 28.9173 16.9729C28.8854 16.925 28.8615 16.8772 28.8455 16.8293L28.7498 16.6619L27.8167 14.6282Z" fill="#732FCB"/>
</svg>
