<svg width="50" height="50" viewBox="0 0 50 50" fill="none" xmlns="http://www.w3.org/2000/svg">
<path d="M25 12.75C26.6908 12.75 28.2778 13.069 29.7612 13.707C31.2606 14.3451 32.5645 15.2183 33.6731 16.3269C34.7817 17.4355 35.6549 18.7394 36.293 20.2388C36.931 21.7222 37.25 23.3092 37.25 25C37.25 26.6908 36.931 28.2778 36.293 29.7612C35.6549 31.2606 34.7817 32.5645 33.6731 33.6731C32.5645 34.7817 31.2606 35.6549 29.7612 36.293C28.2778 36.931 26.6908 37.25 25 37.25C23.3092 37.25 21.7222 36.931 20.2388 36.293C18.7394 35.6549 17.4355 34.7817 16.3269 33.6731C15.2183 32.5645 14.3451 31.2606 13.707 29.7612C13.069 28.2778 12.75 26.6908 12.75 25C12.75 23.3092 13.069 21.7222 13.707 20.2388C14.3451 18.7394 15.2183 17.4355 16.3269 16.3269C17.4355 15.2183 18.7394 14.3451 20.2388 13.707C21.7222 13.069 23.3092 12.75 25 12.75ZM25 13.7788C23.4528 13.7788 21.9933 14.0739 20.6216 14.6641C19.2658 15.2383 18.0775 16.0358 17.0566 17.0566C16.0358 18.0775 15.2383 19.2658 14.6641 20.6216C14.0739 21.9933 13.7788 23.4528 13.7788 25C13.7788 26.5472 14.0739 28.0067 14.6641 29.3784C15.2383 30.7342 16.0358 31.9225 17.0566 32.9434C18.0775 33.9642 19.2658 34.7617 20.6216 35.3359C21.9933 35.9261 23.4528 36.2212 25 36.2212C26.5472 36.2212 28.0067 35.9261 29.3784 35.3359C30.7342 34.7617 31.9225 33.9642 32.9434 32.9434C33.9642 31.9225 34.7617 30.7342 35.3359 29.3784C35.9261 28.0067 36.2212 26.5472 36.2212 25C36.2212 23.4528 35.9261 21.9933 35.3359 20.6216C34.7617 19.2658 33.9642 18.0775 32.9434 17.0566C31.9225 16.0358 30.7342 15.2383 29.3784 14.6641C28.0067 14.0739 26.5472 13.7788 25 13.7788ZM25.3828 14.2812L25.4307 14.353L28.4214 19.4971H33.9004C34.0918 19.4971 34.2354 19.5728 34.3311 19.7244C34.4268 19.8759 34.4427 20.0314 34.3789 20.1909L34.355 20.2627L31.6035 25L34.355 29.7373C34.4347 29.8968 34.4387 30.0563 34.3669 30.2158C34.2952 30.3753 34.1715 30.471 33.9961 30.5029H33.9004H31.0771C30.9336 30.5029 30.81 30.4551 30.7063 30.3594C30.6026 30.2637 30.5508 30.144 30.5508 30.0005C30.5508 29.8729 30.5907 29.7612 30.6704 29.6655C30.7502 29.5698 30.8538 29.514 30.9814 29.498L31.0771 29.4741H33.0151L31.0054 26.0288L25.4307 35.647C25.3509 35.8065 25.2233 35.8902 25.0479 35.8982C24.8724 35.9062 24.7288 35.8464 24.6172 35.7188L24.5693 35.647L21.5786 30.5029H15.9561C15.7806 30.5029 15.641 30.4272 15.5374 30.2756C15.4337 30.1241 15.4137 29.9686 15.4775 29.8091L15.5254 29.7373L20.9326 20.5259H16.8413L18.1572 22.7271C18.221 22.8228 18.241 22.9344 18.217 23.062C18.1931 23.1896 18.1333 23.2933 18.0376 23.373L17.9658 23.4209C17.8701 23.4847 17.7585 23.5046 17.6309 23.4807C17.5033 23.4568 17.3996 23.397 17.3198 23.3013L17.272 23.2295L15.5254 20.2627C15.4297 20.1032 15.4217 19.9437 15.5015 19.7842C15.5812 19.6247 15.7008 19.529 15.8604 19.4971H15.9561H21.5308L24.5693 14.353C24.6491 14.1935 24.7767 14.1098 24.9521 14.1018C25.1276 14.0938 25.2712 14.1536 25.3828 14.2812ZM27.8232 20.5259H22.1289L16.8413 29.4741H20.9805L19.7124 27.2729C19.6326 27.1613 19.6127 27.0377 19.6526 26.9021C19.6925 26.7665 19.7682 26.6589 19.8799 26.5791C19.9915 26.5153 20.1072 26.4954 20.2268 26.5193C20.3464 26.5432 20.4461 26.603 20.5259 26.6987L20.5737 26.7705L22.1528 29.4741H25.6699C25.7975 29.4741 25.9092 29.514 26.0049 29.5938C26.1006 29.6735 26.1564 29.7772 26.1724 29.9048L26.1963 30.0005C26.1963 30.1281 26.1524 30.2358 26.0647 30.3235C25.977 30.4112 25.8773 30.471 25.7656 30.5029H25.6699H22.751L25 34.3789L30.4312 25L27.8232 20.5259ZM33.0151 20.5259H29.0195L31.0054 23.9712L33.0151 20.5259ZM25 15.6211L22.7271 19.4971H27.249L25 15.6211Z" fill="#732FCB"/>
</svg>
