<svg width="50" height="50" viewBox="0 0 50 50" fill="none" xmlns="http://www.w3.org/2000/svg">
<path d="M18.0381 13.1448L18.1338 13.1687L35.791 19.509C35.8867 19.5409 35.9665 19.6007 36.0303 19.6885C36.0941 19.7762 36.126 19.8759 36.126 19.9875C36.126 20.0354 36.118 20.0833 36.1021 20.1311C36.0861 20.179 36.0702 20.2268 36.0542 20.2747L35.9824 20.3464L34.5229 21.8777L35.8867 22.7629C35.9665 22.8108 36.0263 22.8706 36.0662 22.9424C36.106 23.0142 36.126 23.0979 36.126 23.1936C36.126 23.2096 36.126 23.2255 36.126 23.2415C36.126 23.2574 36.126 23.2734 36.126 23.2893V23.2654L36.1021 23.3611L34.6904 27.1892C34.6426 27.3009 34.5788 27.3846 34.499 27.4404C34.4193 27.4963 34.3236 27.5242 34.2119 27.5242C34.196 27.5242 34.176 27.5242 34.1521 27.5242C34.1282 27.5242 34.1082 27.5242 34.0923 27.5242L34.0205 27.5002L30.7666 26.1604L30.0488 26.9021C30.001 26.95 29.9452 26.9898 29.8813 27.0217C29.8175 27.0536 29.7537 27.0696 29.6899 27.0696C29.674 27.0696 29.658 27.0656 29.6421 27.0576C29.6261 27.0496 29.6102 27.0457 29.5942 27.0457L29.5225 27.0217L25.3833 25.5862C25.1281 26.0806 24.7612 26.4794 24.2827 26.7825C23.8042 27.0855 23.2699 27.2371 22.6797 27.2371C22.568 27.2371 22.4564 27.2331 22.3447 27.2251C22.2331 27.2171 22.1294 27.2052 22.0337 27.1892L21.4116 32.3572C21.4116 32.4529 21.3797 32.5406 21.3159 32.6204C21.2521 32.7001 21.1724 32.7559 21.0767 32.7878L20.981 32.8118L14.9517 33.6013H14.9038V36.3289C14.9038 36.4724 14.852 36.596 14.7483 36.6997C14.6446 36.8034 14.521 36.8552 14.3774 36.8552C14.2658 36.8552 14.1621 36.8153 14.0664 36.7356C13.9707 36.6558 13.9069 36.5522 13.875 36.4246V36.3289V29.845C13.875 29.7014 13.9268 29.5818 14.0305 29.4861C14.1342 29.3904 14.2498 29.3425 14.3774 29.3425C14.505 29.3425 14.6167 29.3824 14.7124 29.4622C14.8081 29.5419 14.8639 29.6376 14.8799 29.7493L14.9038 29.845V32.5725L20.4546 31.8547L21.0527 26.8303L20.6938 26.6868C20.1196 26.4475 19.6491 26.0687 19.2822 25.5503C18.9154 25.0319 18.7319 24.4457 18.7319 23.7917C18.7319 23.696 18.7359 23.6043 18.7439 23.5166C18.7519 23.4289 18.7638 23.3372 18.7798 23.2415V23.2654L14.7124 21.8538C14.6167 21.8059 14.5369 21.7381 14.4731 21.6504C14.4093 21.5627 14.3774 21.463 14.3774 21.3513C14.3774 21.3354 14.3774 21.3194 14.3774 21.3035C14.3774 21.2875 14.3774 21.2716 14.3774 21.2556L14.4014 21.1599L17.4878 13.4558C17.5197 13.3761 17.5795 13.3043 17.6672 13.2405C17.755 13.1767 17.8547 13.1448 17.9663 13.1448C17.9823 13.1448 17.9982 13.1448 18.0142 13.1448C18.0301 13.1448 18.0461 13.1448 18.062 13.1448H18.0381ZM18.2534 14.2932L15.5498 21.0642L29.5464 25.9451L31.5322 23.8396C31.5801 23.7917 31.6359 23.7519 31.6997 23.72C31.7635 23.6881 31.8353 23.6721 31.915 23.6721C31.9629 23.6721 32.0107 23.6801 32.0586 23.696C32.1064 23.712 32.1463 23.7279 32.1782 23.7439L32.25 23.8157C32.3138 23.8635 32.3577 23.9194 32.3816 23.9832C32.4055 24.047 32.4175 24.1108 32.4175 24.1746C32.4175 24.2384 32.4095 24.2902 32.3936 24.3301C32.3776 24.37 32.3617 24.4138 32.3457 24.4617L32.2739 24.5334L31.5083 25.3469L33.9009 26.3518L35.0015 23.385L33.8052 22.6433L33.6138 22.8108C33.5819 22.8586 33.534 22.8985 33.4702 22.9304C33.4064 22.9623 33.3346 22.9783 33.2549 22.9783C33.1113 22.9783 32.9917 22.9264 32.896 22.8228C32.8003 22.7191 32.7524 22.5955 32.7524 22.4519C32.7524 22.4041 32.7604 22.3562 32.7764 22.3083C32.7923 22.2605 32.8083 22.2126 32.8242 22.1648V22.1887L32.896 22.1169L34.7144 20.2029L18.2534 14.2932ZM20.9331 25.6819L21.0767 25.7537L21.938 26.0886C22.0496 26.1365 22.1693 26.1724 22.2969 26.1963C22.4245 26.2202 22.5521 26.2322 22.6797 26.2322C23.0465 26.2322 23.3815 26.1405 23.6846 25.957C23.9876 25.7736 24.2269 25.5383 24.4023 25.2512L19.7607 23.6003C19.7288 24.031 19.8166 24.4377 20.0239 24.8206C20.2313 25.2034 20.5343 25.4905 20.9331 25.6819Z" fill="#732FCB"/>
</svg>
